DBRep_DrawableShape

CASCADE Topology V1, (c) Matra-Datavision
Locations 0
Curve2ds 8
1 0 0 1 0 
1 10 0 0 1 
1 10 10 -1 0 
1 0 10 0 -1 
1 3 7 0 -1 
1 7 7 -1 0 
1 7 3 0 1 
1 3 3 1 0 
Curves 24
1 0 0 2 1 0 0 
1 10 0 2 0 1 0 
1 10 10 2 -1 0 0 
1 0 10 2 0 -1 0 
1 3 7 2 0 -1 0 
1 7 7 2 -1 0 0 
1 7 3 2 0 1 0 
1 3 3 2 1 0 0 
1 0 0 0 1 0 0 
1 10 0 0 0 1 0 
1 10 10 0 -1 0 0 
1 0 10 0 0 -1 0 
1 3 7 0 0 -1 0 
1 7 7 0 -1 0 0 
1 7 3 0 0 1 0 
1 3 3 0 1 0 0 
1 10 0 0 0 0 1 
1 0 0 0 0 0 1 
1 0 10 0 0 0 1 
1 10 10 0 0 0 1 
1 3 3 0 0 0 1 
1 7 3 0 0 0 1 
1 7 7 0 0 0 1 
1 3 7 0 0 0 1 
Polygon3D 0
PolygonOnTriangulations 0
Surfaces 10
11 2
1 0 0 0 0 0 1 1 0 -0 -0 1 0 
1 0 0 0 0 -1 0 1 0 0 -0 0 1 
1 10 0 0 1 0 0 -0 1 0 0 -0 1 
1 0 10 0 0 1 0 1 0 0 0 0 -1 
1 0 0 0 -1 0 0 0 1 0 0 0 -1 
1 3 0 0 1 0 0 -0 1 0 0 -0 1 
1 0 7 0 0 -1 0 1 0 0 -0 0 1 
1 7 0 0 -1 0 0 0 1 0 0 0 -1 
1 0 3 0 0 1 0 1 0 0 0 0 -1 
1 0 0 0 0 0 1 1 0 -0 -0 1 0 
Triangulations 0

TShapes 65
Ve
1e-07
0 0 2
0 0

0101101
*
Ve
1e-07
10 0 2
0 0

0101101
*
Ed
 1e-07 1 1 0
1  1 0 0 10
2  1 1 0 0 10
4 C0 1 0 2 0
0

0101000
+65 0 -64 0 *
Ve
1e-07
10 10 2
0 0

0101101
*
Ed
 1e-07 1 1 0
1  2 0 0 10
2  2 1 0 0 10
4 C0 1 0 3 0
0

0101000
+64 0 -62 0 *
Ve
1e-07
0 10 2
0 0

0101101
*
Ed
 1e-07 1 1 0
1  3 0 0 10
2  3 1 0 0 10
4 C0 1 0 4 0
0

0101000
+62 0 -60 0 *
Ed
 1e-07 1 1 0
1  4 0 0 10
2  4 1 0 0 10
4 C0 1 0 5 0
0

0101000
+60 0 -65 0 *
Wi

0101100
+63 0 +61 0 +59 0 +58 0 *
Ve
1e-07
3 7 2
0 0

0101101
*
Ve
1e-07
3 3 2
0 0

0101101
*
Ed
 1e-07 1 1 0
1  5 0 0 4
2  5 1 0 0 4
4 C0 1 0 6 0
0

0101000
+56 0 -55 0 *
Ve
1e-07
7 7 2
0 0

0101101
*
Ed
 1e-07 1 1 0
1  6 0 0 4
2  6 1 0 0 4
4 C0 1 0 7 0
0

0101000
+53 0 -56 0 *
Ve
1e-07
7 3 2
0 0

0101101
*
Ed
 1e-07 1 1 0
1  7 0 0 4
2  7 1 0 0 4
4 C0 1 0 8 0
0

0101000
+51 0 -53 0 *
Ed
 1e-07 1 1 0
1  8 0 0 4
2  8 1 0 0 4
4 C0 1 0 9 0
0

0101000
+55 0 -51 0 *
Wi

0101100
-54 0 -52 0 -50 0 -49 0 *
Fa
0  1e-07 1 0

0101000
+57 0 +48 0 *
Ve
1e-07
0 0 0
0 0

0101101
*
Ve
1e-07
10 0 0
0 0

0101101
*
Ed
 1e-07 1 1 0
1  9 0 0 10
4 C0 10 0 2 0
0

0101000
+46 0 -45 0 *
Ve
1e-07
10 10 0
0 0

0101101
*
Ed
 1e-07 1 1 0
1  10 0 0 10
4 C0 10 0 3 0
0

0101000
+45 0 -43 0 *
Ve
1e-07
0 10 0
0 0

0101101
*
Ed
 1e-07 1 1 0
1  11 0 0 10
4 C0 10 0 4 0
0

0101000
+43 0 -41 0 *
Ed
 1e-07 1 1 0
1  12 0 0 10
4 C0 10 0 5 0
0

0101000
+41 0 -46 0 *
Wi

0101100
+44 0 +42 0 +40 0 +39 0 *
Ve
1e-07
3 7 0
0 0

0101101
*
Ve
1e-07
3 3 0
0 0

0101101
*
Ed
 1e-07 1 1 0
1  13 0 0 4
4 C0 10 0 6 0
0

0101000
+37 0 -36 0 *
Ve
1e-07
7 7 0
0 0

0101101
*
Ed
 1e-07 1 1 0
1  14 0 0 4
4 C0 10 0 7 0
0

0101000
+34 0 -37 0 *
Ve
1e-07
7 3 0
0 0

0101101
*
Ed
 1e-07 1 1 0
1  15 0 0 4
4 C0 10 0 8 0
0

0101000
+32 0 -34 0 *
Ed
 1e-07 1 1 0
1  16 0 0 4
4 C0 10 0 9 0
0

0101000
+36 0 -32 0 *
Wi

0101100
-35 0 -33 0 -31 0 -30 0 *
Fa
0  1e-07 10 0

0101000
+38 0 +29 0 *
Ed
 1e-07 1 1 0
1  17 0 0 2
4 C0 2 0 3 0
0

0101000
+45 0 -64 0 *
Ed
 1e-07 1 1 0
1  18 0 0 2
4 C0 2 0 5 0
0

0101000
+46 0 -65 0 *
Wi

0101100
+44 0 +27 0 -63 0 -26 0 *
Fa
0  1e-07 2 0

0101000
+25 0 *
Ed
 1e-07 1 1 0
1  19 0 0 2
4 C0 4 0 5 0
0

0101000
+41 0 -60 0 *
Ed
 1e-07 1 1 0
1  20 0 0 2
4 C0 4 0 3 0
0

0101000
+43 0 -62 0 *
Wi

0101100
+23 0 -59 0 -22 0 +40 0 *
Fa
0  1e-07 4 0

0101000
+21 0 *
Wi

0101100
+26 0 -58 0 -23 0 +39 0 *
Fa
0  1e-07 5 0

0101000
+19 0 *
Wi

0101100
+42 0 +22 0 -61 0 -27 0 *
Fa
0  1e-07 3 0

0101000
+17 0 *
Ed
 1e-07 1 1 0
1  21 0 0 2
4 C0 9 0 6 0
0

0101000
+36 0 -55 0 *
Ed
 1e-07 1 1 0
1  22 0 0 2
4 C0 9 0 8 0
0

0101000
+32 0 -51 0 *
Wi

0101100
+15 0 +49 0 -14 0 -30 0 *
Fa
0  1e-07 9 0

0101000
+13 0 *
Ed
 1e-07 1 1 0
1  23 0 0 2
4 C0 7 0 8 0
0

0101000
+34 0 -53 0 *
Ed
 1e-07 1 1 0
1  24 0 0 2
4 C0 7 0 6 0
0

0101000
+37 0 -56 0 *
Wi

0101100
+11 0 +52 0 -10 0 -33 0 *
Fa
0  1e-07 7 0

0101000
+9 0 *
Wi

0101100
+10 0 +54 0 -15 0 -35 0 *
Fa
0  1e-07 6 0

0101000
+7 0 *
Wi

0101100
+14 0 +50 0 -11 0 -31 0 *
Fa
0  1e-07 8 0

0101000
+5 0 *
Sh

0101100
+47 0 -28 0 +24 0 +20 0 +18 0 +16 0 +12 0 +8 0 +6 0 +4 0 
*
So

0100000
+3 0 *
Co

1100000
+2 0 *

+1 0 