DBRep_DrawableShape

CASCADE Topology V1, (c) Matra-Datavision
Locations 2
1
              1               0               0               0 
              0               1               0               0 
              0               0               1               0 
1
              1               0               0               0 
              0               1               0               0 
              0               0               1               0 
Curve2ds 4
1 6.2831853071795862 0 0 1 
1 0 0 0 1 
1 0 -1.5707963267948966 1 0 
1 0 1.5707963267948966 1 0 
Curves 13
1 0 0 0 0 0 1 
1 0 0 0 -0 1 0 
1 0 10 0 0 0 1 
1 0 0 10 -0 1 0 
1 10 0 0 0 0 1 
1 10 0 0 -0 1 0 
1 10 10 0 0 0 1 
1 10 0 10 -0 1 0 
1 0 0 0 1 0 -0 
1 0 0 10 1 0 -0 
1 0 10 0 1 0 -0 
1 0 10 10 1 0 -0 
8 4.7123889803846897 7.8539816339744828
2 0 0 0 0 -1 0 1 0 0 -0 0 1 5
Polygon3D 0
PolygonOnTriangulations 0
Surfaces 7
1 0 0 0 1 0 -0 0 0 1 0 -1 0 
1 0 0 0 -0 1 0 0 0 1 1 0 -0 
1 0 0 0 0 0 1 1 0 -0 -0 1 0 
1 0 10 0 -0 1 0 0 0 1 1 0 -0 
1 0 0 10 0 0 1 1 0 -0 -0 1 0 
1 10 0 0 1 0 -0 0 0 1 0 -1 0 
4 0 0 0 0 0 1 1 0 -0 -0 1 0 5
Triangulations 0

TShapes 44
Ve
1e-07
0 0 0
0 0

0101101
*
Ve
1e-07
0 0 10
0 0

0101101
*
Ed
 1e-07 1 1 0
1  1 0 0 10
4 C0 1 0 2 0
0

0101000
+44 0 -43 0 *
Ve
1e-07
0 10 0
0 0

0101101
*
Ed
 1e-07 1 1 0
1  2 0 0 10
4 C0 1 0 3 0
0

0101000
+44 0 -41 0 *
Ve
1e-07
0 10 10
0 0

0101101
*
Ed
 1e-07 1 1 0
1  3 0 0 10
4 C0 1 0 4 0
0

0101000
+41 0 -39 0 *
Ed
 1e-07 1 1 0
1  4 0 0 10
4 C0 1 0 5 0
0

0101000
+43 0 -39 0 *
Wi

0101100
-42 0 +40 0 +38 0 -37 0 *
Fa
0  1e-07 1 0

0101000
+36 0 *
Ve
1e-07
10 0 0
0 0

0101101
*
Ve
1e-07
10 0 10
0 0

0101101
*
Ed
 1e-07 1 1 0
1  5 0 0 10
4 C0 6 0 2 0
0

0101000
+34 0 -33 0 *
Ve
1e-07
10 10 0
0 0

0101101
*
Ed
 1e-07 1 1 0
1  6 0 0 10
4 C0 6 0 3 0
0

0101000
+34 0 -31 0 *
Ve
1e-07
10 10 10
0 0

0101101
*
Ed
 1e-07 1 1 0
1  7 0 0 10
4 C0 6 0 4 0
0

0101000
+31 0 -29 0 *
Ed
 1e-07 1 1 0
1  8 0 0 10
4 C0 6 0 5 0
0

0101000
+33 0 -29 0 *
Wi

0101100
-32 0 +30 0 +28 0 -27 0 *
Fa
0  1e-07 6 0

0101000
+26 0 *
Ed
 1e-07 1 1 0
1  9 0 0 10
4 C0 2 0 3 0
0

0101000
+44 0 -34 0 *
Ed
 1e-07 1 1 0
1  10 0 0 10
4 C0 2 0 5 0
0

0101000
+43 0 -33 0 *
Wi

0101100
-24 0 +42 0 +23 0 -32 0 *
Fa
0  1e-07 2 0

0101000
+22 0 *
Ed
 1e-07 1 1 0
1  11 0 0 10
4 C0 4 0 3 0
0

0101000
+41 0 -31 0 *
Ed
 1e-07 1 1 0
1  12 0 0 10
4 C0 4 0 5 0
0

0101000
+39 0 -29 0 *
Wi

0101100
-20 0 +38 0 +19 0 -28 0 *
Fa
0  1e-07 4 0

0101000
+18 0 *
Wi

0101100
-40 0 +24 0 +30 0 -20 0 *
Fa
0  1e-07 3 0

0101000
+16 0 *
Wi

0101100
-37 0 +23 0 +27 0 -19 0 *
Fa
0  1e-07 5 0

0101000
+14 0 *
Sh

0101100
-35 0 +25 0 -21 0 +17 0 -15 0 +13 0 *
So

0100000
+12 0 *
Ve
1e-07
3.06161699786838e-16 0 -5
0 0

0101101
*
Ve
1e-07
3.06161699786838e-16 0 5
0 0

0101101
*
Ed
 1e-07 1 1 0
1  13 0 -1.5707963267949 1.5707963267949
3  1 2CN 7 0 -1.5707963267949 1.5707963267949
0

0101000
+10 0 -9 0 *
Ed
 1e-07 1 1 1
2  3 7 0 0 6.28318530717959
0

0101000
+10 0 -10 0 *
Ed
 1e-07 1 1 1
2  4 7 0 0 6.28318530717959
0

0101000
+9 0 -9 0 *
Wi

0101100
-8 0 +7 0 +8 0 -6 0 *
Fa
0  1e-07 7 0

0101000
+5 0 *
Sh

0101100
+4 0 *
So

0100000
+3 0 *
Co

1100000
+11 1 +2 2 *

+1 0 