DBRep_DrawableShape

CASCADE Topology V3, (c) Open Cascade
Locations 0
Curve2ds 0
Curves 90
1 0 0 5 1 0 0 
1 100 0 5 0 1 0 
1 100 80 5 -1 0 0 
1 0 80 5 0 -1 0 
1 19 34 5 1 0 0 
1 31 34 5 0 1 0 
1 31 46 5 -1 0 0 
1 19 46 5 0 -1 0 
1 58 40 5 -0.1950903220161283 0.98078528040323043 0 
1 57.391036260090296 43.061467458920717 5 -0.55557023301960207 0.83146961230254535 0 
1 55.656854249492383 45.656854249492383 5 -0.83146961230254535 0.55557023301960218 0 
1 53.061467458920717 47.391036260090296 5 -0.98078528040323043 0.1950903220161283 0 
1 50 48 5 -0.98078528040323043 -0.1950903220161283 0 
1 46.938532541079283 47.391036260090296 5 -0.83146961230254535 -0.55557023301960218 0 
1 44.343145750507617 45.656854249492383 5 -0.5555702330196024 -0.83146961230254512 0 
1 42.608963739909704 43.061467458920717 5 -0.1950903220161283 -0.98078528040323043 0 
1 42 40 5 0.19509032201612805 -0.98078528040323054 0 
1 42.608963739909704 36.938532541079283 5 0.55557023301960207 -0.83146961230254535 0 
1 44.343145750507617 34.343145750507617 5 0.83146961230254512 -0.5555702330196024 0 
1 46.938532541079276 32.608963739909711 5 0.98078528040323043 -0.19509032201612869 0 
1 50 32 5 0.98078528040323043 0.19509032201612839 0 
1 53.061467458920717 32.608963739909704 5 0.83146961230254524 0.55557023301960218 0 
1 55.656854249492376 34.343145750507617 5 0.55557023301960262 0.83146961230254501 0 
1 57.391036260090289 36.938532541079276 5 0.19509032201612858 0.98078528040323043 0 
1 83 40 5 -0.49999999999999994 0.86602540378443871 0 
1 79 46.928203230275507 5 -1 1.1102230246251568e-16 0 
1 71 46.928203230275507 5 -0.50000000000000022 -0.8660254037844386 0 
1 67 40 5 0.49999999999999967 -0.86602540378443882 0 
1 71 33.071796769724493 5 1 -1.110223024625156e-16 0 
1 79 33.071796769724493 5 0.49999999999999994 0.86602540378443871 0 
1 0 0 0 1 0 0 
1 100 0 0 0 0 1 
1 0 0 0 0 0 1 
1 100 80 0 -1 0 0 
1 100 0 0 0 1 0 
1 0 80 0 0 -1 0 
1 31 46 0 -1 0 0 
1 31 34 0 0 1 0 
1 19 34 0 1 0 0 
1 19 46 0 0 -1 0 
1 58 40 0 -0.1950903220161283 0.98078528040323043 0 
1 57.391036260090289 36.938532541079276 0 0.19509032201612858 0.98078528040323043 0 
1 55.656854249492376 34.343145750507617 0 0.55557023301960262 0.83146961230254501 0 
1 53.061467458920717 32.608963739909704 0 0.83146961230254524 0.55557023301960218 0 
1 50 32 0 0.98078528040323043 0.19509032201612839 0 
1 46.938532541079276 32.608963739909711 0 0.98078528040323043 -0.19509032201612869 0 
1 44.343145750507617 34.343145750507617 0 0.83146961230254512 -0.5555702330196024 0 
1 42.608963739909704 36.938532541079283 0 0.55557023301960207 -0.83146961230254535 0 
1 42 40 0 0.19509032201612805 -0.98078528040323054 0 
1 42.608963739909704 43.061467458920717 0 -0.1950903220161283 -0.98078528040323043 0 
1 44.343145750507617 45.656854249492383 0 -0.5555702330196024 -0.83146961230254512 0 
1 46.938532541079283 47.391036260090296 0 -0.83146961230254535 -0.55557023301960218 0 
1 50 48 0 -0.98078528040323043 -0.1950903220161283 0 
1 53.061467458920717 47.391036260090296 0 -0.98078528040323043 0.1950903220161283 0 
1 55.656854249492383 45.656854249492383 0 -0.83146961230254535 0.55557023301960218 0 
1 57.391036260090296 43.061467458920717 0 -0.55557023301960207 0.83146961230254535 0 
1 83 40 0 -0.49999999999999994 0.86602540378443871 0 
1 79 33.071796769724493 0 0.49999999999999994 0.86602540378443871 0 
1 71 33.071796769724493 0 1 -1.110223024625156e-16 0 
1 67 40 0 0.49999999999999967 -0.86602540378443882 0 
1 71 46.928203230275507 0 -0.50000000000000022 -0.8660254037844386 0 
1 79 46.928203230275507 0 -1 1.1102230246251568e-16 0 
1 100 80 0 0 0 1 
1 0 80 0 0 0 1 
1 31 34 0 0 0 1 
1 19 34 0 0 0 1 
1 31 46 0 0 0 1 
1 19 46 0 0 0 1 
1 57.391036260090296 43.061467458920717 0 0 0 1 
1 58 40 0 0 0 1 
1 55.656854249492383 45.656854249492383 0 0 0 1 
1 53.061467458920717 47.391036260090296 0 0 0 1 
1 50 48 0 0 0 1 
1 46.938532541079283 47.391036260090296 0 0 0 1 
1 44.343145750507617 45.656854249492383 0 0 0 1 
1 42.608963739909704 43.061467458920717 0 0 0 1 
1 42 40 0 0 0 1 
1 42.608963739909704 36.938532541079283 0 0 0 1 
1 44.343145750507617 34.343145750507617 0 0 0 1 
1 46.938532541079276 32.608963739909711 0 0 0 1 
1 50 32 0 0 0 1 
1 53.061467458920717 32.608963739909704 0 0 0 1 
1 55.656854249492376 34.343145750507617 0 0 0 1 
1 57.391036260090289 36.938532541079276 0 0 0 1 
1 79 46.928203230275507 0 0 0 1 
1 83 40 0 0 0 1 
1 71 46.928203230275507 0 0 0 1 
1 67 40 0 0 0 1 
1 71 33.071796769724493 0 0 0 1 
1 79 33.071796769724493 0 0 0 1 
Polygon3D 0
PolygonOnTriangulations 180
2 1 2 
p 0.408574459901538 1 0 100 
2 4 3 
p 0.408574459901538 1 0 100 
2 2 3 
p 0.408574459901538 1 0 80 
2 4 3 
p 0.408574459901538 1 0 80 
2 3 4 
p 0.408574459901538 1 0 100 
2 4 3 
p 0.408574459901538 1 0 100 
2 4 1 
p 0.408574459901538 1 0 80 
2 4 3 
p 0.408574459901538 1 0 80 
2 5 6 
p 0.408574459901538 1 0 12 
2 3 2 
p 0.408574459901538 1 0 12 
2 6 8 
p 0.408574459901538 1 0 12 
2 3 2 
p 0.408574459901538 1 0 12 
2 8 7 
p 0.408574459901538 1 0 12 
2 3 2 
p 0.408574459901538 1 0 12 
2 7 5 
p 0.408574459901538 1 0 12 
2 3 2 
p 0.408574459901538 1 0 12 
2 9 10 
p 0.408574459901538 1 0 3.12144515225805 
2 3 2 
p 0.408574459901538 1 0 3.12144515225805 
2 10 24 
p 0.408574459901538 1 0 3.12144515225806 
2 3 2 
p 0.408574459901538 1 0 3.12144515225806 
2 24 23 
p 0.408574459901538 1 0 3.12144515225806 
2 3 2 
p 0.408574459901538 1 0 3.12144515225806 
2 23 22 
p 0.408574459901538 1 0 3.12144515225805 
2 3 2 
p 0.408574459901538 1 0 3.12144515225805 
2 22 21 
p 0.408574459901538 1 0 3.12144515225805 
2 3 2 
p 0.408574459901538 1 0 3.12144515225805 
2 21 20 
p 0.408574459901538 1 0 3.12144515225806 
2 3 2 
p 0.408574459901538 1 0 3.12144515225806 
2 20 19 
p 0.408574459901538 1 0 3.12144515225806 
2 3 2 
p 0.408574459901538 1 0 3.12144515225806 
2 19 18 
p 0.408574459901538 1 0 3.12144515225805 
2 3 2 
p 0.408574459901538 1 0 3.12144515225805 
2 18 17 
p 0.408574459901538 1 0 3.12144515225805 
2 3 2 
p 0.408574459901538 1 0 3.12144515225805 
2 17 16 
p 0.408574459901538 1 0 3.12144515225806 
2 3 2 
p 0.408574459901538 1 0 3.12144515225806 
2 16 15 
p 0.408574459901538 1 0 3.12144515225805 
2 3 2 
p 0.408574459901538 1 0 3.12144515225805 
2 15 14 
p 0.408574459901538 1 0 3.12144515225806 
2 3 2 
p 0.408574459901538 1 0 3.12144515225806 
2 14 13 
p 0.408574459901538 1 0 3.12144515225805 
2 3 2 
p 0.408574459901538 1 0 3.12144515225805 
2 13 12 
p 0.408574459901538 1 0 3.12144515225805 
2 3 2 
p 0.408574459901538 1 0 3.12144515225805 
2 12 11 
p 0.408574459901538 1 0 3.12144515225805 
2 3 2 
p 0.408574459901538 1 0 3.12144515225805 
2 11 9 
p 0.408574459901538 1 0 3.12144515225806 
2 3 2 
p 0.408574459901538 1 0 3.12144515225806 
2 25 26 
p 0.408574459901538 1 0 8 
2 3 2 
p 0.408574459901538 1 0 8 
2 26 30 
p 0.408574459901538 1 0 8 
2 3 2 
p 0.408574459901538 1 0 8 
2 30 29 
p 0.408574459901538 1 0 8 
2 3 2 
p 0.408574459901538 1 0 8 
2 29 28 
p 0.408574459901538 1 0 8 
2 3 2 
p 0.408574459901538 1 0 8 
2 28 27 
p 0.408574459901538 1 0 8 
2 3 2 
p 0.408574459901538 1 0 8 
2 27 25 
p 0.408574459901538 1 0 8 
2 3 2 
p 0.408574459901538 1 0 8 
2 1 2 
p 0.408574459901538 1 0 100 
2 4 3 
p 0.408574459901538 1 0 100 
2 2 3 
p 0.408574459901538 1 0 5 
2 1 4 
p 0.408574459901538 1 0 5 
2 1 4 
p 0.408574459901538 1 0 5 
2 2 3 
p 0.408574459901538 1 0 5 
2 1 2 
p 0.408574459901538 1 0 100 
2 1 2 
p 0.408574459901538 1 0 100 
2 3 1 
p 0.408574459901538 1 0 80 
2 1 2 
p 0.408574459901538 1 0 80 
2 2 4 
p 0.408574459901538 1 0 80 
2 1 2 
p 0.408574459901538 1 0 80 
2 5 6 
p 0.408574459901538 1 0 12 
2 4 1 
p 0.408574459901538 1 0 12 
2 8 5 
p 0.408574459901538 1 0 12 
2 4 1 
p 0.408574459901538 1 0 12 
2 7 8 
p 0.408574459901538 1 0 12 
2 4 1 
p 0.408574459901538 1 0 12 
2 6 7 
p 0.408574459901538 1 0 12 
2 4 1 
p 0.408574459901538 1 0 12 
2 9 10 
p 0.408574459901538 1 0 3.12144515225805 
2 4 1 
p 0.408574459901538 1 0 3.12144515225805 
2 24 9 
p 0.408574459901538 1 0 3.12144515225806 
2 4 1 
p 0.408574459901538 1 0 3.12144515225806 
2 23 24 
p 0.408574459901538 1 0 3.12144515225805 
2 4 1 
p 0.408574459901538 1 0 3.12144515225805 
2 22 23 
p 0.408574459901538 1 0 3.12144515225805 
2 4 1 
p 0.408574459901538 1 0 3.12144515225805 
2 21 22 
p 0.408574459901538 1 0 3.12144515225805 
2 4 1 
p 0.408574459901538 1 0 3.12144515225805 
2 20 21 
p 0.408574459901538 1 0 3.12144515225806 
2 4 1 
p 0.408574459901538 1 0 3.12144515225806 
2 19 20 
p 0.408574459901538 1 0 3.12144515225805 
2 4 1 
p 0.408574459901538 1 0 3.12144515225805 
2 18 19 
p 0.408574459901538 1 0 3.12144515225806 
2 4 1 
p 0.408574459901538 1 0 3.12144515225806 
2 17 18 
p 0.408574459901538 1 0 3.12144515225805 
2 4 1 
p 0.408574459901538 1 0 3.12144515225805 
2 16 17 
p 0.408574459901538 1 0 3.12144515225805 
2 4 1 
p 0.408574459901538 1 0 3.12144515225805 
2 15 16 
p 0.408574459901538 1 0 3.12144515225806 
2 4 1 
p 0.408574459901538 1 0 3.12144515225806 
2 14 15 
p 0.408574459901538 1 0 3.12144515225806 
2 4 1 
p 0.408574459901538 1 0 3.12144515225806 
2 13 14 
p 0.408574459901538 1 0 3.12144515225805 
2 4 1 
p 0.408574459901538 1 0 3.12144515225805 
2 12 13 
p 0.408574459901538 1 0 3.12144515225805 
2 4 1 
p 0.408574459901538 1 0 3.12144515225805 
2 11 12 
p 0.408574459901538 1 0 3.12144515225806 
2 4 1 
p 0.408574459901538 1 0 3.12144515225806 
2 10 11 
p 0.408574459901538 1 0 3.12144515225806 
2 4 1 
p 0.408574459901538 1 0 3.12144515225806 
2 25 26 
p 0.408574459901538 1 0 8 
2 4 1 
p 0.408574459901538 1 0 8 
2 30 25 
p 0.408574459901538 1 0 8 
2 4 1 
p 0.408574459901538 1 0 8 
2 29 30 
p 0.408574459901538 1 0 8 
2 4 1 
p 0.408574459901538 1 0 8 
2 28 29 
p 0.408574459901538 1 0 8 
2 4 1 
p 0.408574459901538 1 0 8 
2 27 28 
p 0.408574459901538 1 0 8 
2 4 1 
p 0.408574459901538 1 0 8 
2 26 27 
p 0.408574459901538 1 0 8 
2 4 1 
p 0.408574459901538 1 0 8 
2 2 3 
p 0.408574459901538 1 0 5 
2 1 4 
p 0.408574459901538 1 0 5 
2 2 3 
p 0.408574459901538 1 0 5 
2 1 4 
p 0.408574459901538 1 0 5 
2 1 2 
p 0.408574459901538 1 0 5 
2 4 3 
p 0.408574459901538 1 0 5 
2 4 3 
p 0.408574459901538 1 0 5 
2 1 2 
p 0.408574459901538 1 0 5 
2 1 2 
p 0.408574459901538 1 0 5 
2 4 3 
p 0.408574459901538 1 0 5 
2 1 2 
p 0.408574459901538 1 0 5 
2 4 3 
p 0.408574459901538 1 0 5 
2 1 2 
p 0.408574459901538 1 0 5 
2 4 3 
p 0.408574459901538 1 0 5 
2 4 3 
p 0.408574459901538 1 0 5 
2 1 2 
p 0.408574459901538 1 0 5 
2 1 2 
p 0.408574459901538 1 0 5 
2 4 3 
p 0.408574459901538 1 0 5 
2 1 2 
p 0.408574459901538 1 0 5 
2 4 3 
p 0.408574459901538 1 0 5 
2 1 2 
p 0.408574459901538 1 0 5 
2 4 3 
p 0.408574459901538 1 0 5 
2 1 2 
p 0.408574459901538 1 0 5 
2 4 3 
p 0.408574459901538 1 0 5 
2 1 2 
p 0.408574459901538 1 0 5 
2 4 3 
p 0.408574459901538 1 0 5 
2 1 2 
p 0.408574459901538 1 0 5 
2 4 3 
p 0.408574459901538 1 0 5 
2 1 2 
p 0.408574459901538 1 0 5 
2 4 3 
p 0.408574459901538 1 0 5 
2 1 2 
p 0.408574459901538 1 0 5 
2 4 3 
p 0.408574459901538 1 0 5 
2 1 2 
p 0.408574459901538 1 0 5 
2 4 3 
p 0.408574459901538 1 0 5 
2 1 2 
p 0.408574459901538 1 0 5 
2 4 3 
p 0.408574459901538 1 0 5 
2 1 2 
p 0.408574459901538 1 0 5 
2 4 3 
p 0.408574459901538 1 0 5 
2 1 2 
p 0.408574459901538 1 0 5 
2 4 3 
p 0.408574459901538 1 0 5 
2 1 2 
p 0.408574459901538 1 0 5 
2 4 3 
p 0.408574459901538 1 0 5 
2 1 2 
p 0.408574459901538 1 0 5 
2 4 3 
p 0.408574459901538 1 0 5 
2 1 2 
p 0.408574459901538 1 0 5 
2 4 3 
p 0.408574459901538 1 0 5 
2 4 3 
p 0.408574459901538 1 0 5 
2 1 2 
p 0.408574459901538 1 0 5 
2 1 2 
p 0.408574459901538 1 0 5 
2 4 3 
p 0.408574459901538 1 0 5 
2 1 2 
p 0.408574459901538 1 0 5 
2 4 3 
p 0.408574459901538 1 0 5 
2 1 2 
p 0.408574459901538 1 0 5 
2 4 3 
p 0.408574459901538 1 0 5 
2 1 2 
p 0.408574459901538 1 0 5 
2 4 3 
p 0.408574459901538 1 0 5 
Surfaces 32
1 0 0 5 0 0 1 1 0 -0 -0 1 0 
1 0 0 0 0 -1 0 1 0 0 -0 0 1 
1 100 0 0 1 0 0 -0 1 0 0 -0 1 
1 0 80 0 0 1 0 -1 0 0 0 -0 1 
1 0 0 0 -1 0 0 0 -1 0 0 0 1 
1 19 34 0 0 -1 0 1 0 0 -0 0 1 
1 31 34 0 1 0 0 -0 1 0 0 -0 1 
1 31 46 0 0 1 0 -1 0 0 0 -0 1 
1 19 46 0 -1 0 0 0 -1 0 0 0 1 
1 57.846282243225843 41.560722576129024 0 0.98078528040323043 0.19509032201612825 0 0 -0 1 0.19509032201612825 -0.98078528040323043 -0 
1 56.651756898420359 44.444561864156817 0 0.83146961230254524 0.55557023301960218 0 0 -0 1 0.55557023301960218 -0.83146961230254524 -0 
1 54.444561864156817 46.651756898420359 0 0.55557023301960229 0.83146961230254524 0 0 -0 1 0.83146961230254524 -0.55557023301960229 -0 
1 51.560722576129024 47.846282243225843 0 0.19509032201612833 0.98078528040323043 0 0 -0 1 0.98078528040323043 -0.19509032201612833 -0 
1 48.439277423870976 47.846282243225843 0 -0.19509032201612819 0.98078528040323043 0 0 0 1 0.98078528040323043 0.19509032201612819 -0 
1 45.555438135843183 46.651756898420359 0 -0.55557023301960207 0.83146961230254546 0 0 0 1 0.83146961230254546 0.55557023301960207 -0 
1 43.348243101579641 44.444561864156817 0 -0.83146961230254535 0.55557023301960218 0 0 0 1 0.55557023301960218 0.83146961230254535 -0 
1 42.153717756774157 41.560722576129031 0 -0.98078528040323043 0.19509032201612861 0 0 0 1 0.19509032201612861 0.98078528040323043 -0 
1 42.153717756774157 38.439277423870976 0 -0.98078528040323043 -0.19509032201612836 0 0 0 1 -0.19509032201612836 0.98078528040323043 0 
1 43.348243101579634 35.555438135843183 0 -0.83146961230254546 -0.55557023301960196 0 0 0 1 -0.55557023301960196 0.83146961230254546 0 
1 45.555438135843183 33.348243101579641 0 -0.55557023301960218 -0.83146961230254524 0 0 0 1 -0.83146961230254524 0.55557023301960218 0 
1 48.439277423870969 32.153717756774157 0 -0.19509032201612869 -0.98078528040323043 0 0 0 1 -0.98078528040323043 0.19509032201612869 0 
1 51.560722576129024 32.153717756774157 0 0.1950903220161283 -0.98078528040323043 0 0 0 1 -0.98078528040323043 -0.1950903220161283 0 
1 54.444561864156817 33.348243101579634 0 0.55557023301960184 -0.83146961230254546 0 0 0 1 -0.83146961230254546 -0.55557023301960184 0 
1 56.651756898420359 35.555438135843183 0 0.83146961230254524 -0.55557023301960218 0 0 0 1 -0.55557023301960218 -0.83146961230254524 0 
1 57.846282243225843 38.439277423870969 0 0.98078528040323032 -0.19509032201612872 0 0 0 1 -0.19509032201612872 -0.98078528040323032 0 
1 81.928203230275514 44 0 0.86602540378443871 0.49999999999999994 0 0 -0 1 0.49999999999999994 -0.86602540378443871 -0 
1 75 48 0 6.123233995736766e-17 1 0 0 -0 1 1 -6.123233995736766e-17 -0 
1 68.071796769724486 44 0 -0.86602540378443871 0.49999999999999994 0 0 0 1 0.49999999999999994 0.86602540378443871 -0 
1 68.071796769724486 36 0 -0.86602540378443882 -0.49999999999999972 0 0 0 1 -0.49999999999999972 0.86602540378443882 0 
1 75 32 0 -1.8369701987210297e-16 -1 0 0 0 1 -1 1.8369701987210297e-16 0 
1 81.9282032302755 36 0 0.86602540378443837 -0.50000000000000044 0 0 0 1 -0.50000000000000044 -0.86602540378443837 0 
1 0 0 0 0 0 -1 1 0 0 0 -1 0 
Triangulations 32
30 34 1 0 7.105427357601e-15
0 0 5 100 0 5 100 80 5 0 80 5 19 34 5 31 34 5 19 46 5 31 46 5 58 40 5 57.3910362600903 43.0614674589207 5 57.3910362600903 36.9385325410793 5 55.6568542494924 34.3431457505076 5 53.0614674589207 32.6089637399097 5 50 32 5 46.9385325410793 32.6089637399097 5 44.3431457505076 34.3431457505076 5 42.6089637399097 36.9385325410793 5 42 40 5 42.6089637399097 43.0614674589207 5 44.3431457505076 45.6568542494924 5 46.9385325410793 47.3910362600903 5 50 48 5 53.0614674589207 47.3910362600903 5 55.6568542494924 45.6568542494924 5 83 40 5 79 46.9282032302755 5 79 33.0717967697245 5 71 33.0717967697245 5 67 40 5 71 46.9282032302755 5 0 0 100 0 100 80 0 80 19 34 31 34 19 46 31 46 58 40 57.3910362600903 43.0614674589207 57.3910362600903 36.9385325410793 55.6568542494924 34.3431457505076 53.0614674589207 32.6089637399097 50 32 46.9385325410793 32.6089637399097 44.3431457505076 34.3431457505076 42.6089637399097 36.9385325410793 42 40 42.6089637399097 43.0614674589207 44.3431457505076 45.6568542494924 46.9385325410793 47.3910362600903 50 48 53.0614674589207 47.3910362600903 55.6568542494924 45.6568542494924 83 40 79 46.9282032302755 79 33.0717967697245 71 33.0717967697245 67 40 71 46.9282032302755 6 5 1 17 6 16 15 16 6 15 6 1 4 5 7 4 7 8 4 1 5 18 8 6 18 6 17 14 15 1 19 8 18 20 8 19 21 4 8 21 8 20 22 4 21 2 13 14 2 14 1 28 11 12 28 12 13 28 13 2 29 10 9 29 9 11 29 11 28 27 28 2 30 23 24 30 24 10 30 10 29 25 27 2 3 22 23 3 26 25 3 30 26 3 4 22 3 23 30 3 25 2 
4 2 1 0 0
0 0 0 100 0 0 100 0 5 0 0 5 0 0 100 0 100 5 0 5 3 1 2 3 4 1 
4 2 1 0 0
100 0 0 100 80 0 100 80 5 100 0 5 0 0 80 0 80 5 0 5 3 1 2 3 4 1 
4 2 1 0 0
100 80 0 0 80 0 0 80 5 100 80 5 -100 0 0 0 0 5 -100 5 3 1 2 3 4 1 
4 2 1 0 0
0 80 0 0 0 0 0 0 5 0 80 5 -80 0 0 0 0 5 -80 5 3 1 2 3 4 1 
4 2 1 0 0
31 34 0 31 34 5 19 34 5 19 34 0 12 0 12 5 0 5 0 0 2 3 4 2 4 1 
4 2 1 0 0
31 46 0 31 46 5 31 34 5 31 34 0 12 0 12 5 0 5 0 0 2 3 4 2 4 1 
4 2 1 0 0
19 46 0 19 46 5 31 46 5 31 46 0 12 0 12 5 0 5 0 0 2 3 4 2 4 1 
4 2 1 0 0
19 34 0 19 34 5 19 46 5 19 46 0 12 0 12 5 0 5 0 0 2 3 4 2 4 1 
4 2 1 0 0.153717756774159
57.3910362600903 43.0614674589207 0 57.3910362600903 43.0614674589207 5 58 40 5 58 40 0 0 -1.56072257612902 5 -1.56072257612902 5 1.56072257612903 0 1.56072257612903 3 1 2 3 4 1 
4 2 1 0 0.153717756774151
55.6568542494924 45.6568542494924 0 55.6568542494924 45.6568542494924 5 57.3910362600903 43.0614674589207 5 57.3910362600903 43.0614674589207 0 0 -1.56072257612903 5 -1.56072257612903 5 1.56072257612903 0 1.56072257612903 3 1 2 3 4 1 
4 2 1 0 0.153717756774158
53.0614674589207 47.3910362600903 0 53.0614674589207 47.3910362600903 5 55.6568542494924 45.6568542494924 5 55.6568542494924 45.6568542494924 0 0 -1.56072257612903 5 -1.56072257612903 5 1.56072257612903 0 1.56072257612903 3 1 2 3 4 1 
4 2 1 0 0.153717756774159
50 48 0 50 48 5 53.0614674589207 47.3910362600903 5 53.0614674589207 47.3910362600903 0 0 -1.56072257612902 5 -1.56072257612902 5 1.56072257612903 0 1.56072257612903 3 1 2 3 4 1 
4 2 1 0 0.153717756774159
46.9385325410793 47.3910362600903 0 46.9385325410793 47.3910362600903 5 50 48 5 50 48 0 0 -1.56072257612902 5 -1.56072257612902 5 1.56072257612903 0 1.56072257612903 3 1 2 3 4 1 
4 2 1 0 0.153717756774151
44.3431457505076 45.6568542494924 0 44.3431457505076 45.6568542494924 5 46.9385325410793 47.3910362600903 5 46.9385325410793 47.3910362600903 0 0 -1.56072257612903 5 -1.56072257612903 5 1.56072257612903 0 1.56072257612903 3 1 2 3 4 1 
4 2 1 0 0.153717756774158
42.6089637399097 43.0614674589207 0 42.6089637399097 43.0614674589207 5 44.3431457505076 45.6568542494924 5 44.3431457505076 45.6568542494924 0 0 -1.56072257612903 5 -1.56072257612903 5 1.56072257612903 0 1.56072257612903 3 1 2 3 4 1 
4 2 1 0 0.153717756774159
42 40 0 42 40 5 42.6089637399097 43.0614674589207 5 42.6089637399097 43.0614674589207 0 0 -1.56072257612903 5 -1.56072257612903 5 1.56072257612902 0 1.56072257612902 3 1 2 3 4 1 
4 2 1 0 0.153717756774159
42.6089637399097 36.9385325410793 0 42.6089637399097 36.9385325410793 5 42 40 5 42 40 0 0 -1.56072257612903 5 -1.56072257612903 5 1.56072257612903 0 1.56072257612903 3 1 2 3 4 1 
4 2 1 0 0.15371775677416
44.3431457505076 34.3431457505076 0 44.3431457505076 34.3431457505076 5 42.6089637399097 36.9385325410793 5 42.6089637399097 36.9385325410793 0 0 -1.56072257612903 5 -1.56072257612903 5 1.56072257612903 0 1.56072257612903 3 1 2 3 4 1 
4 2 1 0 0.153717756774154
46.9385325410793 32.6089637399097 0 46.9385325410793 32.6089637399097 5 44.3431457505076 34.3431457505076 5 44.3431457505076 34.3431457505076 0 0 -1.56072257612902 5 -1.56072257612902 5 1.56072257612903 0 1.56072257612903 3 1 2 3 4 1 
4 2 1 0 0.153717756774159
50 32 0 50 32 5 46.9385325410793 32.6089637399097 5 46.9385325410793 32.6089637399097 0 0 -1.56072257612903 5 -1.56072257612903 5 1.56072257612903 0 1.56072257612903 3 1 2 3 4 1 
4 2 1 0 0.153717756774159
53.0614674589207 32.6089637399097 0 53.0614674589207 32.6089637399097 5 50 32 5 50 32 0 0 -1.56072257612903 5 -1.56072257612903 5 1.56072257612903 0 1.56072257612903 3 1 2 3 4 1 
4 2 1 0 0.153717756774164
55.6568542494924 34.3431457505076 0 55.6568542494924 34.3431457505076 5 53.0614674589207 32.6089637399097 5 53.0614674589207 32.6089637399097 0 0 -1.56072257612902 5 -1.56072257612902 5 1.56072257612903 0 1.56072257612903 3 1 2 3 4 1 
4 2 1 0 0.153717756774164
57.3910362600903 36.9385325410793 0 57.3910362600903 36.9385325410793 5 55.6568542494924 34.3431457505076 5 55.6568542494924 34.3431457505076 0 0 -1.56072257612902 5 -1.56072257612902 5 1.56072257612903 0 1.56072257612903 3 1 2 3 4 1 
4 2 1 0 0.153717756774159
58 40 0 58 40 5 57.3910362600903 36.9385325410793 5 57.3910362600903 36.9385325410793 0 0 -1.56072257612903 5 -1.56072257612903 5 1.56072257612903 0 1.56072257612903 3 1 2 3 4 1 
4 2 1 0 1.0717967697245
79 46.9282032302755 0 79 46.9282032302755 5 83 40 5 83 40 0 0 -4 5 -4 5 4 0 4 4 1 2 3 4 2 
4 2 1 0 1.07179676972449
71 46.9282032302755 0 71 46.9282032302755 5 79 46.9282032302755 5 79 46.9282032302755 0 0 -4 5 -4 5 4 0 4 3 1 2 3 4 1 
4 2 1 0 1.0717967697245
67 40 0 67 40 5 71 46.9282032302755 5 71 46.9282032302755 0 0 -4 5 -4 5 4 0 4 4 1 2 3 4 2 
4 2 1 0 1.0717967697245
71 33.0717967697245 0 71 33.0717967697245 5 67 40 5 67 40 0 0 -4 5 -4 5 4 0 4 4 1 2 3 4 2 
4 2 1 0 1.07179676972449
79 33.0717967697245 0 79 33.0717967697245 5 71 33.0717967697245 5 71 33.0717967697245 0 0 -4 5 -4 5 4 0 4 3 1 2 3 4 1 
4 2 1 0 1.07179676972449
83 40 0 83 40 5 79 33.0717967697245 5 79 33.0717967697245 0 0 -4 5 -4 5 4 0 4 4 1 2 3 4 2 
30 34 1 0 0
100 80 0 0 80 0 100 0 0 0 0 0 31 46 0 19 46 0 19 34 0 31 34 0 58 40 0 57.3910362600903 43.0614674589207 0 55.6568542494924 45.6568542494924 0 53.0614674589207 47.3910362600903 0 50 48 0 46.9385325410793 47.3910362600903 0 44.3431457505076 45.6568542494924 0 42.6089637399097 43.0614674589207 0 42 40 0 42.6089637399097 36.9385325410793 0 44.3431457505076 34.3431457505076 0 46.9385325410793 32.6089637399097 0 50 32 0 53.0614674589207 32.6089637399097 0 55.6568542494924 34.3431457505076 0 57.3910362600903 36.9385325410793 0 83 40 0 79 46.9282032302755 0 71 46.9282032302755 0 67 40 0 71 33.0717967697245 0 79 33.0717967697245 0 100 -80 0 -80 100 0 0 0 31 -46 19 -46 19 -34 31 -34 58 -40 57.3910362600903 -43.0614674589207 55.6568542494924 -45.6568542494924 53.0614674589207 -47.3910362600903 50 -48 46.9385325410793 -47.3910362600903 44.3431457505076 -45.6568542494924 42.6089637399097 -43.0614674589207 42 -40 42.6089637399097 -36.9385325410793 44.3431457505076 -34.3431457505076 46.9385325410793 -32.6089637399097 50 -32 53.0614674589207 -32.6089637399097 55.6568542494924 -34.3431457505076 57.3910362600903 -36.9385325410793 83 -40 79 -46.9282032302755 71 -46.9282032302755 67 -40 71 -33.0717967697245 79 -33.0717967697245 5 6 2 16 5 15 14 15 5 14 5 2 4 6 7 4 7 8 4 2 6 17 8 5 17 5 16 13 14 2 18 8 17 19 8 18 20 4 8 20 8 19 21 4 20 1 12 13 1 13 2 27 10 11 27 11 12 27 12 1 28 9 10 28 24 9 28 10 27 26 27 1 29 22 23 29 23 24 29 24 28 25 26 1 3 21 22 3 29 30 3 30 25 3 4 21 3 22 29 3 25 1 

TShapes 222
Ve
1e-07
0 0 5
0 0

0101101
*
Ve
1e-07
100 0 5
0 0

0101101
*
Ed
 1e-07 1 1 0
1  1 0 0 100
4 C0 1 0 2 0
6  1 1 0
6  2 2 0
0

0101000
+222 0 -221 0 *
Ve
1e-07
100 80 5
0 0

0101101
*
Ed
 1e-07 1 1 0
1  2 0 0 80
4 C0 1 0 3 0
6  3 1 0
6  4 3 0
0

0101000
+221 0 -219 0 *
Ve
1e-07
0 80 5
0 0

0101101
*
Ed
 1e-07 1 1 0
1  3 0 0 100
4 C0 1 0 4 0
6  5 1 0
6  6 4 0
0

0101000
+219 0 -217 0 *
Ed
 1e-07 1 1 0
1  4 0 0 80
4 C0 1 0 5 0
6  7 1 0
6  8 5 0
0

0101000
+217 0 -222 0 *
Wi

0101100
+220 0 +218 0 +216 0 +215 0 *
Ve
1e-07
19 34 5
0 0

0101101
*
Ve
1e-07
31 34 5
0 0

0101101
*
Ed
 1e-07 1 1 0
1  5 0 0 12
4 C0 1 0 6 0
6  9 1 0
6  10 6 0
0

0101000
+213 0 -212 0 *
Ve
1e-07
31 46 5
0 0

0101101
*
Ed
 1e-07 1 1 0
1  6 0 0 12
4 C0 1 0 7 0
6  11 1 0
6  12 7 0
0

0101000
+212 0 -210 0 *
Ve
1e-07
19 46 5
0 0

0101101
*
Ed
 1e-07 1 1 0
1  7 0 0 12
4 C0 1 0 8 0
6  13 1 0
6  14 8 0
0

0101000
+210 0 -208 0 *
Ed
 1e-07 1 1 0
1  8 0 0 12
4 C0 1 0 9 0
6  15 1 0
6  16 9 0
0

0101000
+208 0 -213 0 *
Wi

0101100
-211 0 -209 0 -207 0 -206 0 *
Ve
0.153719293951728
58 40 5
0 0

0101101
*
Ve
0.153719293951726
57.3910362600903 43.0614674589207 5
0 0

0101101
*
Ed
 0.153719293951726 1 1 0
1  9 0 0 3.12144515225805
4 C0 1 0 10 0
6  17 1 0
6  18 10 0
0

0101000
+204 0 -203 0 *
Ve
0.153719293951722
55.6568542494924 45.6568542494924 5
0 0

0101101
*
Ed
 0.153719293951722 1 1 0
1  10 0 0 3.12144515225806
4 C0 1 0 11 0
6  19 1 0
6  20 11 0
0

0101000
+203 0 -201 0 *
Ve
0.153719293951722
53.0614674589207 47.3910362600903 5
0 0

0101101
*
Ed
 0.15371929395172 1 1 0
1  11 0 0 3.12144515225806
4 C0 1 0 12 0
6  21 1 0
6  22 12 0
0

0101000
+201 0 -199 0 *
Ve
0.153719293951726
50 48 5
0 0

0101101
*
Ed
 0.153719293951719 1 1 0
1  12 0 0 3.12144515225805
4 C0 1 0 13 0
6  23 1 0
6  24 13 0
0

0101000
+199 0 -197 0 *
Ve
0.153719293951726
46.9385325410793 47.3910362600903 5
0 0

0101101
*
Ed
 0.153719293951726 1 1 0
1  13 0 0 3.12144515225805
4 C0 1 0 14 0
6  25 1 0
6  26 14 0
0

0101000
+197 0 -195 0 *
Ve
0.153719293951722
44.3431457505076 45.6568542494924 5
0 0

0101101
*
Ed
 0.153719293951722 1 1 0
1  14 0 0 3.12144515225806
4 C0 1 0 15 0
6  27 1 0
6  28 15 0
0

0101000
+195 0 -193 0 *
Ve
0.153719293951726
42.6089637399097 43.0614674589207 5
0 0

0101101
*
Ed
 0.153719293951716 1 1 0
1  15 0 0 3.12144515225806
4 C0 1 0 16 0
6  29 1 0
6  30 16 0
0

0101000
+193 0 -191 0 *
Ve
0.153719293951726
42 40 5
0 0

0101101
*
Ed
 0.153719293951726 1 1 0
1  16 0 0 3.12144515225805
4 C0 1 0 17 0
6  31 1 0
6  32 17 0
0

0101000
+191 0 -189 0 *
Ve
0.153719293951726
42.6089637399097 36.9385325410793 5
0 0

0101101
*
Ed
 0.153719293951726 1 1 0
1  17 0 0 3.12144515225805
4 C0 1 0 18 0
6  33 1 0
6  34 18 0
0

0101000
+189 0 -187 0 *
Ve
0.153719293951722
44.3431457505076 34.3431457505076 5
0 0

0101101
*
Ed
 0.153719293951722 1 1 0
1  18 0 0 3.12144515225806
4 C0 1 0 19 0
6  35 1 0
6  36 19 0
0

0101000
+187 0 -185 0 *
Ve
0.153719293951728
46.9385325410793 32.6089637399097 5
0 0

0101101
*
Ed
 0.153719293951716 1 1 0
1  19 0 0 3.12144515225805
4 C0 1 0 20 0
6  37 1 0
6  38 20 0
0

0101000
+185 0 -183 0 *
Ve
0.153719293951728
50 32 5
0 0

0101101
*
Ed
 0.153719293951728 1 1 0
1  20 0 0 3.12144515225806
4 C0 1 0 21 0
6  39 1 0
6  40 21 0
0

0101000
+183 0 -181 0 *
Ve
0.153719293951728
53.0614674589207 32.6089637399097 5
0 0

0101101
*
Ed
 0.153719293951726 1 1 0
1  21 0 0 3.12144515225805
4 C0 1 0 22 0
6  41 1 0
6  42 22 0
0

0101000
+181 0 -179 0 *
Ve
0.153719293951728
55.6568542494924 34.3431457505076 5
0 0

0101101
*
Ed
 0.153719293951728 1 1 0
1  22 0 0 3.12144515225805
4 C0 1 0 23 0
6  43 1 0
6  44 23 0
0

0101000
+179 0 -177 0 *
Ve
0.153719293951728
57.3910362600903 36.9385325410793 5
0 0

0101101
*
Ed
 0.153719293951722 1 1 0
1  23 0 0 3.12144515225805
4 C0 1 0 24 0
6  45 1 0
6  46 24 0
0

0101000
+177 0 -175 0 *
Ed
 0.153719293951728 1 1 0
1  24 0 0 3.12144515225806
4 C0 1 0 25 0
6  47 1 0
6  48 25 0
0

0101000
+175 0 -204 0 *
Wi

0101100
-202 0 -200 0 -198 0 -196 0 -194 0 -192 0 -190 0 -188 0 -186 0 -184 0 
-182 0 -180 0 -178 0 -176 0 -174 0 -173 0 *
Ve
1.07180748769219
83 40 5
0 0

0101101
*
Ve
1.07180748769219
79 46.9282032302755 5
0 0

0101101
*
Ed
 1.07180748769219 1 1 0
1  25 0 0 8
4 C0 1 0 26 0
6  49 1 0
6  50 26 0
0

0101000
+171 0 -170 0 *
Ve
1.07180748769219
71 46.9282032302755 5
0 0

0101101
*
Ed
 1.07180748769219 1 1 0
1  26 0 0 8
4 C0 1 0 27 0
6  51 1 0
6  52 27 0
0

0101000
+170 0 -168 0 *
Ve
1.07180748769221
67 40 5
0 0

0101101
*
Ed
 1.07180748769219 1 1 0
1  27 0 0 8
4 C0 1 0 28 0
6  53 1 0
6  54 28 0
0

0101000
+168 0 -166 0 *
Ve
1.07180748769221
71 33.0717967697245 5
0 0

0101101
*
Ed
 1.07180748769221 1 1 0
1  28 0 0 8
4 C0 1 0 29 0
6  55 1 0
6  56 29 0
0

0101000
+166 0 -164 0 *
Ve
1.07180748769219
79 33.0717967697245 5
0 0

0101101
*
Ed
 1.07180748769219 1 1 0
1  29 0 0 8
4 C0 1 0 30 0
6  57 1 0
6  58 30 0
0

0101000
+164 0 -162 0 *
Ed
 1.07180748769219 1 1 0
1  30 0 0 8
4 C0 1 0 31 0
6  59 1 0
6  60 31 0
0

0101000
+162 0 -171 0 *
Wi

0101100
-169 0 -167 0 -165 0 -163 0 -161 0 -160 0 *
Fa
0  1e-07 1 0
2  1
0111000
+214 0 +205 0 +172 0 +159 0 *
Ve
1e-07
0 0 0
0 0

0101101
*
Ve
1e-07
100 0 0
0 0

0101101
*
Ed
 1e-07 1 1 0
1  31 0 0 100
4 C0 2 0 32 0
6  61 2 0
6  62 32 0
0

0101000
+157 0 -156 0 *
Ed
 1e-07 1 1 0
1  32 0 0 5
4 C0 2 0 3 0
6  63 2 0
6  64 3 0
0

0101000
+156 0 -221 0 *
Ed
 1e-07 1 1 0
1  33 0 0 5
4 C0 2 0 5 0
6  65 2 0
6  66 5 0
0

0101000
+157 0 -222 0 *
Wi

0101100
+155 0 +154 0 -220 0 -153 0 *
Fa
0  1e-07 2 0
2  2
0111000
+152 0 *
Ve
1e-07
100 80 0
0 0

0101101
*
Ve
1e-07
0 80 0
0 0

0101101
*
Ed
 1e-07 1 1 0
1  34 0 0 100
4 C0 32 0 4 0
6  67 32 0
6  68 4 0
0

0101000
+150 0 -149 0 *
Ed
 1e-07 1 1 0
1  35 0 0 80
4 C0 32 0 3 0
6  69 32 0
6  70 3 0
0

0101000
+156 0 -150 0 *
Ed
 1e-07 1 1 0
1  36 0 0 80
4 C0 32 0 5 0
6  71 32 0
6  72 5 0
0

0101000
+149 0 -157 0 *
Wi

0101100
-148 0 -147 0 -155 0 -146 0 *
Ve
1e-07
31 46 0
0 0

0101101
*
Ve
1e-07
19 46 0
0 0

0101101
*
Ed
 1e-07 1 1 0
1  37 0 0 12
4 C0 32 0 8 0
6  73 32 0
6  74 8 0
0

0101000
+144 0 -143 0 *
Ve
1e-07
31 34 0
0 0

0101101
*
Ed
 1e-07 1 1 0
1  38 0 0 12
4 C0 32 0 7 0
6  75 32 0
6  76 7 0
0

0101000
+141 0 -144 0 *
Ve
1e-07
19 34 0
0 0

0101101
*
Ed
 1e-07 1 1 0
1  39 0 0 12
4 C0 32 0 6 0
6  77 32 0
6  78 6 0
0

0101000
+139 0 -141 0 *
Ed
 1e-07 1 1 0
1  40 0 0 12
4 C0 32 0 9 0
6  79 32 0
6  80 9 0
0

0101000
+143 0 -139 0 *
Wi

0101100
+142 0 +140 0 +138 0 +137 0 *
Ve
0.153719293951728
58 40 0
0 0

0101101
*
Ve
0.153719293951726
57.3910362600903 43.0614674589207 0
0 0

0101101
*
Ed
 0.153719293951726 1 1 0
1  41 0 0 3.12144515225805
4 C0 32 0 10 0
6  81 32 0
6  82 10 0
0

0101000
+135 0 -134 0 *
Ve
0.153719293951728
57.3910362600903 36.9385325410793 0
0 0

0101101
*
Ed
 0.153719293951728 1 1 0
1  42 0 0 3.12144515225806
4 C0 32 0 25 0
6  83 32 0
6  84 25 0
0

0101000
+132 0 -135 0 *
Ve
0.153719293951728
55.6568542494924 34.3431457505076 0
0 0

0101101
*
Ed
 0.153719293951722 1 1 0
1  43 0 0 3.12144515225805
4 C0 32 0 24 0
6  85 32 0
6  86 24 0
0

0101000
+130 0 -132 0 *
Ve
0.153719293951728
53.0614674589207 32.6089637399097 0
0 0

0101101
*
Ed
 0.153719293951728 1 1 0
1  44 0 0 3.12144515225805
4 C0 32 0 23 0
6  87 32 0
6  88 23 0
0

0101000
+128 0 -130 0 *
Ve
0.153719293951728
50 32 0
0 0

0101101
*
Ed
 0.153719293951726 1 1 0
1  45 0 0 3.12144515225805
4 C0 32 0 22 0
6  89 32 0
6  90 22 0
0

0101000
+126 0 -128 0 *
Ve
0.153719293951728
46.9385325410793 32.6089637399097 0
0 0

0101101
*
Ed
 0.153719293951728 1 1 0
1  46 0 0 3.12144515225806
4 C0 32 0 21 0
6  91 32 0
6  92 21 0
0

0101000
+124 0 -126 0 *
Ve
0.153719293951722
44.3431457505076 34.3431457505076 0
0 0

0101101
*
Ed
 0.153719293951716 1 1 0
1  47 0 0 3.12144515225805
4 C0 32 0 20 0
6  93 32 0
6  94 20 0
0

0101000
+122 0 -124 0 *
Ve
0.153719293951726
42.6089637399097 36.9385325410793 0
0 0

0101101
*
Ed
 0.153719293951722 1 1 0
1  48 0 0 3.12144515225806
4 C0 32 0 19 0
6  95 32 0
6  96 19 0
0

0101000
+120 0 -122 0 *
Ve
0.153719293951726
42 40 0
0 0

0101101
*
Ed
 0.153719293951726 1 1 0
1  49 0 0 3.12144515225805
4 C0 32 0 18 0
6  97 32 0
6  98 18 0
0

0101000
+118 0 -120 0 *
Ve
0.153719293951726
42.6089637399097 43.0614674589207 0
0 0

0101101
*
Ed
 0.153719293951726 1 1 0
1  50 0 0 3.12144515225805
4 C0 32 0 17 0
6  99 32 0
6  100 17 0
0

0101000
+116 0 -118 0 *
Ve
0.153719293951722
44.3431457505076 45.6568542494924 0
0 0

0101101
*
Ed
 0.153719293951716 1 1 0
1  51 0 0 3.12144515225806
4 C0 32 0 16 0
6  101 32 0
6  102 16 0
0

0101000
+114 0 -116 0 *
Ve
0.153719293951726
46.9385325410793 47.3910362600903 0
0 0

0101101
*
Ed
 0.153719293951722 1 1 0
1  52 0 0 3.12144515225806
4 C0 32 0 15 0
6  103 32 0
6  104 15 0
0

0101000
+112 0 -114 0 *
Ve
0.153719293951726
50 48 0
0 0

0101101
*
Ed
 0.153719293951726 1 1 0
1  53 0 0 3.12144515225805
4 C0 32 0 14 0
6  105 32 0
6  106 14 0
0

0101000
+110 0 -112 0 *
Ve
0.153719293951722
53.0614674589207 47.3910362600903 0
0 0

0101101
*
Ed
 0.153719293951719 1 1 0
1  54 0 0 3.12144515225805
4 C0 32 0 13 0
6  107 32 0
6  108 13 0
0

0101000
+108 0 -110 0 *
Ve
0.153719293951722
55.6568542494924 45.6568542494924 0
0 0

0101101
*
Ed
 0.15371929395172 1 1 0
1  55 0 0 3.12144515225806
4 C0 32 0 12 0
6  109 32 0
6  110 12 0
0

0101000
+106 0 -108 0 *
Ed
 0.153719293951722 1 1 0
1  56 0 0 3.12144515225806
4 C0 32 0 11 0
6  111 32 0
6  112 11 0
0

0101000
+134 0 -106 0 *
Wi

0101100
+133 0 +131 0 +129 0 +127 0 +125 0 +123 0 +121 0 +119 0 +117 0 +115 0 
+113 0 +111 0 +109 0 +107 0 +105 0 +104 0 *
Ve
1.07180748769219
83 40 0
0 0

0101101
*
Ve
1.07180748769219
79 46.9282032302755 0
0 0

0101101
*
Ed
 1.07180748769219 1 1 0
1  57 0 0 8
4 C0 32 0 26 0
6  113 32 0
6  114 26 0
0

0101000
+102 0 -101 0 *
Ve
1.07180748769219
79 33.0717967697245 0
0 0

0101101
*
Ed
 1.07180748769219 1 1 0
1  58 0 0 8
4 C0 32 0 31 0
6  115 32 0
6  116 31 0
0

0101000
+99 0 -102 0 *
Ve
1.07180748769221
71 33.0717967697245 0
0 0

0101101
*
Ed
 1.07180748769219 1 1 0
1  59 0 0 8
4 C0 32 0 30 0
6  117 32 0
6  118 30 0
0

0101000
+97 0 -99 0 *
Ve
1.07180748769221
67 40 0
0 0

0101101
*
Ed
 1.07180748769221 1 1 0
1  60 0 0 8
4 C0 32 0 29 0
6  119 32 0
6  120 29 0
0

0101000
+95 0 -97 0 *
Ve
1.07180748769219
71 46.9282032302755 0
0 0

0101101
*
Ed
 1.07180748769219 1 1 0
1  61 0 0 8
4 C0 32 0 28 0
6  121 32 0
6  122 28 0
0

0101000
+93 0 -95 0 *
Ed
 1.07180748769219 1 1 0
1  62 0 0 8
4 C0 32 0 27 0
6  123 32 0
6  124 27 0
0

0101000
+101 0 -93 0 *
Wi

0101100
+100 0 +98 0 +96 0 +94 0 +92 0 +91 0 *
Fa
0  1e-07 32 0
2  32
0111000
+145 0 +136 0 +103 0 +90 0 *
Ed
 1e-07 1 1 0
1  63 0 0 5
4 C0 3 0 4 0
6  125 3 0
6  126 4 0
0

0101000
+150 0 -219 0 *
Wi

0101100
+147 0 +88 0 -218 0 -154 0 *
Fa
0  1e-07 3 0
2  3
0111000
+87 0 *
Ed
 1e-07 1 1 0
1  64 0 0 5
4 C0 4 0 5 0
6  127 4 0
6  128 5 0
0

0101000
+149 0 -217 0 *
Wi

0101100
+148 0 +85 0 -216 0 -88 0 *
Fa
0  1e-07 4 0
2  4
0111000
+84 0 *
Wi

0101100
+146 0 +153 0 -215 0 -85 0 *
Fa
0  1e-07 5 0
2  5
0111000
+82 0 *
Ed
 1e-07 1 1 0
1  65 0 0 5
4 C0 6 0 7 0
6  129 6 0
6  130 7 0
0

0101000
+141 0 -212 0 *
Ed
 1e-07 1 1 0
1  66 0 0 5
4 C0 6 0 9 0
6  131 6 0
6  132 9 0
0

0101000
+139 0 -213 0 *
Wi

0101100
+80 0 -211 0 -79 0 +138 0 *
Fa
0  1e-07 6 0
2  6
0111000
+78 0 *
Ed
 1e-07 1 1 0
1  67 0 0 5
4 C0 7 0 8 0
6  133 7 0
6  134 8 0
0

0101000
+144 0 -210 0 *
Wi

0101100
+76 0 -209 0 -80 0 +140 0 *
Fa
0  1e-07 7 0
2  7
0111000
+75 0 *
Ed
 1e-07 1 1 0
1  68 0 0 5
4 C0 8 0 9 0
6  135 8 0
6  136 9 0
0

0101000
+143 0 -208 0 *
Wi

0101100
+73 0 -207 0 -76 0 +142 0 *
Fa
0  1e-07 8 0
2  8
0111000
+72 0 *
Wi

0101100
+79 0 -206 0 -73 0 +137 0 *
Fa
0  1e-07 9 0
2  9
0111000
+70 0 *
Ed
 0.153719293951722 1 1 0
1  69 0 0 5
4 C0 10 0 11 0
6  137 10 0
6  138 11 0
0

0101000
+134 0 -203 0 *
Ed
 0.153719293951726 1 1 0
1  70 0 0 5
4 C0 10 0 25 0
6  139 10 0
6  140 25 0
0

0101000
+135 0 -204 0 *
Wi

0101100
+68 0 -202 0 -67 0 +133 0 *
Fa
0  1e-07 10 0
2  10
0111000
+66 0 *
Ed
 0.153719293951716 1 1 0
1  71 0 0 5
4 C0 11 0 12 0
6  141 11 0
6  142 12 0
0

0101000
+106 0 -201 0 *
Wi

0101100
+64 0 -200 0 -68 0 +104 0 *
Fa
0  1e-07 11 0
2  11
0111000
+63 0 *
Ed
 0.153719293951722 1 1 0
1  72 0 0 5
4 C0 12 0 13 0
6  143 12 0
6  144 13 0
0

0101000
+108 0 -199 0 *
Wi

0101100
+61 0 -198 0 -64 0 +105 0 *
Fa
0  1e-07 12 0
2  12
0111000
+60 0 *
Ed
 0.153719293951726 1 1 0
1  73 0 0 5
4 C0 13 0 14 0
6  145 13 0
6  146 14 0
0

0101000
+110 0 -197 0 *
Wi

0101100
+58 0 -196 0 -61 0 +107 0 *
Fa
0  1e-07 13 0
2  13
0111000
+57 0 *
Ed
 0.153719293951722 1 1 0
1  74 0 0 5
4 C0 14 0 15 0
6  147 14 0
6  148 15 0
0

0101000
+112 0 -195 0 *
Wi

0101100
+55 0 -194 0 -58 0 +109 0 *
Fa
0  1e-07 14 0
2  14
0111000
+54 0 *
Ed
 0.153719293951716 1 1 0
1  75 0 0 5
4 C0 15 0 16 0
6  149 15 0
6  150 16 0
0

0101000
+114 0 -193 0 *
Wi

0101100
+52 0 -192 0 -55 0 +111 0 *
Fa
0  1e-07 15 0
2  15
0111000
+51 0 *
Ed
 0.153719293951722 1 1 0
1  76 0 0 5
4 C0 16 0 17 0
6  151 16 0
6  152 17 0
0

0101000
+116 0 -191 0 *
Wi

0101100
+49 0 -190 0 -52 0 +113 0 *
Fa
0  1e-07 16 0
2  16
0111000
+48 0 *
Ed
 0.153719293951726 1 1 0
1  77 0 0 5
4 C0 17 0 18 0
6  153 17 0
6  154 18 0
0

0101000
+118 0 -189 0 *
Wi

0101100
+46 0 -188 0 -49 0 +115 0 *
Fa
0  1e-07 17 0
2  17
0111000
+45 0 *
Ed
 0.153719293951722 1 1 0
1  78 0 0 5
4 C0 18 0 19 0
6  155 18 0
6  156 19 0
0

0101000
+120 0 -187 0 *
Wi

0101100
+43 0 -186 0 -46 0 +117 0 *
Fa
0  1e-07 18 0
2  18
0111000
+42 0 *
Ed
 0.153719293951722 1 1 0
1  79 0 0 5
4 C0 19 0 20 0
6  157 19 0
6  158 20 0
0

0101000
+122 0 -185 0 *
Wi

0101100
+40 0 -184 0 -43 0 +119 0 *
Fa
0  1e-07 19 0
2  19
0111000
+39 0 *
Ed
 0.153719293951726 1 1 0
1  80 0 0 5
4 C0 20 0 21 0
6  159 20 0
6  160 21 0
0

0101000
+124 0 -183 0 *
Wi

0101100
+37 0 -182 0 -40 0 +121 0 *
Fa
0  1e-07 20 0
2  20
0111000
+36 0 *
Ed
 0.153719293951726 1 1 0
1  81 0 0 5
4 C0 21 0 22 0
6  161 21 0
6  162 22 0
0

0101000
+126 0 -181 0 *
Wi

0101100
+34 0 -180 0 -37 0 +123 0 *
Fa
0  1e-07 21 0
2  21
0111000
+33 0 *
Ed
 0.153719293951722 1 1 0
1  82 0 0 5
4 C0 22 0 23 0
6  163 22 0
6  164 23 0
0

0101000
+128 0 -179 0 *
Wi

0101100
+31 0 -178 0 -34 0 +125 0 *
Fa
0  1e-07 22 0
2  22
0111000
+30 0 *
Ed
 0.153719293951728 1 1 0
1  83 0 0 5
4 C0 23 0 24 0
6  165 23 0
6  166 24 0
0

0101000
+130 0 -177 0 *
Wi

0101100
+28 0 -176 0 -31 0 +127 0 *
Fa
0  1e-07 23 0
2  23
0111000
+27 0 *
Ed
 0.153719293951726 1 1 0
1  84 0 0 5
4 C0 24 0 25 0
6  167 24 0
6  168 25 0
0

0101000
+132 0 -175 0 *
Wi

0101100
+25 0 -174 0 -28 0 +129 0 *
Fa
0  1e-07 24 0
2  24
0111000
+24 0 *
Wi

0101100
+67 0 -173 0 -25 0 +131 0 *
Fa
0  1e-07 25 0
2  25
0111000
+22 0 *
Ed
 1.07180748769219 1 1 0
1  85 0 0 5
4 C0 26 0 27 0
6  169 26 0
6  170 27 0
0

0101000
+101 0 -170 0 *
Ed
 1.07180748769219 1 1 0
1  86 0 0 5
4 C0 26 0 31 0
6  171 26 0
6  172 31 0
0

0101000
+102 0 -171 0 *
Wi

0101100
+20 0 -169 0 -19 0 +100 0 *
Fa
0  1e-07 26 0
2  26
0111000
+18 0 *
Ed
 1.07180748769219 1 1 0
1  87 0 0 5
4 C0 27 0 28 0
6  173 27 0
6  174 28 0
0

0101000
+93 0 -168 0 *
Wi

0101100
+16 0 -167 0 -20 0 +91 0 *
Fa
0  1e-07 27 0
2  27
0111000
+15 0 *
Ed
 1.07180748769219 1 1 0
1  88 0 0 5
4 C0 28 0 29 0
6  175 28 0
6  176 29 0
0

0101000
+95 0 -166 0 *
Wi

0101100
+13 0 -165 0 -16 0 +92 0 *
Fa
0  1e-07 28 0
2  28
0111000
+12 0 *
Ed
 1.07180748769219 1 1 0
1  89 0 0 5
4 C0 29 0 30 0
6  177 29 0
6  178 30 0
0

0101000
+97 0 -164 0 *
Wi

0101100
+10 0 -163 0 -13 0 +94 0 *
Fa
0  1e-07 29 0
2  29
0111000
+9 0 *
Ed
 1.07180748769219 1 1 0
1  90 0 0 5
4 C0 30 0 31 0
6  179 30 0
6  180 31 0
0

0101000
+99 0 -162 0 *
Wi

0101100
+7 0 -161 0 -10 0 +96 0 *
Fa
0  1e-07 30 0
2  30
0111000
+6 0 *
Wi

0101100
+19 0 -160 0 -7 0 +98 0 *
Fa
0  1e-07 31 0
2  31
0111000
+4 0 *
Sh

0101100
+158 0 +151 0 +89 0 +86 0 +83 0 +81 0 -77 0 -74 0 -71 0 -69 0 
-65 0 -62 0 -59 0 -56 0 -53 0 -50 0 -47 0 -44 0 -41 0 -38 0 
-35 0 -32 0 -29 0 -26 0 -23 0 -21 0 -17 0 -14 0 -11 0 -8 0 
-5 0 -3 0 *
So

0100000
+2 0 *

+1 0 