DBRep_DrawableShape

CASCADE Topology V1, (c) Matra-Datavision
Locations 0
Curve2ds 32
1 6.2831853071800001 0 0 1 
1 0 0 0 1 
1 0 0 1 0 
1 0 1 1 0 
7 0 0  10 20 3  0 0.89157786690200003  0.30961473055900002 0.89157786690200003  0.62392792044800005 0.89157786690100005  0.94003963448100003 0.89157786690200003  1.255847197981 0.89157786690100005  1.570654404398 0.89157786690200003  1.884959666761 0.89157786690100005  2.199113516778 0.89157786690200003  2.5132743492520002 0.89157786690100005  2.8274333882309999 0.89157786690200003  3.4557519189489998 0.89157786690200003  3.7699109579269998 0.89157786690200003  4.0840717904029997 0.89157786690200003  4.3982256404170004 0.89157786690100005  4.7125309027839997 0.89157786690200003  5.0273381091960001 0.89157786690100005  5.3431456727009996 0.89157786690200003  5.6592573867310003 0.89157786690200003  5.9735705766210003 0.89157786690200003  6.2831853071800001 0.89157786690200003 
 2.2367199664250001e-15 11 56.548667764615999 9 113.09733552922999 11
1 0 0 0 1 
7 0 0  1 2 2  0 0  113.09733552922999 0 
 0 2 113.09733552922999 2
7 0 0  1 2 2  0 113.09733552922999  113.09733552922999 113.09733552922999 
 0 2 113.09733552922999 2
1 113.09733552922999 0 0 1 
1 0 0 1 0 
1 0 1 1 0 
1 6.2831853071795862 0 0 1 
1 4.1389114358025836e-13 0 0 1 
1 0 0 0 1 
1 0 0 1 0 
1 6.2831853071795862 0 0 1 
1 4.1389114358025836e-13 0 0 1 
7 0 0  1 2 2  0 0  81.681409049809005 0 
 0 2 81.681409049809005 2
7 0 0  1 2 2  0 81.681409049809005  81.681409049809005 81.681409049809005 
 0 2 81.681409049809005 2
1 81.681409049809005 0 0 1 
7 0 0  10 74 9  6.2831853074200001 0.876088312935  6.2046654460589998 0.876088312935  6.1261027243959996 0.87608831289800004  6.0475552952299996 0.87608831300900003  5.9690038482009999 0.87608831267200005  5.8904925595800002 0.87608831323000003  5.8119592034079997 0.87608831292  5.7334256496979998 0.87608831296800005  5.6548817269229996 0.8760883129  5.5763354300890002 0.87608831289900002  5.4192425381830001 0.87608831291800005  5.3406960138360002 0.876088312925  5.2621528806239999 0.87608831304099999  5.1836152130729998 0.87608831285599997  5.1050836782840001 0.87608831305299995  5.0265570177459997 0.87608831316199998  4.9480251305790004 0.87608831284099997  4.8694784009819996 0.87608831292900002  4.7909317679510002 0.876088312875  4.6338386510099996 0.87608831290800004  4.5552909955079999 0.87608831296800005  4.4767569854879996 0.87608831291800005  4.3982028726509999 0.87608831284800004  4.3196925630600003 0.87608831322900005  4.2411590334499998 0.87608831296699996  4.1626265970449996 0.87608831296599998  4.0840834978859997 0.87608831290199995  4.0055380563499998 0.87608831289800004  3.8484468184909999 0.87608831291599998  3.7699011445399999 0.87608831292300005  3.6913585599709999 0.87608831304099999  3.6128222376779999 0.87608831283499999  3.534290796799 0.87608831304599999  3.4557641350439998 0.87608831311000002  3.377233184724 0.87608831273599996  3.298686369261 0.87608831296699996  3.220140482588 0.87608831292800005  3.0630481942849999 0.87608831296300005  2.9845007827650001 0.87608831300099999  2.9059663026579998 0.87608831281900001  2.8274119727980001 0.87608831279900001  2.7489000394979999 0.876088313211  2.6703661105940002 0.87608831295800005  2.5918326855289999 0.87608831296199996  2.5132887356209999 0.8760883129  2.43474251016 0.87608831289800004  2.2776500953749999 0.87608831291800005  2.1991040387299998 0.87608831292599998  2.1205612761850001 0.87608831304199997  2.0420253268009998 0.87608831284699995  1.9634943053759999 0.87608831305900003  1.884967829706 0.876088313171  1.8064369305879999 0.87608831282699995  1.7278900860990001 0.87608831293300005  1.649344213757 0.876088312875  1.4922519316480001 0.87608831291  1.4137044968550001 0.87608831296599998  1.335170115932 0.87608831291199996  1.2566155438740001 0.87608831285699995  1.178103948553 0.876088313226  1.0995697641969999 0.87608831296699996  1.0210364152810001 0.876088312965  0.94249247235599998 0.87608831290199995  0.86394624656399999 0.87608831289800004  0.70685382912200001 0.87608831291699996  0.62830777450599995 0.87608831292300005  0.54976498919500005 0.87608831304599999  0.47122912696199998 0.87608831282800004  0.39269794461700003 0.87608831305500001  0.31417104274699997 0.87608831310599999  0.23563738956399999 0.876088312699  0.15708041927399999 0.87608831298300005  0.078519861115520007 0.876088312935  -2.3990398556610001e-10 0.876088312935 
 -7.7730308738010001e-16 11 10.210176131226 9 20.420352262451999 9 30.630528393677999 9 40.840704524905 9 51.050880656131 9 61.261056787356999 9 71.471232918582999 9 81.681409049809005 11
7 0 0  1 2 2  6.2831853071800001 1.0364048603818563e-08  6.2831853071800001 0.87608831293561229 
 0 2 0.87608831961155664 2
7 0 0  1 2 2  0 1.0364048603818563e-08  0 0.87608831293561229 
 0 2 0.87608831961155664 2
1 0 0 1 0 
1 0 1 1 0 
1 0 0 1 0 
1 0 1 1 0 
1 6.2831853071795862 0 0 1 
1 4.1389114358025836e-13 0 0 1 
1 0 0 1 0 
1 6.2831853071795862 0 0 1 
1 4.1389114358025836e-13 0 0 1 
Curves 18
7 0 0  3 4 2  15 0 75  15 0 93.884517468021002  18 0 93.705160843992999  18 0 100 
 0 4 1 4
2 0 0 75 0 0 1 1 0 -0 -0 1 0 15
7 1 1  10 19 3  17.901849016042998 0 98.148270499950996  1 17.901849016042 5.5426761596049996 98.148270499950996  1 15.994804783754001 11.169390860665001 98.148270499950996  1 12.085601462411001 16.090806544317001 98.148270499950996  1 6.4811728105749999 19.443481394147 98.148270499950002  1 -0.004631900833011 20.585804625459001 98.148270499950996  1.0000000000010001 -6.466167511079 19.416036336737999 98.148270499950002  1 -12.01337010672 16.100089584894999 98.148270499950996  1 -15.93851421449 11.248232701208 98.148270499950996  1 -17.90184901604 5.6240317354479998 98.148270499950996  1 -17.90184901604 -5.6240317354479998 98.148270499950996  1 -15.93851421449 -11.248232701199999 98.148270499950996  1 -12.01337010672 -16.10008958489 98.148270499950996  1 -6.4661675110739996 -19.416036336729999 98.148270499950002  1 -0.0046319008349679997 -20.585804625449999 98.148270499950996  1 6.4811728105739999 -19.443481394140001 98.148270499950002  1 12.085601462413999 -16.090806544309999 98.148270499950996  1 15.994804783753001 -11.16939086066 98.148270499950996  1 17.901849016042998 -5.5426761596049996 98.148270499950996  1
 2.2367199664250001e-15 10 56.548667764615999 9 113.09733552922999 10
7 1 0  2 3 2  17.901849016042998 0 98.148270499950996  1 18.108740175419001 -1.981054209566e-15 100  0.66669419525399998 16.245488691270999 0 100  1
 0 3 113.09733552922999 3
7 1 1  10 19 3  16.245488691270999 0 100  1 16.245488691270999 5.029842603943 100  1 14.514892847141001 10.135948122046999 100  1 10.967386760377 14.602012089078 100  1 5.8815052850690002 17.644482244517 100  1 -0.0042033363436400004 18.68111254563 100  1.0000000000010001 -5.8678883439899998 17.619576528387999 100  1 -10.90183857756 14.610436220607999 100  1 -14.463810536840001 10.207495157652 100  1 -16.245488691270001 5.1036707926479998 100  1 -16.245488691270001 -5.1036707926479998 100  1 -14.463810536840001 -10.207495157649999 100  1 -10.90183857756 -14.61043622061 100  1 -5.8678883439860003 -17.619576528380001 100  1 -0.0042033363446369997 -18.68111254563 100  1 5.881505285067 -17.644482244510002 100  1 10.96738676038 -14.60201208908 100  1 14.51489284714 -10.13594812204 100  1 16.245488691270999 -5.029842603943 100  1
 2.2367199664250001e-15 10 56.548667764615999 9 113.09733552922999 10
2 0 0 25 0 0 1 1 0 -0 -0 1 0 30
7 0 0  3 4 2  30 0 25  30 0 64.151149408414994  15 0 61.949616863861998  15 0 75 
 0 4 1 4
7 1 1  13 49 5  14.5669350965 5.6329034314700002e-08 100  1 14.566935089695001 -1.7596833445190001 100  1 14.336735530817 -3.5207339029860001 100  1 13.874816303378999 -5.2482074735799999 100  0.99999999999900002 13.192220156325 -6.9074090536539998 99.999999999997996  1.000000000002 12.282164664647 -8.4753092596740007 100  0.99999999999599998 11.201007440193999 -9.8997489562270005 99.999999999997002  1.000000000005 9.8953554480769998 -11.199586361530001 100  0.999999999995 8.4793417489880003 -12.28135814993 99.999999999997002  1.0000000000039999 6.9058804350529996 -13.192957560130001 100  0.99999999999800004 5.2484836304789999 -13.874647802109999 99.999999999999005  1.0000000000010001 3.5205654054159998 -14.336628767220001 100  1 1.760244667836 -14.56694829105 100  1 -1.7604630259009999 -14.56692189913 100  1 -3.5207166554290001 -14.336548667860001 100  1 -5.2478923377699997 -13.874773419649999 100  1 -6.9068258163719998 -13.19275581069 100  0.99999999999900002 -8.4768862603410007 -12.28166010688 100  1.0000000000010001 -9.8983865508460003 -11.200772684169999 100  0.99999999999800004 -11.20018533795 -9.8960583470210004 99.999999999999005  1.000000000002 -12.28123227955 -8.4787390209540003 100  0.99999999999800004 -13.192886822229999 -6.9062516282799997 100  1.0000000000010001 -13.874660449989999 -5.2484229593310001 100  0.99999999999900002 -14.33660635162 -3.5206396116860001 100  1 -14.56693907453 -1.7603100527310001 100  1 -14.56693111661 1.7603758685069999 100  1 -14.33657262456 3.520612815157 100  0.99999999999900002 -13.874790393810001 5.2478347584999998 100  1.000000000003 -13.19287191557 6.9067724162599999 99.999999999997996  0.99999999999400002 -12.281434419249999 8.4769735187799995 100  1.0000000000089999 -11.2012114235 9.898118370632 99.999999999996007  0.99999999999 -9.8955947573480003 11.20057374324 100  1.00000000001 -8.4789870796480002 12.280969099084 99.999999999997002  0.99999999999199995 -6.9061461459529996 13.193005024131001 100  1.000000000005 -5.2484504171740003 13.874627222452 99.999999999999005  0.99999999999800004 -3.5206370855459999 14.336610672008 100  1.0000000000010001 -1.7603109437310001 14.566938967128999 100  1 1.760374985298 14.566931223614001 100  1 3.520611451128 14.336572155282999 100  1 5.2478363980629998 13.874796977701999 100  1 6.9067680251099999 13.192843510565 99.999999999999005  1 8.4769626072069997 12.281519394056 100  1 9.8981785238960001 11.201043870102 99.999999999997002  1.0000000000010001 11.200426979048 9.8958173726329992 100  0.99999999999900002 12.281171556525999 8.4788343391010006 99.999999999997002  1.0000000000010001 13.192865952654 6.9060945791270001 100  0.99999999999900002 13.874580680069 5.2486557975399997 99.999999999999005  1.0000000000010001 14.336773912521 3.5206699043279999 100  1 14.566935089696001 1.759683344383 100  1
 -7.7730308738010001e-16 13 20.420352262451999 12 40.840704524905 12 61.261056787356999 12 81.681409049809005 13
2 0 0 0 0 0 1 1 0 -0 -0 1 0 20
7 0 0  3 4 2  20 0 0  26.731456008917998 0 0  30 0 18.268543991082002  30 0 25 
 0 4 1 4
7 1 0  2 3 2  14.5669350965 5.6329034314700002e-08 100  1 13.100228890026999 -3.6025357644939999e-09 100  0.75070468430699999 12.913788463005 1.937810635554e-12 98.545191743467001  1
 0 3 81.681409049809005 3
7 1 1  13 49 5  12.913788463005 1.937810635554e-12 98.545191743467001  1 12.913788463378999 -1.5599828796070001 98.545191743467001  1 12.709604368309 -3.1212355067140001 98.545191742236  1 12.301047999610001 -4.6521388285579999 98.545191754471006  0.99999999999900002 11.691896861344 -6.1255291297449999 98.545191707154004  1.000000000002 10.895972005942999 -7.5079862791369996 98.545191817982996  0.99999999999599998 9.9176897344149992 -8.7863417085319995 98.545191628488993  1.000000000005 8.7844562307080007 -9.9169680688039996 98.545191871388994  0.999999999995 7.5101784734030002 -10.89556055714 98.545191652854001  1.0000000000039999 6.1244138237729997 -11.69238229946 98.545191782822997  0.99999999999800004 4.6523342223780002 -12.300989738289999 98.545191732310997  1.0000000000010001 3.1209791425610001 -12.70950838613 98.545191744942997  1 1.560464462156 -12.91379434728 98.545191743710006  1 -1.560561855477 -12.91378257825 98.545191744226003  1 -3.1211012982850002 -12.709451870240001 98.545191744508003  1 -4.6518829938659998 -12.30115751568 98.545191741191005  1 -6.126100712955 -11.6919715087 98.545191730892  0.99999999999900002 -7.5076664558150004 -10.895511227749999 98.545191793591002  1.0000000000010001 -8.7863327776079991 -9.9183135377710006 98.545191644461994  0.99999999999800004 -9.9171899066510001 -8.7838705522650002 98.545191864580005  1.000000000002 -10.89531024399 -7.5105567066359997 98.545191655588994  0.99999999999800004 -11.69247719867 -6.1243073052270001 98.545191779793001  1.0000000000010001 -12.30093770305 -4.6524167190260002 98.545191735266002  0.99999999999900002 -12.70949884421 -3.1210204656179998 98.545191744837993  1 -12.91378583375 -1.5605266908969999 98.545191743307001  1 -12.91379109224 1.560483175383 98.545191743841997  1 -12.7094724496 3.1210210647859999 98.545191744269999  0.99999999999900002 -12.301175934950001 4.651827806949 98.545191744519002  1.000000000003 -11.69204135589 6.126042092964 98.545191727735002  0.99999999999400002 -10.895426959870001 7.507742509311 98.545191794253  1.0000000000089999 -9.9184698808759997 8.7861662666240008 98.545191645513  0.99999999999 -8.7837449070570006 9.9173906513450003 98.545191864212995  1.00000000001 -7.5105704671820002 10.895208297286 98.545191653615007  0.99999999999199995 -6.1243000909949998 11.692516344917999 98.545191783796994  1.000000000005 -4.6524186023279999 12.300927468835001 98.545191731775006  0.99999999999800004 -3.1210211911500001 12.709499936316 98.545191745012005  1.0000000000010001 -1.5605274791049999 12.913785738312001 98.545191743711996  1 1.5604823865340001 12.913791187375001 98.545191744247006  1 3.1210208267650001 12.709471919991 98.545191744440999  1 4.651822579069 12.301181603311001 98.545191741048995  1 6.1260607182799998 11.692021643854 98.545191731713999  1 7.5076871929409998 10.895473927259999 98.545191792124996  1 8.7862746518979993 9.9184026760609996 98.545191645551  1.0000000000010001 9.9172360378909996 8.7837917372609997 98.545191865177003  0.99999999999900002 10.895347603792001 7.5106138329289998 98.545191653089006  1.0000000000010001 11.692478673426001 6.1241496224010001 98.545191782922004  0.99999999999900002 12.300825000459 4.6525535087390004 98.545191733311  1.0000000000010001 12.709641818496999 3.121174556473 98.545191745121997  1 12.913788463378999 1.5599828795199999 98.545191743467001  1
 -7.7730308738010001e-16 13 20.420352262451999 12 40.840704524905 12 61.261056787356999 12 81.681409049809005 13
7 0 0  10 128 15  10.000000000002 3.8330204446270002e-13 75.000000603630994  10.000000000005 3.830125752671e-13 75.000020200508999  10.000000000009001 3.8258136475239998e-13 75.000039853467996  10.000000000015 3.8200586449720001e-13 75.000059565007007  10.000000000021 3.8129516333799998e-13 75.00007933533  10.000000000029999 3.8047442908220001e-13 75.000099161470999  10.00000000004 3.795902465838e-13 75.000119036249004  10.000000000052999 3.7871694466099998e-13 75.000138947029996  10.000000000068001 3.7796400433709998e-13 75.000158874283997  10.000000000086001 3.77484640886e-13 75.000178789925002  10.000000000247001 3.7749219473720002e-13 75.000327177293002  10.000000000486001 3.7773545324500002e-13 75.000455698587999  10.000000000827001 3.7815624837110001e-13 75.000584219276007  10.000000001264 3.7869540079890002e-13 75.000712739370996  10.000000001807001 3.7929373121219998e-13 75.000841258855004  10.000000002444001 3.7989206029439998e-13 75.000969777745993  10.000000003186001 3.804312087295e-13 75.001098296031003  10.000000004025001 3.8085199720079999e-13 75.001226813716002  10.000000004965001 3.8109524639220001e-13 75.001355330799996  10.000000072588 3.8151973506600002e-13 75.009708902141995  10.000000549246 3.8198936430320002e-13 75.017931493912997  10.000001435857 3.8249787253839998e-13 75.026151623236998  10.000002732279 3.8303246761179998e-13 75.034369290702998  10.000004438404 3.835803573629e-13 75.042584496985  10.000006554078 3.8412874963199998e-13 75.050797242651996  10.000009079195999 3.8466485225869999e-13 75.059007528373002  10.000012013612 3.8517587308300002e-13 75.067215354745002  10.000015357206999 3.8564901994469999e-13 75.075420722402001  10.000079152116999 3.9283119250910002e-13 75.214870184999  10.000243906938 3.9981333520810002e-13 75.345487467835  10.000512849859 4.0698999303889999e-13 75.475478034798996  10.000885456411 4.143332302585e-13 75.604844439993002  10.001361202149999 4.2181511112609998e-13 75.733589237922004  10.0019395626 4.2940769989799998e-13 75.861714982535005  10.002620013315999 4.3708306083339999e-13 75.989224228382  10.003402029831999 4.4481325818909999e-13 76.116119529501006  10.004285087692001 4.5257035622360001e-13 76.242403440269001  10.007235811923 4.7583854513629997e-13 76.619428664150007  10.009604983494 4.9144277289010001e-13 76.868343521913005  10.012372047781 5.0722365347350004e-13 77.114843469221995  10.015532875401 5.2326573790330004e-13 77.358948887034003  10.019083337001 5.3965357719809997e-13 77.600680156471995  10.023019303185 5.5647172237380004e-13 77.840057658410004  10.027336644605001 5.7380472444939997e-13 78.077101774005001  10.03203123187 5.9173713444099999e-13 78.311832884165995  10.03709893562 6.103535033668e-13 78.544271369968996  10.064282389907 7.0727789775260005e-13 79.695102582160004  10.091934753955 7.9397743041060004e-13 80.579412055671995  10.125229401771 8.8627170411690001e-13 81.428662953054001  10.163908564125 9.8262722883430004e-13 82.244151198066007  10.207718493245 1.0828986969209999e-12 83.027165770981  10.256407936517 1.1876853794569999e-12 83.778982760150996  10.309726610369999 1.297687522576e-12 84.500859415372005  10.367423673958999 1.4130627437899999e-12 85.194028199255001  10.429246203027001 1.532782428326e-12 85.859690840377993  10.626320584871999 1.8963995196900001e-12 87.777655474746993  10.773168701066 2.158361435638e-12 88.950922313749004  10.9334433582 2.3774373171380002e-12 90.028130365023003  11.104882265615 2.6656440808859998e-12 91.017827248266997  11.285085740929 2.9381393644839998e-12 91.927710079928005  11.471117291251 3.1224103954140001e-12 92.764001828822998  11.658918471237 3.2846172170309999e-12 93.530946382718  11.843016936292999 3.4690463519950001e-12 94.230958895951005  12.017185587086001 3.5059343281420002e-12 94.865842866628  12.336593771438 3.4985133440579999e-12 96.012877665721007  12.481831200975 3.4103266933280001e-12 96.525019671579997  12.607910030675001 3.4490362632659998e-12 96.979536395094001  12.711983394541001 2.6258075614139998e-12 97.381823106716993  12.793009023311001 3.4052300387610001e-12 97.741980286935004  12.857074770772 1.697234271725e-12 98.074742158614995  12.910941341760999 2.5086014105959999e-12 98.408556148068996  12.953641223501 1.537702071502e-12 98.767146990361994  12.983062210461 1.379286768225e-12 99.171168179240993  12.996100159052 1.0642614525009999e-12 99.666157931441006  12.996800220452 1.044662780138e-12 99.695516877955001  12.997432426194999 1.024293138008e-12 99.725121535811994  12.997995797381 1.003449327782e-12 99.754975714194998  12.998489355097 9.8242815113139994e-13 99.785083222083003  12.998912120449001 9.6152640972829992e-13 99.815447868744002  12.999263114524 9.4104090524220009e-13 99.846073463124995  12.999541358423 9.2126843934609999e-13 99.876963814459003  12.999745873239 9.0250581371009997e-13 99.908122731771996  12.999891905923 8.8286783204299995e-13 99.943482935766994  12.999906963456 8.8069503152160002e-13 99.947416098919007  12.999920850661001 8.7852974831240004e-13 99.951353520698007  12.999933565517001 8.7637030228419999e-13 99.955295207985003  12.999945106029999 8.742150133091e-13 99.959241167952996  12.999955470167 8.7206220125449996e-13 99.963191407349996  12.999964655938999 8.6991018599309996e-13 99.967145933403998  12.999972661317001 8.6775728739289998e-13 99.971104752914002  12.999979484301999 8.6560182532509996e-13 99.975067872983999  12.999987942162999 8.6236226682629997e-13 99.981019014325994  12.999990465349001 8.6178647333709998e-13 99.983003804988996  12.999992692169 8.6158887406120001e-13 99.984989673322005  12.999994622394 8.6164360387030004e-13 99.986976620367997  12.999996255734001 8.6182479763220004e-13 99.988964646699998  12.99999759198 8.6200659021990004e-13 99.990953753536999  12.999998630839 8.6206311650110003e-13 99.992943941410005  12.999999372087 8.618685113478e-13 99.994935211428  12.999999815454 8.6129690962920002e-13 99.996927564317005  12.999999965234 8.6018886923419999e-13 99.998983295894007  12.999999969481999 8.5969415758680003e-13 99.999045591850006  12.999999973437999 8.5885359346410002e-13 99.999107888859001  12.999999977104 8.5778245905680003e-13 99.999170186935999  12.999999980477 8.5659603655490005e-13 99.999232486062994  12.999999983561001 8.5540960814949998e-13 99.999294786250005  12.999999986352 8.5433845603060003e-13 99.999357087500996  12.999999988853 8.5349786238890004e-13 99.999419389802  12.999999991061999 8.5300310941479997e-13 99.999481693169002  12.999999993938999 8.5295266424069996e-13 99.999575149799995  12.999999994827 8.5320732581050001e-13 99.999606302285997  12.999999995636999 8.536655947923e-13 99.999637455000993  12.999999996383 8.5425960197179997e-13 99.999668608045994  12.999999997045 8.5492147813230003e-13 99.999699761271003  12.999999997645 8.5558335405980001e-13 99.999730914843994  12.999999998164 8.5617736053790001e-13 99.999762068617997  12.999999998614999 8.5663562835199996e-13 99.999793222695004  12.999999998991999 8.5689028828640002e-13 99.999824377018001  12.999999999436 8.5686567290189999e-13 99.999869978196003  12.999999999563 8.8368585056570003e-13 99.999883231821997  12.999999999669001 8.385869517891e-13 99.999900938701003  12.999999999766001 8.3907487949920001e-13 99.999913508169996  12.999999999846001 8.7306763400119997e-13 99.999925452023007  12.999999999904 8.7818795339410002e-13 99.999942137887004  12.999999999950999 8.5656398533650004e-13 99.999959136822  12.999999999987001 8.5458308668760004e-13 99.999970559963998  12.999999999998 8.5611441105940003e-13 99.999984000431994  13 8.5678650778970001e-13 100.00000091206 
 0 11 3.4108635719800001e-06 9 2.5477823509899999e-05 9 0.0014377632595370001 9 0.02403433023597 9 0.069227464188840002 9 0.25 9 0.61154507162299998 9 0.97309014324599996 9 0.99568671022300004 9 0.99851128109499998 9 0.99992356653100001 9 0.99996770045100003 9 0.99998976741099999 9 1 11
7 0 1  13 13 2  10 -6.0378575176640002e-15 75  10 4.8332194670610003 74.999999999994003  7.469318318339 9.6664408668610005 75.000000000027001  2.4081056184139999 13.054125992648 74.999999999927994  -4.2762117998270002 13.550915944609001 75.000000000138002  -10.76421242572 10.344686757424 74.999999999805993  -14.836999796180001 3.894476724295 75.000000000200998  -14.836999796180001 -3.8944767242970002 74.999999999842998  -10.76421242572 -10.344686757410001 75.000000000092001  -4.2762117998290003 -13.550915944610001 74.999999999961005  2.408105618415 -13.05412599264 75.000000000011994  7.469318318339 -9.6664408668640007 74.999999999997996  10.000000000001 -4.8332194670600002 75 
 0 13 6.2831853071800001 13
7 0 1  13 13 2  25 3.4756409389019999e-15 25  25 12.083048667650999 24.999999999997002  18.673295795849999 24.166102167158002 25.000000000010999  6.0202640460310004 32.635314981607003 24.999999999970001  -10.690529499549999 33.877289861545997 25.000000000058002  -26.910531064320001 25.861716893526999 24.999999999916  -37.092499490430001 9.7361918107710004 25.000000000094001  -37.092499490469997 -9.7361918107700003 24.999999999918  -26.910531064290002 -25.861716893520001 25.000000000058002  -10.690529499569999 -33.87728986154 24.999999999968001  6.0202640460390002 -32.635314981599997 25.000000000014001  18.673295795847 -24.166102167150001 24.999999999995001  25.000000000000998 -12.083048667650001 25.000000000000998 
 0 13 6.2831853071800001 13
7 0 0  10 29 4  25 -6.1232339957370004e-15 25  25 -6.1232339957370004e-15 30.681107154218001  24.758144302759 -6.06399643464e-15 35.649313320848002  24.309183365393 -5.9540327196640002e-15 39.961235218094998  23.688458679842 -5.801999019799e-15 43.673814355836001  22.934366064131002 -5.6172995981839997e-15 46.847125773179002  22.081833448143001 -5.4084893303130001e-15 49.543274478427001  21.173043488964002 -5.1858999873939997e-15 51.833940669476  20.229667660615 -4.9548395496770001e-15 53.807342622278  19.259326138982999 -4.7171744219679998e-15 55.545580718240998  17.767884589371999 -4.3518765979989997e-15 57.921868063932997  17.264742810594001 -4.2286424042189997e-15 58.675448948501  16.756012816264001 -4.1040394923819998e-15 59.400620667250998  16.241704798006001 -3.9780703587150003e-15 60.107390271522  15.722004332371 -3.8507804563640002e-15 60.805611233859999  15.197460713792999 -3.7223043236620002e-15 61.505195852874003  14.66943193286 -3.5929745723780003e-15 62.216500860163002  14.140961081395 -3.4635365450389998e-15 62.950546641702999  13.617793861638001 -3.3353975328209999e-15 63.718485004150999  12.599769683513999 -3.086053522582e-15 65.340484855713996  12.104913839382 -2.9648487974710002e-15 66.194548877971002  11.632951237381 -2.849251299499e-15 67.100886015707005  11.195969054186 -2.7422215331130001e-15 68.066800089287  10.807793056482 -2.6471458344929999e-15 69.095946749218996  10.486645141424001 -2.5684872812480002e-15 70.186535773794006  10.243276361186 -2.5088791217020002e-15 71.326575553382995  10.08084225324 -2.4690942396280001e-15 72.509952903241995  10 -2.449293598295e-15 73.733873379223994  10 -2.449293598295e-15 75 
 0 11 0.5 9 0.75 9 1 11
2 0 0 5 0 -0 1 1 0 0 -0 1 0 20
7 0 0  12 35 4  20 -4.8985871965889997e-15 5  19.855318758153999 -4.8631505126450002e-15 5.0000000000010001  19.695310027253999 -4.8239596766169996e-15 4.9821508191930004  19.548147207919001 -4.7879151814899997e-15 4.9421123083529999  19.443151561708 -4.7621986650729998e-15 4.888162703031  19.404131037003999 -4.7526413929459999e-15 4.8423874790320003  19.425268842992001 -4.757818662224e-15 4.8354947495719998  19.494868248326 -4.7748656000269998e-15 4.8702591497599999  19.605618103192999 -4.8019914910730002e-15 4.9568759405899998  19.746475602752 -4.8364916282719997e-15 5.0938415362180001  19.910814192202 -4.8767429737790002e-15 5.2812700409220001  20.092141278008999 -4.9211553008260002e-15 5.5166713484369998  20.479008270798001 -5.0159103857090004e-15 6.0779222106799997  20.684543575054001 -5.066252016204e-15 6.4037680354440001  20.897216772497998 -5.1183419263030001e-15 6.7720128707639997  21.113322838098 -5.1712726466140004e-15 7.1792269871089998  21.330122781545001 -5.2243733179599997e-15 7.6218778987690001  21.545583091048002 -5.2771458736520001e-15 8.0965370806459998  21.758166565122998 -5.3292138078499996e-15 8.5999255738450007  21.966682315928001 -5.3802854372239998e-15 9.1288972891530005  22.170191419921998 -5.4301307917749998e-15 9.6804198580669993  22.367953385616001 -5.4785685034349998e-15 10.251573928919001  22.559387301013999 -5.5254562897820002e-15 10.839552846195  23.113256048048999 -5.6611150074229998e-15 12.645711401533999  23.455254940043002 -5.7448805771010003e-15 13.906134272759999  23.766263377575999 -5.8210556746099997e-15 15.200814542903  24.044012957903998 -5.8890847015079997e-15 16.509520838916  24.287880281703998 -5.9488149690159998e-15 17.811189116131999  24.496105447904998 -5.9998154256660003e-15 19.087821718968002  24.668985177758 -6.0421587472349997e-15 20.318233943572999  24.806145798161999 -6.0757534101779997e-15 21.482532253833998  24.906286786744001 -6.1002808784080002e-15 22.561635145088999  24.971768154694999 -6.116319187939e-15 23.528199149262999  25.000000000000998 -6.1232339957370004e-15 24.360885792811001  25 -6.1232339957370004e-15 25 
 0 13 0.25 11 0.5 11 1 13
Polygon3D 0
PolygonOnTriangulations 0
Surfaces 11
7 0 0 0 0 0 1 
7 0 0  3 4 2  15 0 75  15 0 93.884517468021002  18 0 93.705160843992999  18 0 100 
 0 4 1 4
7 0 0 0 0 0 1 
7 0 0  3 4 2  30 0 25  30 0 64.151149408414994  15 0 61.949616863861998  15 0 75 
 0 4 1 4
9 1 1 0 1 2 10 3 19 2 3 17.901849016042998 0 98.148270499950996  1 17.901849016042 5.5426761596049996 98.148270499950996  1 15.994804783754001 11.169390860665001 98.148270499950996  1 12.085601462411001 16.090806544317001 98.148270499950996  1 6.4811728105749999 19.443481394147 98.148270499950002  1 -0.004631900833011 20.585804625459001 98.148270499950996  1.0000000000010001 -6.466167511079 19.416036336737999 98.148270499950002  1 -12.01337010672 16.100089584894999 98.148270499950996  1 -15.93851421449 11.248232701208 98.148270499950996  1 -17.90184901604 5.6240317354479998 98.148270499950996  1 -17.90184901604 -5.6240317354479998 98.148270499950996  1 -15.93851421449 -11.248232701199999 98.148270499950996  1 -12.01337010672 -16.10008958489 98.148270499950996  1 -6.4661675110739996 -19.416036336729999 98.148270499950002  1 -0.0046319008349679997 -20.585804625449999 98.148270499950996  1 6.4811728105739999 -19.443481394140001 98.148270499950002  1 12.085601462413999 -16.090806544309999 98.148270499950996  1 15.994804783753001 -11.16939086066 98.148270499950996  1 17.901849016042998 -5.5426761596049996 98.148270499950996  1 
18.108740175419001 -1.981054209566e-15 100  0.66669419525399998 18.108740175419001 5.6067327101700002 100  0.66669419525399998 16.179656287235002 11.298475192827 100  0.66669419525399998 12.225274414413001 16.276767537411999 100  0.66669419525399998 6.5560755402139996 19.668189155025001 100  0.66669419525399998 -0.0046854315795149997 20.823714183396 100  0.66669419525399998 -6.5408968248979997 19.640426915867 100  0.66669419525399998 -12.152208283 16.286157861825998 100  0.66669419525399998 -16.122715169469998 11.378228206276001 100  0.66669419525399998 -18.108740175409999 5.6890285100869997 100  0.66669419525399998 -18.108740175419999 -5.6890285100869997 100  0.66669419525399998 -16.122715169460001 -11.37822820627 100  0.66669419525399998 -12.152208283 -16.286157861820001 99.999999999999005  0.66669419525399998 -6.5408968248960004 -19.640426915860001 100  0.66669419525399998 -0.0046854315800600004 -20.823714183389999 99.999999999997996  0.66669419525399998 6.5560755402130004 -19.668189155019999 100  0.66669419525399998 12.225274414413001 -16.276767537409999 99.999999999999005  0.66669419525399998 16.179656287234 -11.29847519282 100  0.66669419525399998 18.108740175419001 -5.6067327101710003 100  0.66669419525399998 
16.245488691270999 0 100  1 16.245488691270999 5.029842603943 100  1 14.514892847141001 10.135948122046999 100  1 10.967386760377 14.602012089078 100  1 5.8815052850690002 17.644482244517 100  1 -0.0042033363436400004 18.68111254563 100  1.0000000000010001 -5.8678883439899998 17.619576528387999 100  1 -10.90183857756 14.610436220607999 100  1 -14.463810536840001 10.207495157652 100  1 -16.245488691270001 5.1036707926479998 100  1 -16.245488691270001 -5.1036707926479998 100  1 -14.463810536840001 -10.207495157649999 100  1 -10.90183857756 -14.61043622061 100  1 -5.8678883439860003 -17.619576528380001 100  1 -0.0042033363446369997 -18.68111254563 100  1 5.881505285067 -17.644482244510002 100  1 10.96738676038 -14.60201208908 100  1 14.51489284714 -10.13594812204 100  1 16.245488691270999 -5.029842603943 100  1 

0 3
113.09733552922999 3

2.2367199664250001e-15 10
56.548667764615999 9
113.09733552922999 10

1 0 0 100 0 0 1 1 0 -0 -0 1 0 
7 0 0 0 0 0 1 
7 0 0  3 4 2  20 0 0  26.731456008917998 0 0  30 0 18.268543991082002  30 0 25 
 0 4 1 4
9 1 1 0 1 2 13 3 49 2 5 14.5669350965 5.6329034314700002e-08 100  1 14.566935089695001 -1.7596833445190001 100  1 14.336735530817 -3.5207339029860001 100  1 13.874816303378999 -5.2482074735799999 100  0.99999999999900002 13.192220156325 -6.9074090536539998 99.999999999997996  1.000000000002 12.282164664647 -8.4753092596740007 100  0.99999999999599998 11.201007440193999 -9.8997489562270005 99.999999999997002  1.000000000005 9.8953554480769998 -11.199586361530001 100  0.999999999995 8.4793417489880003 -12.28135814993 99.999999999997002  1.0000000000039999 6.9058804350529996 -13.192957560130001 100  0.99999999999800004 5.2484836304789999 -13.874647802109999 99.999999999999005  1.0000000000010001 3.5205654054159998 -14.336628767220001 100  1 1.760244667836 -14.56694829105 100  1 -1.7604630259009999 -14.56692189913 100  1 -3.5207166554290001 -14.336548667860001 100  1 -5.2478923377699997 -13.874773419649999 100  1 -6.9068258163719998 -13.19275581069 100  0.99999999999900002 -8.4768862603410007 -12.28166010688 100  1.0000000000010001 -9.8983865508460003 -11.200772684169999 100  0.99999999999800004 -11.20018533795 -9.8960583470210004 99.999999999999005  1.000000000002 -12.28123227955 -8.4787390209540003 100  0.99999999999800004 -13.192886822229999 -6.9062516282799997 100  1.0000000000010001 -13.874660449989999 -5.2484229593310001 100  0.99999999999900002 -14.33660635162 -3.5206396116860001 100  1 -14.56693907453 -1.7603100527310001 100  1 -14.56693111661 1.7603758685069999 100  1 -14.33657262456 3.520612815157 100  0.99999999999900002 -13.874790393810001 5.2478347584999998 100  1.000000000003 -13.19287191557 6.9067724162599999 99.999999999997996  0.99999999999400002 -12.281434419249999 8.4769735187799995 100  1.0000000000089999 -11.2012114235 9.898118370632 99.999999999996007  0.99999999999 -9.8955947573480003 11.20057374324 100  1.00000000001 -8.4789870796480002 12.280969099084 99.999999999997002  0.99999999999199995 -6.9061461459529996 13.193005024131001 100  1.000000000005 -5.2484504171740003 13.874627222452 99.999999999999005  0.99999999999800004 -3.5206370855459999 14.336610672008 100  1.0000000000010001 -1.7603109437310001 14.566938967128999 100  1 1.760374985298 14.566931223614001 100  1 3.520611451128 14.336572155282999 100  1 5.2478363980629998 13.874796977701999 100  1 6.9067680251099999 13.192843510565 99.999999999999005  1 8.4769626072069997 12.281519394056 100  1 9.8981785238960001 11.201043870102 99.999999999997002  1.0000000000010001 11.200426979048 9.8958173726329992 100  0.99999999999900002 12.281171556525999 8.4788343391010006 99.999999999997002  1.0000000000010001 13.192865952654 6.9060945791270001 100  0.99999999999900002 13.874580680069 5.2486557975399997 99.999999999999005  1.0000000000010001 14.336773912521 3.5206699043279999 100  1 14.566935089696001 1.759683344383 100  1 
13.100228890026999 -3.6025357644939999e-09 100  0.75070468430699999 13.100228889591 -1.5825049228420001 100  0.75070468430699999 12.893110794356 -3.1662905824809999 100  0.75070468406000002 12.478536203608 -4.7193629426139996 99.999999999997996  0.75070468650699995 11.861102021292 -6.2137088199269996 100  0.75070467704800004 11.052305566316001 -7.6170801981020002 99.999999999991999  0.75070469920100003 10.062421207739 -8.9119106896320002 100.00000000001  0.75070466132699998 8.9097424842089996 -10.061620726379999 99.999999999983999  0.75070470987299998 7.6194798072180001 -11.05184955535 100.00000000001  0.75070466619599996 6.212546983068 -11.86161586681 99.999999999991005  0.75070469217400004 4.719567414089 -12.478465514270001 100  0.75070468207600005 3.1660441337240002 -12.89301359495 99.999999999999005  0.75070468460200002 1.5829954986420001 -13.100235598939999 100  0.75070468435500004 -1.5831065340429999 -13.100222181159999 100  0.75070468445899996 -3.166169565013 -12.892954422360001 100  0.75070468451500005 -4.7191004312100002 -12.47862851997 99.999999999997996  0.75070468385300004 -6.2141501216239998 -11.86122868701 100  0.75070468179200001 -7.6169743693690002 -11.0518398195 99.999999999988006  0.75070469432599995 -8.91174903834 -10.062948201959999 100.00000000001  0.75070466451899998 -10.061885150429999 -8.9093021339639993 99.999999999978996  0.75070470851299997 -11.05161325477 -7.6197473905650002 100.00000000001  0.75070466674299996 -11.86169208832 -6.212494356773 99.999999999991005  0.75070469156800002 -12.47842077588 -4.7196337587499997 100  0.75070468266699997 -12.893002601139999 -3.1660891653599998 99.999999999999005  0.75070468458100004 -13.10022700581 -1.5830580832979999 100  0.75070468427500003 -13.100230774190001 1.583026897846 100  0.750704684382 -12.89297538242 3.1660866689940002 99.999999999999005  0.75070468446700001 -12.478646779649999 4.7190449697960002 100  0.75070468451799999 -11.86130374713 6.2140921053379996 99.999999999981  0.75070468116099998 -11.05173960045 7.6170516665510002 100.00000000003  0.75070469445599997 -10.063136406010001 8.911571076765 99.999999999945004  0.75070466473399999 -8.9091383542280003 10.062107053366001 100.00000000004999  0.75070470843399995 -7.6197875979429996 11.051493121764 99.999999999953005  0.75070466635300004 -6.2124760445499998 11.861740156154999 100.00000000001999  0.75070469236600001 -4.7196385306949997 12.478407944799001 99.999999999991005  0.75070468196899998 -3.1660895244780001 12.893004057484999 100  0.75070468461600004 -1.583058883136 13.100226909339 100  0.75070468435600002 1.5830260983919999 13.100230870974 100  0.75070468446299998 3.1660863043659999 12.892974859719001 100  0.75070468450100003 4.7190405202669998 12.478652547817999 100  0.75070468382300004 6.2141081212160003 11.861283059910001 100  0.75070468195999995 7.6170013776249998 11.051790851874999 100  0.75070469402600004 8.9116740047490008 10.063057880531 99.999999999996007  0.75070466474700004 10.06195333618 8.9092050181470004 100  0.75070470862000005 11.051639546675 7.6198088360150003 99.999999999991999  0.75070466625300003 11.861691047898001 6.2123367384019996 100  0.75070469218699998 12.478311785255 4.7197813825879997 99.999999999997996  0.750704682279 12.893148348551 3.1662292944689998 100  0.75070468463700002 13.100228889591 1.5825049227500001 100  0.75070468430699999 
12.913788463005 1.937810635554e-12 98.545191743467001  1 12.913788463378999 -1.5599828796070001 98.545191743467001  1 12.709604368309 -3.1212355067140001 98.545191742236  1 12.301047999610001 -4.6521388285579999 98.545191754471006  0.99999999999900002 11.691896861344 -6.1255291297449999 98.545191707154004  1.000000000002 10.895972005942999 -7.5079862791369996 98.545191817982996  0.99999999999599998 9.9176897344149992 -8.7863417085319995 98.545191628488993  1.000000000005 8.7844562307080007 -9.9169680688039996 98.545191871388994  0.999999999995 7.5101784734030002 -10.89556055714 98.545191652854001  1.0000000000039999 6.1244138237729997 -11.69238229946 98.545191782822997  0.99999999999800004 4.6523342223780002 -12.300989738289999 98.545191732310997  1.0000000000010001 3.1209791425610001 -12.70950838613 98.545191744942997  1 1.560464462156 -12.91379434728 98.545191743710006  1 -1.560561855477 -12.91378257825 98.545191744226003  1 -3.1211012982850002 -12.709451870240001 98.545191744508003  1 -4.6518829938659998 -12.30115751568 98.545191741191005  1 -6.126100712955 -11.6919715087 98.545191730892  0.99999999999900002 -7.5076664558150004 -10.895511227749999 98.545191793591002  1.0000000000010001 -8.7863327776079991 -9.9183135377710006 98.545191644461994  0.99999999999800004 -9.9171899066510001 -8.7838705522650002 98.545191864580005  1.000000000002 -10.89531024399 -7.5105567066359997 98.545191655588994  0.99999999999800004 -11.69247719867 -6.1243073052270001 98.545191779793001  1.0000000000010001 -12.30093770305 -4.6524167190260002 98.545191735266002  0.99999999999900002 -12.70949884421 -3.1210204656179998 98.545191744837993  1 -12.91378583375 -1.5605266908969999 98.545191743307001  1 -12.91379109224 1.560483175383 98.545191743841997  1 -12.7094724496 3.1210210647859999 98.545191744269999  0.99999999999900002 -12.301175934950001 4.651827806949 98.545191744519002  1.000000000003 -11.69204135589 6.126042092964 98.545191727735002  0.99999999999400002 -10.895426959870001 7.507742509311 98.545191794253  1.0000000000089999 -9.9184698808759997 8.7861662666240008 98.545191645513  0.99999999999 -8.7837449070570006 9.9173906513450003 98.545191864212995  1.00000000001 -7.5105704671820002 10.895208297286 98.545191653615007  0.99999999999199995 -6.1243000909949998 11.692516344917999 98.545191783796994  1.000000000005 -4.6524186023279999 12.300927468835001 98.545191731775006  0.99999999999800004 -3.1210211911500001 12.709499936316 98.545191745012005  1.0000000000010001 -1.5605274791049999 12.913785738312001 98.545191743711996  1 1.5604823865340001 12.913791187375001 98.545191744247006  1 3.1210208267650001 12.709471919991 98.545191744440999  1 4.651822579069 12.301181603311001 98.545191741048995  1 6.1260607182799998 11.692021643854 98.545191731713999  1 7.5076871929409998 10.895473927259999 98.545191792124996  1 8.7862746518979993 9.9184026760609996 98.545191645551  1.0000000000010001 9.9172360378909996 8.7837917372609997 98.545191865177003  0.99999999999900002 10.895347603792001 7.5106138329289998 98.545191653089006  1.0000000000010001 11.692478673426001 6.1241496224010001 98.545191782922004  0.99999999999900002 12.300825000459 4.6525535087390004 98.545191733311  1.0000000000010001 12.709641818496999 3.121174556473 98.545191745121997  1 12.913788463378999 1.5599828795199999 98.545191743467001  1 

0 3
81.681409049809005 3

-7.7730308738010001e-16 13
20.420352262451999 12
40.840704524905 12
61.261056787356999 12
81.681409049809005 13

1 0 0 0 0 0 1 1 0 -0 -0 1 0 
11 -5
9 0 0 0 0 12 3 24 8 3 4 15 6.2172489379009997e-15 68.680575439367004  15 6.2172489379009997e-15 70.787050292925997  15 6.2172489379009997e-15 72.893525146471006  15 6.2172489379009997e-15 93.884517468021002  18 7.9936057773009993e-15 93.705160843992999  18 7.9936057773009993e-15 102.10647485353  18 7.9936057773009993e-15 104.21294970708  18 7.9936057773009993e-15 106.31942456063  
15.000000000001 3.926990816989 68.680575439372006  15.000000000001 3.926990816989 70.787050292930999  15.000000000001 3.926990816989 72.893525146475994  15 3.9269908169869998 93.884517468029998  18.000000000000998 4.7123889803859997 93.705160844001  18.000000000000998 4.7123889803869998 102.10647485354001  18 4.7123889803869998 104.21294970708  18 4.7123889803869998 106.31942456064  
13.878454022282 7.8539813548820003 68.680575439345006  13.878454022282 7.8539813548830004 70.787050292906002  13.878454022282 7.8539813548839996 72.893525146450997  13.878454022284 7.8539813548920003 93.884517467983997  16.654144826739 9.4247779628410004 93.705160843960996  16.654144826741 9.4247779628380002 102.10647485350999  16.654144826741 9.4247779628370001 104.21294970705  16.654144826741 9.424777962836 106.3194245606  
11.635362304279001 11.428629999744 68.680575439414994  11.635362304278001 11.428629999742 70.787050292969994  11.635362304278001 11.428629999739 72.893525146513994  11.635362304272 11.428629999718 93.884517468108996  13.962434765133001 13.714354058684 93.705160844068999  13.962434765129 13.714354058692001 102.10647485359  13.962434765128 13.714354058693999 104.21294970714  13.962434765126 13.714354058695999 106.31942456069  
8.3937149027439997 14.298582518569001 68.680575439291999  8.3937149027449998 14.298582518572999 70.787050292859007  8.3937149027459999 14.298582518577 72.893525146404002  8.3937149027550007 14.29858251862 93.884517467874005  10.072457883294 17.158304557739999 93.705160843865002  10.072457883303001 17.158304557727998 102.10647485343  10.072457883305001 17.158304557724001 104.21294970696999  10.072457883307001 17.158304557720999 106.31942456052001  
4.3994985349769999 16.159820082888999 68.680575439451999  4.3994985349749998 16.159820082883002 70.787050293001002  4.3994985349739997 16.159820082875999 72.893525146545002  4.3994985349610003 16.159820082814001 93.884517468208998  5.2793982419710002 19.391774214727999 93.705160844155998  5.2793982419569998 19.391774214742 102.10647485366999  5.2793982419530003 19.391774214746 104.21294970721  5.279398241949 19.391774214750001 106.31942456077  
-1.9854106472159999e-11 16.804846058864001 68.680575439291005  -1.8402900908290001e-11 16.804846058871 70.787050292863  -1.695169534444e-11 16.804846058877999 72.893525146407995  -2.4904522888390001e-12 16.804846058950002 93.884517467831998  -2.300026835655e-11 20.165827185274001 93.705160843827002  -4.7451977378670003e-12 20.165827185262 102.10647485339  -1.6807478256089999e-13 20.165827185259001 104.21294970693999  4.4090481727449997e-12 20.165827185255999 106.31942456048  
-4.3994985349410003 16.159820082888 68.680575439419002  -4.3994985349420004 16.159820082882 70.787050292966995  -4.3994985349429996 16.159820082875999 72.893525146512005  -4.3994985349569999 16.159820082812001 93.884517468173996  -5.279398241929 19.391774214729001 93.705160844128997  -5.2793982419479999 19.391774214735999 102.10647485365  -5.2793982419520002 19.391774214737001 104.21294970719001  -5.2793982419569998 19.391774214739002 106.31942456074999  
-8.3937149027700002 14.298582518570001 68.680575439338  -8.3937149027690001 14.298582518573999 70.787050292906002  -8.393714902768 14.298582518579 72.893525146450003  -8.3937149027579991 14.298582518622 93.884517467923999  -10.07245788332 17.158304557739999 93.705160843905006  -10.072457883309999 17.158304557737001 102.10647485346  -10.0724578833 17.158304557735999 104.21294970701  -10.0724578833 17.158304557735001 106.31942456055  
-11.635362304259999 11.428629999743 68.680575439376994  -11.635362304259999 11.428629999741 70.787050292933003  -11.635362304259999 11.428629999738 72.893525146477003  -11.63536230427 11.428629999717 93.884517468067003  -13.96243476511 13.714354058684 93.705160844033998  -13.962434765119999 13.714354058686 102.10647485356  -13.962434765119999 13.714354058686 104.21294970711  -13.962434765119999 13.714354058686 106.31942456066  
-13.87845402228 7.8539813548830004 68.680575439365995  -13.87845402228 7.8539813548830004 70.787050292927006  -13.87845402228 7.8539813548839996 72.893525146471006  -13.87845402228 7.8539813548910002 93.884517468008994  -16.654144826740001 9.4247779628420005 93.705160843982  -16.654144826740001 9.4247779628410004 102.10647485353  -16.654144826740001 9.4247779628400004 104.21294970707  -16.654144826740001 9.4247779628400004 106.31942456062001  
-14.999999999990001 3.926990816989 68.680575439364006  -14.999999999990001 3.926990816989 70.787050292922999  -14.999999999990001 3.926990816989 72.893525146467994  -15 3.9269908169879999 93.884517468019993  -17.999999999989999 4.7123889803859997 93.705160843992005  -18 4.7123889803869998 102.10647485353  -18 4.7123889803869998 104.21294970708  -18 4.7123889803869998 106.31942456063  
-15 -3.926990816989 68.680575439373001  -15 -3.926990816989 70.787050292933003  -15 -3.926990816989 72.893525146477003  -15 -3.926990816989 93.884517468029998  -18 -4.7123889803859997 93.705160844000005  -18 -4.7123889803869998 102.10647485354001  -18 -4.7123889803879999 104.21294970709  -18 -4.7123889803879999 106.31942456064  
-13.87845402228 -7.8539813548839996 68.680575439327001  -13.87845402228 -7.8539813548830004 70.787050292887997  -13.87845402228 -7.8539813548830004 72.893525146433007  -13.87845402228 -7.8539813548759998 93.884517467964002  -16.654144826730001 -9.4247779628380002 93.705160843947993  -16.654144826730001 -9.4247779628319996 102.10647485347999  -16.654144826730001 -9.4247779628299995 104.21294970703001  -16.654144826730001 -9.4247779628289994 106.31942456058  
-11.63536230427 -11.428629999729999 68.680575439476002  -11.63536230427 -11.42862999974 70.787050293030006  -11.63536230427 -11.42862999974 72.893525146575001  -11.63536230427 -11.42862999976 93.884517468179993  -13.96243476513 -13.714354058690001 93.705160844119007  -13.96243476513 -13.714354058710001 102.10647485366999  -13.96243476513 -13.714354058710001 104.21294970721  -13.96243476513 -13.71435405872 106.31942456076  
-8.3937149027459999 -14.298582518570001 68.680575439161998  -8.3937149027459999 -14.298582518570001 70.787050292732005  -8.3937149027459999 -14.298582518570001 72.893525146276005  -8.3937149027490001 -14.298582518530001 93.884517467722006  -10.072457883289999 -17.158304557720001 93.705160843754996  -10.072457883289999 -17.158304557680001 102.10647485329  -10.072457883289999 -17.15830455767 104.21294970683  -10.072457883289999 -17.15830455767 106.31942456039  
-4.3994985349739997 -16.159820082869999 68.680575439652003  -4.3994985349739997 -16.159820082869999 70.787050293196998  -4.3994985349739997 -16.15982008288 72.893525146740998  -4.3994985349710003 -16.159820082940001 93.884517468441999  -5.2793982419749996 -19.39177421474 93.705160844326002  -5.2793982419749996 -19.391774214800002 102.10647485387  -5.2793982419749996 -19.391774214809999 104.21294970741  -5.2793982419749996 -19.391774214830001 106.31942456096  
1.675582083096e-11 -16.804846058879999 68.680575439059993  1.6551806480649999e-11 -16.804846058870002 70.787050292635996  1.6347792130340002e-11 -16.804846058870002 72.893525146179996  1.4314791995730001e-11 -16.804846058790002 93.884517467565004  2.8610313068440001e-11 -20.165827185249999 93.705160843632996  2.755580731683e-11 -20.16582718519 102.10647485318999  2.729140940881e-11 -20.165827185169999 104.21294970673  2.70270115008e-11 -20.16582718515 106.31942456028  
4.3994985349439997 -16.159820082860001 68.680575439625002  4.3994985349439997 -16.159820082869999 70.787050293169997  4.3994985349449998 -16.15982008288 72.893525146715007  4.3994985349459999 -16.159820082940001 93.884517468411005  5.2793982419249996 -19.391774214729999 93.705160844298007  5.2793982419259997 -19.391774214790001 102.10647485382  5.2793982419259997 -19.391774214809999 104.21294970736  5.2793982419259997 -19.391774214830001 106.31942456092  
8.3937149027669999 -14.29858251858 68.680575439194996  8.3937149027669999 -14.29858251858 70.787050292765002  8.3937149027669999 -14.298582518570001 72.893525146309997  8.3937149027659999 -14.298582518530001 93.884517467758997  10.072457883327001 -17.158304557729998 93.705160843789002  10.072457883326001 -17.158304557689998 102.10647485334999  10.072457883326001 -17.158304557680001 104.21294970690001  10.072457883326001 -17.15830455767 106.31942456044  
11.635362304266 -11.428629999729999 68.680575439452994  11.635362304266 -11.428629999729999 70.787050293007994  11.635362304266 -11.428629999729999 72.893525146551994  11.635362304266 -11.42862999976 93.884517468157  13.962434765115001 -13.71435405868 93.705160844098998  13.962434765115001 -13.7143540587 102.10647485362  13.962434765115001 -13.714354058710001 104.21294970717  13.962434765115001 -13.71435405872 106.31942456071999  
13.878454022287 -7.8539813548859998 68.680575439335001  13.878454022287 -7.8539813548849997 70.787050292895998  13.878454022287 -7.8539813548839996 72.893525146440993  13.878454022287 -7.8539813548749997 93.884517467969999  16.654144826745998 -9.4247779628420005 93.705160843952996  16.654144826745998 -9.4247779628329997 102.1064748535  16.654144826745998 -9.4247779628299995 104.21294970705  16.654144826745998 -9.4247779628279993 106.3194245606  
15 -3.9269908169879999 68.680575439373996  15 -3.9269908169879999 70.787050292933003  15 -3.9269908169879999 72.893525146477003  15 -3.9269908169910002 93.884517468032996  17.999999999999002 -4.7123889803859997 93.705160844001995  17.999999999999002 -4.7123889803879999 102.10647485354001  17.999999999999002 -4.7123889803879999 104.21294970708  17.999999999999002 -4.712388980389 106.31942456064  
15 -8.5880373299400003e-15 68.680575439367004  15 -8.3898934790590007e-15 70.787050292925997  15 -8.1917496281789997e-15 72.893525146471006  15 -6.2172489379009997e-15 93.884517468021002  18 -7.9936057773009993e-15 93.705160843992999  18 -5.622817385264e-15 102.10647485353  18 -5.0283858326249998e-15 104.21294970708  18 -4.4339542799839997e-15 106.31942456063  

0 13
3.1415926535900001 11
6.2831853071800001 13

-0.11154507162299999 4
0 2
1 2
1.3346352148689999 4

11 -5
7 0 0 0 0 0 1 
7 0 0  3 4 2  30 0 25  30 0 64.151149408414994  15 0 61.949616863861998  15 0 75 
 0 4 1 4
11 -5
7 0 0 0 0 0 1 
7 0 0  3 4 2  20 0 0  26.731456008917998 0 0  30 0 18.268543991082002  30 0 25 
 0 4 1 4
1 0 0 5 0 0 1 1 0 -0 -0 1 0 
Triangulations 0

TShapes 54
Ve
1e-07
15 0 75
0 0

0101101
*
Ve
4.66383318569414e-06
17.901849016043 0 98.148270499951
0 0

0101101
*
Ed
 1e-07 1 1 0
1  1 0 0 0.89157786690163
3  1 2C2 1 0 0 0.89157786690163
0

0101000
+54 0 -53 0 *
Ed
 1e-07 1 1 0
1  2 0 0 6.28318530717959
2  3 1 0 0 6.28318530717959
2  4 2 0 0 6.28318530717959
4 G1 1 0 2 0
0

0101100
+54 0 -54 0 *
Ed
 4.66383318569414e-06 1 1 0
1  3 0 2.236719966425e-15 113.09733552923
2  5 1 0 2.236719966425e-15 113.09733552923
2  6 3 0 2.236719966425e-15 113.09733552923
4 G1 1 0 3 0
0

0101100
+53 0 -53 0 *
Wi

0101100
-52 0 +51 0 +52 0 -50 0 *
Fa
0  1e-07 1 0

0101000
+49 0 *
Ve
1e-07
16.245488691271 0 100
0 0

0101101
*
Ed
 1e-07 1 1 0
1  4 0 0 113.09733552923
3  7 8C2 3 0 0 113.09733552923
0

0101000
+53 0 -47 0 *
Ed
 1e-07 1 1 0
1  5 0 2.236719966425e-15 113.09733552923
2  9 3 0 2.236719966425e-15 113.09733552923
4 G1 3 0 4 0
0

0101100
+47 0 -47 0 *
Wi

0101100
+46 0 +45 0 -46 0 -50 0 *
Fa
0  1e-07 3 0

0101000
+44 0 *
Ve
1e-07
30 0 25
0 0

0101101
*
Ed
 1e-07 1 1 0
1  6 0 0 6.28318530717959
2  10 2 0 0 6.28318530717959
2  11 5 0 0 6.28318530717959
4 G1 2 0 5 0
0

0101100
+42 0 -42 0 *
Ed
 1e-07 1 1 0
1  7 0 0 1
3  12 13C2 2 0 0 1
0

0101000
+42 0 -54 0 *
Wi

0101100
+41 0 +40 0 -51 0 -40 0 *
Fa
0  1e-07 2 0

0101000
+39 0 *
Wi

0101100
+45 0 *
Ve
1e-07
14.5669350965 5.63290343147e-08 100
0 0

0101101
*
Ed
 1e-07 1 1 0
1  8 0 -7.773030873801e-16 81.681409049809
2  14 6 0 -7.773030873801e-16 81.681409049809
4 G1 4 0 6 0
0

0101100
+36 0 -36 0 *
Wi

0101100
+35 0 *
Fa
0  1e-07 4 0

0101000
+37 0 +34 0 *
Ve
1e-07
20 0 0
0 0

0101101
*
Ed
 1e-07 1 1 0
1  9 0 0 6.28318530717959
2  15 5 0 0 6.28318530717959
4 G1 5 0 7 0
0

0101100
+32 0 -32 0 *
Ed
 1e-07 1 1 0
1  10 0 0 1
3  16 17C2 5 0 0 1
0

0101000
+32 0 -42 0 *
Wi

0101100
+31 0 +30 0 -41 0 -30 0 *
Fa
0  1e-07 5 0

0101000
+29 0 *
Ve
8.17510615389789e-07
12.913788463005 1.937810635554e-12 98.545191743467
0 0

0101101
*
Ed
 1e-07 1 1 0
1  11 0 0 81.681409049809
3  18 19C1 6 0 0 81.681409049809
0

0101000
+36 0 -27 0 *
Ed
 3.79266026974775e-07 1 1 0
1  12 0 -7.773030873801e-16 81.681409049809
2  20 6 0 -7.773030873801e-16 81.681409049809
2  21 8 0 -7.773030873801e-16 81.681409049809
4 G1 6 0 8 0
0

0101100
+27 0 -27 0 *
Wi

0101100
+26 0 +25 0 -26 0 -35 0 *
Fa
0  1e-07 6 0

0101000
+24 0 *
Wi

0101100
-31 0 *
Fa
0  1e-07 7 0

0101000
-22 0 *
Ve
8.17510615389789e-07
10 0 75
0 0

0101101
*
Ed
 8.17510615389789e-07 1 1 0
1  13 0 0 0.876088319611557
3  22 23G2 8 0 0 0.876088319611557
0

0101000
+20 0 -27 0 *
Ed
 2.1532679075649e-07 1 1 0
1  14 0 0 6.28318530718
2  24 8 0 0 6.28318530718
2  25 9 0 0 6.28318530718
4 G1 8 0 9 0
0

0101100
+20 0 -20 0 *
Wi

0101100
+19 0 +25 0 -19 0 +18 0 *
Fa
0  1e-07 8 0

0101000
+17 0 *
Ve
5.38317122707528e-07
25 0 25
0 0

0101101
*
Ed
 5.38317122707528e-07 1 1 0
1  15 0 0 6.28318530718
2  26 9 0 0 6.28318530718
2  27 10 0 0 6.28318530718
4 G1 9 0 10 0
0

0101100
+15 0 -15 0 *
Ed
 4.58343685982646e-07 1 1 0
1  16 0 0 1
3  28 29C2 9 0 0 1
0

0101000
+15 0 -20 0 *
Wi

0101100
+14 0 +13 0 -18 0 -13 0 *
Fa
0  1e-07 9 0

0101000
+12 0 *
Ve
3.88037205641766e-07
20 0 5
0 0

0101101
*
Ed
 1e-07 1 1 0
1  17 0 0 6.28318530717959
2  30 10 0 0 6.28318530717959
4 C0 10 0 11 0
0

0101100
+10 0 -10 0 *
Ed
 3.88037205641766e-07 1 1 0
1  18 0 0 1
3  31 32C2 10 0 0 1
0

0101000
+10 0 -15 0 *
Wi

0101100
+9 0 +8 0 -14 0 -8 0 *
Fa
0  1e-07 10 0

0101000
+7 0 *
Wi

0101100
-9 0 *
Fa
0  1e-07 11 0

0101000
-5 0 *
Sh

0101100
+48 0 -43 0 +38 0 +33 0 +28 0 +23 0 -21 0 -16 0 -11 0 -6 0 
+4 0 *
So

0100000
+3 0 *
Co

1100000
+2 0 *

+1 0 