DBRep_DrawableShape

CASCADE Topology V3, (c) Open Cascade
Locations 0
Curve2ds 8
1 0 0 1 0 
1 10 0 0 1 
1 10 10 -1 0 
1 0 10 0 -1 
1 3 7 0 -1 
1 7 7 -1 0 
1 7 3 0 1 
1 3 3 1 0 
Curves 24
1 0 0 2 1 0 0 
1 10 0 2 0 1 0 
1 10 10 2 -1 0 0 
1 0 10 2 0 -1 0 
1 3 7 2 0 -1 0 
1 7 7 2 -1 0 0 
1 7 3 2 0 1 0 
1 3 3 2 1 0 0 
1 0 0 0 1 0 0 
1 10 0 0 0 1 0 
1 10 10 0 -1 0 0 
1 0 10 0 0 -1 0 
1 3 7 0 0 -1 0 
1 7 7 0 -1 0 0 
1 7 3 0 0 1 0 
1 3 3 0 1 0 0 
1 10 0 0 0 0 1 
1 0 0 0 0 0 1 
1 0 10 0 0 0 1 
1 10 10 0 0 0 1 
1 3 3 0 0 0 1 
1 7 3 0 0 0 1 
1 7 7 0 0 0 1 
1 3 7 0 0 0 1 
Polygon3D 0
PolygonOnTriangulations 48
2 1 2 
p 0.056 1 0 10 
2 4 3 
p 0.056 1 0 10 
2 2 3 
p 0.056 1 0 10 
2 4 3 
p 0.056 1 0 10 
2 3 4 
p 0.056 1 0 10 
2 3 2 
p 0.056 1 0 10 
2 4 1 
p 0.056 1 0 10 
2 3 2 
p 0.056 1 0 10 
2 5 6 
p 0.056 1 0 4 
2 2 3 
p 0.056 1 0 4 
2 7 5 
p 0.056 1 0 4 
2 2 3 
p 0.056 1 0 4 
2 8 7 
p 0.056 1 0 4 
2 2 3 
p 0.056 1 0 4 
2 6 8 
p 0.056 1 0 4 
2 2 3 
p 0.056 1 0 4 
2 1 2 
p 0.056 1 0 10 
2 1 2 
p 0.056 1 0 10 
2 2 3 
p 0.056 1 0 10 
2 1 2 
p 0.056 1 0 10 
2 3 4 
p 0.056 1 0 10 
2 4 1 
p 0.056 1 0 10 
2 4 1 
p 0.056 1 0 10 
2 4 1 
p 0.056 1 0 10 
2 5 6 
p 0.056 1 0 4 
2 1 4 
p 0.056 1 0 4 
2 7 5 
p 0.056 1 0 4 
2 1 4 
p 0.056 1 0 4 
2 8 7 
p 0.056 1 0 4 
2 1 4 
p 0.056 1 0 4 
2 6 8 
p 0.056 1 0 4 
2 1 4 
p 0.056 1 0 4 
2 2 3 
p 0.056 1 0 2 
2 1 4 
p 0.056 1 0 2 
2 1 4 
p 0.056 1 0 2 
2 1 2 
p 0.056 1 0 2 
2 1 2 
p 0.056 1 0 2 
2 4 3 
p 0.056 1 0 2 
2 4 3 
p 0.056 1 0 2 
2 2 3 
p 0.056 1 0 2 
2 1 2 
p 0.056 1 0 2 
2 4 3 
p 0.056 1 0 2 
2 4 3 
p 0.056 1 0 2 
2 1 2 
p 0.056 1 0 2 
2 1 2 
p 0.056 1 0 2 
2 4 3 
p 0.056 1 0 2 
2 4 3 
p 0.056 1 0 2 
2 1 2 
p 0.056 1 0 2 
Surfaces 10
11 2
1 0 0 0 0 0 1 1 0 -0 -0 1 0 
1 0 0 0 0 -1 0 1 0 0 -0 0 1 
1 10 0 0 1 0 0 -0 1 0 0 -0 1 
1 0 10 0 0 1 0 1 0 0 0 0 -1 
1 0 0 0 -1 0 0 0 1 0 0 0 -1 
1 3 0 0 1 0 0 -0 1 0 0 -0 1 
1 0 7 0 0 -1 0 1 0 0 -0 0 1 
1 7 0 0 -1 0 0 0 1 0 0 0 -1 
1 0 3 0 0 1 0 1 0 0 0 0 -1 
1 0 0 0 0 0 1 1 0 -0 -0 1 0 
Triangulations 10
8 8 1 0 0
0 0 2 10 0 2 10 10 2 0 10 2 3 7 2 3 3 2 7 7 2 7 3 2 0 0 10 0 10 10 0 10 3 7 3 3 7 7 7 3 2 8 6 2 6 1 4 6 5 4 1 6 3 5 7 3 7 8 3 8 2 3 4 5 
4 2 1 0 0
0 0 0 10 0 0 10 0 2 0 0 2 0 0 10 0 10 2 0 2 2 4 1 3 4 2 
4 2 1 0 0
10 0 0 10 10 0 10 10 2 10 0 2 0 0 10 0 10 2 0 2 2 4 1 3 4 2 
4 2 1 0 0
0 10 0 0 10 2 10 10 2 10 10 0 0 0 0 -2 10 -2 10 0 3 1 2 4 1 3 
4 2 1 0 0
0 0 0 0 0 2 0 10 2 0 10 0 0 0 0 -2 10 -2 10 0 3 1 2 4 1 3 
4 2 1 0 0
3 7 0 3 7 2 3 3 2 3 3 0 7 0 7 2 3 2 3 0 2 3 4 2 4 1 
4 2 1 0 0
7 7 0 7 7 2 3 7 2 3 7 0 7 0 7 2 3 2 3 0 2 3 4 2 4 1 
4 2 1 0 0
7 3 0 7 3 2 7 7 2 7 7 0 3 0 3 -2 7 -2 7 0 4 1 2 4 2 3 
4 2 1 0 0
3 3 0 3 3 2 7 3 2 7 3 0 3 0 3 -2 7 -2 7 0 4 1 2 4 2 3 
8 8 1 0 0
0 0 0 10 0 0 10 10 0 0 10 0 3 7 0 3 3 0 7 7 0 7 3 0 0 0 10 0 10 10 0 10 3 7 3 3 7 7 7 3 2 8 6 2 6 1 4 6 5 4 1 6 3 5 7 3 7 8 3 8 2 3 4 5 

TShapes 64
Ve
1e-07
0 0 2
0 0

0101101
*
Ve
1e-07
10 0 2
0 0

0101101
*
Ed
 1e-07 1 1 0
1  1 0 0 10
2  1 1 0 0 10
4 C0 1 0 2 0
6  1 1 0
6  2 2 0
0

0101000
+64 0 -63 0 *
Ve
1e-07
10 10 2
0 0

0101101
*
Ed
 1e-07 1 1 0
1  2 0 0 10
2  2 1 0 0 10
4 C0 1 0 3 0
6  3 1 0
6  4 3 0
0

0101000
+63 0 -61 0 *
Ve
1e-07
0 10 2
0 0

0101101
*
Ed
 1e-07 1 1 0
1  3 0 0 10
2  3 1 0 0 10
4 C0 1 0 4 0
6  5 1 0
6  6 4 0
0

0101000
+61 0 -59 0 *
Ed
 1e-07 1 1 0
1  4 0 0 10
2  4 1 0 0 10
4 C0 1 0 5 0
6  7 1 0
6  8 5 0
0

0101000
+59 0 -64 0 *
Wi

0101100
+62 0 +60 0 +58 0 +57 0 *
Ve
1e-07
3 7 2
0 0

0101101
*
Ve
1e-07
3 3 2
0 0

0101101
*
Ed
 1e-07 1 1 0
1  5 0 0 4
2  5 1 0 0 4
4 C0 1 0 6 0
6  9 1 0
6  10 6 0
0

0101000
+55 0 -54 0 *
Ve
1e-07
7 7 2
0 0

0101101
*
Ed
 1e-07 1 1 0
1  6 0 0 4
2  6 1 0 0 4
4 C0 1 0 7 0
6  11 1 0
6  12 7 0
0

0101000
+52 0 -55 0 *
Ve
1e-07
7 3 2
0 0

0101101
*
Ed
 1e-07 1 1 0
1  7 0 0 4
2  7 1 0 0 4
4 C0 1 0 8 0
6  13 1 0
6  14 8 0
0

0101000
+50 0 -52 0 *
Ed
 1e-07 1 1 0
1  8 0 0 4
2  8 1 0 0 4
4 C0 1 0 9 0
6  15 1 0
6  16 9 0
0

0101000
+54 0 -50 0 *
Wi

0101100
-53 0 -51 0 -49 0 -48 0 *
Fa
0  1e-07 1 0
2  1
0101000
+56 0 +47 0 *
Ve
1e-07
0 0 0
0 0

0101101
*
Ve
1e-07
10 0 0
0 0

0101101
*
Ed
 1e-07 1 1 0
1  9 0 0 10
4 C0 10 0 2 0
6  17 10 0
6  18 2 0
0

0101000
+45 0 -44 0 *
Ve
1e-07
10 10 0
0 0

0101101
*
Ed
 1e-07 1 1 0
1  10 0 0 10
4 C0 10 0 3 0
6  19 10 0
6  20 3 0
0

0101000
+44 0 -42 0 *
Ve
1e-07
0 10 0
0 0

0101101
*
Ed
 1e-07 1 1 0
1  11 0 0 10
4 C0 10 0 4 0
6  21 10 0
6  22 4 0
0

0101000
+42 0 -40 0 *
Ed
 1e-07 1 1 0
1  12 0 0 10
4 C0 10 0 5 0
6  23 10 0
6  24 5 0
0

0101000
+40 0 -45 0 *
Wi

0101100
+43 0 +41 0 +39 0 +38 0 *
Ve
1e-07
3 7 0
0 0

0101101
*
Ve
1e-07
3 3 0
0 0

0101101
*
Ed
 1e-07 1 1 0
1  13 0 0 4
4 C0 10 0 6 0
6  25 10 0
6  26 6 0
0

0101000
+36 0 -35 0 *
Ve
1e-07
7 7 0
0 0

0101101
*
Ed
 1e-07 1 1 0
1  14 0 0 4
4 C0 10 0 7 0
6  27 10 0
6  28 7 0
0

0101000
+33 0 -36 0 *
Ve
1e-07
7 3 0
0 0

0101101
*
Ed
 1e-07 1 1 0
1  15 0 0 4
4 C0 10 0 8 0
6  29 10 0
6  30 8 0
0

0101000
+31 0 -33 0 *
Ed
 1e-07 1 1 0
1  16 0 0 4
4 C0 10 0 9 0
6  31 10 0
6  32 9 0
0

0101000
+35 0 -31 0 *
Wi

0101100
-34 0 -32 0 -30 0 -29 0 *
Fa
0  1e-07 10 0
2  10
0101000
+37 0 +28 0 *
Ed
 1e-07 1 1 0
1  17 0 0 2
4 C0 2 0 3 0
6  33 2 0
6  34 3 0
0

0101000
+44 0 -63 0 *
Ed
 1e-07 1 1 0
1  18 0 0 2
4 C0 2 0 5 0
6  35 2 0
6  36 5 0
0

0101000
+45 0 -64 0 *
Wi

0101100
+43 0 +26 0 -62 0 -25 0 *
Fa
0  1e-07 2 0
2  2
0101000
+24 0 *
Ed
 1e-07 1 1 0
1  19 0 0 2
4 C0 4 0 5 0
6  37 4 0
6  38 5 0
0

0101000
+40 0 -59 0 *
Ed
 1e-07 1 1 0
1  20 0 0 2
4 C0 4 0 3 0
6  39 4 0
6  40 3 0
0

0101000
+42 0 -61 0 *
Wi

0101100
+22 0 -58 0 -21 0 +39 0 *
Fa
0  1e-07 4 0
2  4
0101000
+20 0 *
Wi

0101100
+25 0 -57 0 -22 0 +38 0 *
Fa
0  1e-07 5 0
2  5
0101000
+18 0 *
Wi

0101100
+41 0 +21 0 -60 0 -26 0 *
Fa
0  1e-07 3 0
2  3
0101000
+16 0 *
Ed
 1e-07 1 1 0
1  21 0 0 2
4 C0 9 0 6 0
6  41 9 0
6  42 6 0
0

0101000
+35 0 -54 0 *
Ed
 1e-07 1 1 0
1  22 0 0 2
4 C0 9 0 8 0
6  43 9 0
6  44 8 0
0

0101000
+31 0 -50 0 *
Wi

0101100
+14 0 +48 0 -13 0 -29 0 *
Fa
0  1e-07 9 0
2  9
0101000
+12 0 *
Ed
 1e-07 1 1 0
1  23 0 0 2
4 C0 7 0 8 0
6  45 7 0
6  46 8 0
0

0101000
+33 0 -52 0 *
Ed
 1e-07 1 1 0
1  24 0 0 2
4 C0 7 0 6 0
6  47 7 0
6  48 6 0
0

0101000
+36 0 -55 0 *
Wi

0101100
+10 0 +51 0 -9 0 -32 0 *
Fa
0  1e-07 7 0
2  7
0101000
+8 0 *
Wi

0101100
+9 0 +53 0 -14 0 -34 0 *
Fa
0  1e-07 6 0
2  6
0101000
+6 0 *
Wi

0101100
+13 0 +49 0 -10 0 -30 0 *
Fa
0  1e-07 8 0
2  8
0101000
+4 0 *
Sh

0101100
+46 0 -27 0 +23 0 +19 0 +17 0 +15 0 +11 0 +7 0 +5 0 +3 0 
*
So

0100000
+2 0 *

+1 0 