DBRep_DrawableShape

CASCADE Topology V1, (c) Matra-Datavision
Locations 2
1
1.11022302462516e-16              -1               0               0 
              1 1.11022302462516e-16               0               0 
              0               0               1               0 
2  1 -1 0
Curve2ds 16
2 0 0 -1 0 0 1 5
1 0 10 1 0 
2 0 0 -1 0 0 1 10
1 0 0 1 0 
1 -5 0 -1 0 
1 -5.5511151231257827e-16 5 -1.1102230246251565e-16 1 
1 0 10 1 0 
2 0 0 1 0 -0 1 10
1 0 0 0 1 
1 1.5707963267948966 0 0 1 
2 0 0 1 0 -0 1 5
1 0 0 1 0 
1 10 0 -1 0 
1 1.1102230246251565e-15 10 -1.1102230246251565e-16 -1 
1 0 0 0 1 
1 1.5707963267948966 0 0 1 
Curves 8
2 0 0 0 0 0 1 1 0 -0 -0 1 0 5
2 0 0 0 0 0 1 1 0 -0 -0 1 0 10
1 5 0 0 1 0 0 
2 0 0 10 0 0 1 1 0 -0 -0 1 0 10
1 10 0 0 0 0 1 
2 0 0 10 0 0 1 1 0 -0 -0 1 0 5
1 10 0 10 -1 0 0 
1 5 0 10 0 0 -1 
Polygon3D 0
PolygonOnTriangulations 0
Surfaces 5
1 0 0 0 0 0 1 -1 -0 0 -0 1 0 
2 0 0 10 -0 -0 -1 1 0 0 -0 1 -0 5
2 0 0 0 0 0 1 1 0 -0 -0 1 0 10
1 0 0 10 0 0 1 1 0 -0 -0 1 0 
1 7.5 0 5 -0 -1 -0 0 0 -1 1 -0 0 
Triangulations 0

TShapes 24
Ve
1e-07
5 0 0
0 0

0101101
*
Ed
 1e-07 1 1 0
1  1 0 0 1.5707963267949
2  1 1 0 0 1.5707963267949
2  2 2 0 0 1.5707963267949
0

0101000
+24 0 -24 1 *
Ve
1e-07
10 0 0
0 0

0101101
*
Ed
 1e-07 1 1 0
1  2 0 0 1.5707963267949
2  3 1 0 0 1.5707963267949
2  4 3 0 0 1.5707963267949
0

0101000
+22 0 -22 1 *
Ed
 1e-07 1 1 0
1  3 0 0 5
2  5 1 0 0 5
2  6 1 2 0 5
0

0101000
+24 0 -22 0 *
Wi

0101100
+23 0 -21 0 -20 0 +20 1 *
Fa
0  1e-07 1 0

0101000
+19 0 *
Ve
1e-07
10 0 10
0 0

0101101
*
Ed
 1e-07 1 1 0
1  4 0 0 1.5707963267949
2  7 3 0 0 1.5707963267949
2  8 4 0 0 1.5707963267949
0

0101000
+17 0 -17 1 *
Ed
 1e-07 1 1 0
1  5 0 0 10
2  9 3 0 0 10
2  10 3 2 0 10
0

0101000
+22 0 -17 0 *
Wi

0101100
+21 0 -16 0 -15 0 +15 1 *
Fa
0  1e-07 3 0

0101000
+14 0 *
Ve
1e-07
5 0 10
0 0

0101101
*
Ed
 1e-07 1 1 0
1  6 0 0 1.5707963267949
2  11 4 0 0 1.5707963267949
2  12 2 0 0 1.5707963267949
0

0101000
+12 0 -12 1 *
Ed
 1e-07 1 1 0
1  7 0 0 5
2  13 4 0 0 5
2  14 4 2 0 5
0

0101000
+17 0 -12 0 *
Wi

0101100
+16 0 -11 0 -10 0 +10 1 *
Fa
0  1e-07 4 0

0101000
+9 0 *
Ed
 1e-07 1 1 0
1  8 0 0 10
2  15 2 0 0 10
2  16 2 2 0 10
0

0101000
+12 0 -24 0 *
Wi

0101100
+11 0 -23 0 -7 0 +7 1 *
Fa
0  1e-07 2 0

0101000
+6 0 *
Wi

0101100
+20 0 +15 0 +10 0 +7 0 *
Fa
0  1e-07 5 0

0101000
+4 0 *
Sh

0101100
+18 0 +13 0 +8 0 +5 0 +3 0 -3 1 *
So

1100000
+2 0 *

+1 0 