DBRep_DrawableShape

CASCADE Topology V1, (c) Matra-Datavision
Locations 0
Curve2ds 3
1 0 10 6.28318530718 0
2 0 25.132741228718345 0 0 1 0 4
7 1 17 19 0 0 0 6.283185307179586 0.625 6.283185307179586 1.25 6.283185307179586 1.8749999999999998 6.283185307179586 2.5 6.283185307179586 3.125 6.283185307179586 3.7499999999999996 6.283185307179586 4.375 6.283185307179586 5 6.283185307179586 5.624999999999999 6.283185307179586 6.25 6.283185307179586 6.874999999999999 6.283185307179586 7.499999999999999 6.283185307179586 8.124999999999998 6.283185307179586 8.75 6.283185307179586 9.375 6.283185307179586 10 0 0 1 2 3 4 5 6 7 8 9 10 11 12 13 14 15 16 16
Curves 2
2 0 0 10  0 0 1  1 0 0  0 1 0  4
1 0 0 0 0.371390676354 0 0.928476690885
Polygon3D 0
PolygonOnTriangulations 0
Surfaces 2
3 0 0 0 0 0 1 1 0 0 0 1 0 0
1 0 0 10 0 0 1 1 0 0 0 1 0
Triangulations 0

TShapes 10
Ve
1e-07
4 0 10
0 0

0101101
*
Ve
1e-07
0 0 0
0 0

0101101
*
Ed
 1e-07 1 0 0
2  1 0 0 6.283185307179586
4 C0 1 0 2 0
4 C0 2 0 2 0
0

0101100
+10 0 -10 0 *
Ed
 1e-07 1 1 0
1  2 0 0 10.770329614269007
4 C0 3 0 2 0
0

0101000
+10 0 -9 0 *
Wi

0101100
+8 0 +7 0 -7 0 *
Wi

0101100
+8 0 *
Fa
0  0.0001  1 0

0101000
+6 0 *
Fa
0  0.0001  2 0

0101000
+5 0 *
Sh

0101100
+4 0 +3 0 *
So

0100000
+2 0 *

+1 0
