DBRep_DrawableShape

CASCADE Topology V1, (c) Matra-Datavision
Locations 0
Curve2ds 24
1 0 0 1 0
1 0 0 1 0
1 0 0 0 -1
1 0 0 0 1
1 0 0 1 0
1 0 -10 1 0
1 10 0 0 -1
1 0 0 0 1
1 0 10 1 0
1 0 0 1 0
1 10 0 0 1
1 0 0 0 -1
1 0 10 1 0
1 0 -10 1 0
1 10 0 0 1
1 10 0 0 -1
1 0 0 0 1
1 0 0 1 0
1 10 0 0 1
1 0 0 1 0
1 0 0 0 1
1 0 10 1 0
1 10 0 0 1
1 0 10 1 0
Curves 12
1 0 0 0 0 0 1
1 0 0 0 0 1 0
1 0 10 0 0 0 1
1 0 0 10 0 1 0
1 10 0 0 0 0 1
1 10 0 0 0 1 0
1 10 10 0 0 0 1
1 10 0 10 0 1 0
1 0 0 0 1 0 0
1 0 0 10 1 0 0
1 0 10 0 1 0 0
1 0 10 10 1 0 0
Polygon3D 0
PolygonOnTriangulations 0
Surfaces 6
1 0 0 0 1 0 0 0 0 1 0 -1 0
1 10 0 0 1 0 0 0 0 1 0 -1 0
1 0 0 0 0 1 0 0 0 1 1 0 0
1 0 10 0 0 1 0 0 0 1 1 0 0
1 0 0 0 0 0 1 1 0 0 0 1 0
1 0 0 10 0 0 1 1 0 0 0 1 0
Triangulations 0

TShapes 35
Ve
0.0001
0 0 10
0 0

0101101
*
Ve
0.0001
0 0 0
0 0

0101101
*
Ve
0.0001
0 10 0
0 0

0101101
*
Ve
0.0001
0 10 10
0 0

0101101
*
Ve
0.0001
10 0 10
0 0

0101101
*
Ve
0.0001
10 0 0
0 0

0101101
*
Ve
0.0001
10 10 0
0 0

0101101
*
Ve
0.0001
10 10 10
0 0

0101101
*
Ed
 0.0001 1 1 0
1  1 0 0 10
4 C0 1 0 2 0
4 C0 2 0 2 0
0

0101000
+35 0 -34 0 *
Ed
 0.0001 1 1 0
1  2 0 0 10
4 C0 3 0 2 0
4 C0 4 0 2 0
0

0101000
+34 0 -33 0 *
Ed
 0.0001 1 1 0
1  3 0 0 10
4 C0 5 0 2 0
4 C0 6 0 2 0
0

0101000
+33 0 -32 0 *
Ed
 0.0001 1 1 0
1  4 0 0 10
4 C0 7 0 2 0
4 C0 8 0 2 0
0

0101000
+35 0 -32 0 *
Ed
 0.0001 1 1 0
1  5 0 0 10
4 C0 9 0 2 0
4 C0 10 0 2 0
0

0101000
+31 0 -30 0 *
Ed
 0.0001 1 1 0
1  6 0 0 10
4 C0 11 0 2 0
4 C0 12 0 2 0
0

0101000
+30 0 -29 0 *
Ed
 0.0001 1 1 0
1  7 0 0 10
4 C0 13 0 2 0
4 C0 14 0 2 0
0

0101000
+29 0 -28 0 *
Ed
 0.0001 1 1 0
1  8 0 0 10
4 C0 15 0 2 0
4 C0 16 0 2 0
0

0101000
+31 0 -28 0 *
Ed
 0.0001 1 1 0
1  9 0 0 10
4 C0 17 0 2 0
4 C0 18 0 2 0
0

0101000
+34 0 -30 0 *
Ed
 0.0001 1 1 0
1  10 0 0 10
4 C0 19 0 2 0
4 C0 20 0 2 0
0

0101000
+35 0 -31 0 *
Ed
 0.0001 1 1 0
1  11 0 0 10
4 C0 21 0 2 0
4 C0 22 0 2 0
0

0101000
+33 0 -29 0 *
Ed
 0.0001 1 1 0
1  12 0 0 10
4 C0 23 0 2 0
4 C0 24 0 2 0
0

0101000
+32 0 -28 0 *
Wi

0101100
+27 0 +26 0 +25 0 -24 0 *
Wi

0101100
+23 0 +22 0 +21 0 -20 0 *
Wi

0101100
-19 0 -27 0 +18 0 +23 0 *
Wi

0101100
-17 0 +25 0 +16 0 -21 0 *
Wi

0101100
-26 0 +19 0 +22 0 -17 0 *
Wi

0101100
-24 0 +18 0 +20 0 -16 0 *
Fa
0  0.0001  1 0

0101000
+15 0 *
Fa
0  0.0001  2 0

0101000
+14 0 *
Fa
0  0.0001  3 0

0101000
+13 0 *
Fa
0  0.0001  4 0

0101000
+12 0 *
Fa
0  0.0001  5 0

0101000
+11 0 *
Fa
0  0.0001  6 0

0101000
+10 0 *
Sh

0101100
-9 0 +8 0 -7 0 +6 0 -5 0 +4 0 *
So

0100000
+3 0 *
Co

1100000
+2 0 *

+1 0
