DBRep_DrawableShape

CASCADE Topology V1, (c) Matra-Datavision
Locations 0
Curve2ds 24
7 1 17 19 0 5 0 4.975923633360985 0.490085701647803 4.903926402016152 0.9754516100806412 4.784701678661044 1.4514233862723116 4.619397662556434 1.913417161825449 4.409606321741776 2.3569836841299883 4.157348061512726 2.777851165098011 3.865052266813685 3.1719664208182277 3.5355339059327378 3.5355339059327378 3.1719664208182277 3.8650522668136844 2.7778511650980113 4.157348061512726 2.356983684129989 4.409606321741775 1.9134171618254492 4.619397662556434 1.4514233862723116 4.784701678661045 0.9754516100806416 4.903926402016152 0.49008570164780385 4.975923633360984 0.0000000000000003061616997868383 5 0 0 1 2 3 4 5 6 7 8 9 10 11 12 13 14 15 16 16
1 0 10 4.712388980385 0
1 0 5 0 5
1 5 -2.5 0 5
1 0 0 1.570796326795 0
7 1 17 19 0 10 0 9.95184726672197 0.980171403295606 9.807852804032304 1.9509032201612824 9.569403357322088 2.902846772544623 9.238795325112868 3.826834323650898 8.819212643483551 4.7139673682599765 8.314696123025453 5.555702330196022 7.73010453362737 6.343932841636455 7.0710678118654755 7.0710678118654755 6.343932841636455 7.730104533627369 5.555702330196023 8.314696123025453 4.713967368259978 8.81921264348355 3.8268343236508984 9.238795325112868 2.902846772544623 9.56940335732209 1.9509032201612833 9.807852804032304 0.9801714032956077 9.951847266721968 0.0000000000000006123233995736766 10 0 0 1 2 3 4 5 6 7 8 9 10 11 12 13 14 15 16 16
1 5 -2.5 0 5
1 5 0 5 0
7 1 17 19 0 0.7853981633974482 5 0.9817477042468101 5 1.1780972450961724 5 1.3744467859455345 5 1.5707963267948966 5 1.7671458676442586 5 1.9634954084936207 5 2.1598449493429825 5 2.356194490192345 5 2.5525440310417067 5 2.748893571891069 5 2.9452431127404304 5 3.141592653589793 5 0.1963495408493623 5 0.3926990816987239 5 0.5890486225480859 5 0.7853981633974482 5 0 0 1 2 3 4 5 6 7 8 9 10 11 12 13 14 15 16 16
7 1 17 19 0 0 2.500000000000001 0 6.326834323650899 0 9.571067811865476 0 11.738795325112868 0 12.5 0 11.738795325112868 0 9.571067811865476 0 6.326834323650899 0 2.500000000000001 -0 -1.3268343236508973 -0 -4.5710678118654755 -0 -6.738795325112864 -0 -7.5 0 -6.738795325112866 0 -4.571067811865476 0 -1.326834323650903 0 2.499999999999999 0 0 1 2 3 4 5 6 7 8 9 10 11 12 13 14 15 16 16
7 1 17 19 0 10 0 9.95184726672197 0.980171403295606 9.807852804032304 1.9509032201612824 9.569403357322088 2.902846772544623 9.238795325112868 3.826834323650898 8.819212643483551 4.7139673682599765 8.314696123025453 5.555702330196022 7.73010453362737 6.343932841636455 7.0710678118654755 7.0710678118654755 6.343932841636455 7.730104533627369 5.555702330196023 8.314696123025453 4.713967368259978 8.81921264348355 3.8268343236508984 9.238795325112868 2.902846772544623 9.56940335732209 1.9509032201612833 9.807852804032304 0.9801714032956077 9.951847266721968 0.0000000000000006123233995736766 10 0 0 1 2 3 4 5 6 7 8 9 10 11 12 13 14 15 16 16
1 0 10 1.570796326795 0
7 1 17 19 0 0 12.5 0 11.738795325112868 0 9.571067811865476 0 6.326834323650898 0 2.5 0 -1.326834323650897 0 -4.571067811865475 0 -6.738795325112868 0 -7.5 -0 -6.738795325112868 -0 -4.571067811865477 -0 -1.3268343236509033 0 2.4999999999999982 0 6.3268343236509 0 9.571067811865476 0 11.738795325112864 0 12.5 0 0 1 2 3 4 5 6 7 8 9 10 11 12 13 14 15 16 16
1 0 5 6.28318530718 0
1 0 10 0 -5
1 -5 2.5 0 -5
7 1 17 19 0 5 0 4.975923633360985 0.490085701647803 4.903926402016152 0.9754516100806412 4.784701678661044 1.4514233862723116 4.619397662556434 1.913417161825449 4.409606321741776 2.3569836841299883 4.157348061512726 2.777851165098011 3.865052266813685 3.1719664208182277 3.5355339059327378 3.5355339059327378 3.1719664208182277 3.8650522668136844 2.7778511650980113 4.157348061512726 2.356983684129989 4.409606321741775 1.9134171618254492 4.619397662556434 1.4514233862723116 4.784701678661045 0.9754516100806416 4.903926402016152 0.49008570164780385 4.975923633360984 0.0000000000000003061616997868383 5 0 0 1 2 3 4 5 6 7 8 9 10 11 12 13 14 15 16 16
1 0 0 4.712388980385 0
1 -5 2.5 0 -5
1 10 0 -5 0
7 1 17 19 0 0 -2.4999999999999996 0 -4.413417161825448 0 -6.035533905932738 0 -7.119397662556434 0 -7.5 -0 -7.119397662556434 -0 -6.035533905932738 -0 -4.413417161825451 -0 -2.5000000000000013 -0 -0.5865828381745525 0 1.0355339059327373 0 2.119397662556432 0 2.5 0 2.119397662556434 0 1.0355339059327382 0 -0.5865828381745478 0 -2.4999999999999987 0 0 1 2 3 4 5 6 7 8 9 10 11 12 13 14 15 16 16
7 1 17 19 0 5.497787143782138 5 5.6941366846315 5 5.890486225480862 5 6.086835766330224 5 0 5 3.3379421944391554 5 3.5342917352885173 5 3.730641276137879 5 3.9269908169872414 5 4.123340357836604 5 4.319689898685965 5 4.516039439535327 5 4.71238898038469 5 4.908738521234052 5 5.105088062083414 5 5.301437602932776 5 5.497787143782138 5 0 0 1 2 3 4 5 6 7 8 9 10 11 12 13 14 15 16 16
7 1 17 19 0 0 2.5 0 2.119397662556434 0 1.0355339059327378 -0 -0.586582838174551 -0 -2.5 -0 -4.413417161825448 -0 -6.035533905932738 -0 -7.119397662556434 -0 -7.5 0 -7.119397662556434 0 -6.035533905932739 0 -4.413417161825452 0 -2.500000000000001 0 -0.5865828381745501 0 1.0355339059327378 0 2.119397662556432 0 2.5 0 0 1 2 3 4 5 6 7 8 9 10 11 12 13 14 15 16 16
1 0 5 6.28318530718 0
Curves 12
2 0 0 0  0 0 1  1 0 0  0 1 0  5
1 0 5 0 0 1 0
2 0 0 0  0 0 1  1 0 0  0 1 0  10
1 5 0 0 1 0 0
2 0.000000000000001110223024625 10 5  0 0 1  1 0 0  0 1 0  10
2 0 0 10  0 0 1  1 0 0  0 1 0  10
2 10 0 5  0 0 1  1 0 0  0 1 0  10
1 0 10 10 0 -1 0
2 0 0 10  0 0 1  1 0 0  0 1 0  5
1 10 0 10 -1 0 0
2 0.0000000000000005551115123126 5 5  -0 -0 -1  1 0 -0  0 -1 0  5
2 5 0 5  -0 -0 -1  1 0 -0  0 -1 0  5
Polygon3D 0
PolygonOnTriangulations 0
Surfaces 6
1 0 0 0 0 0 1 1 0 0 0 1 0
2 0 0 0 0 0 1 1 0 0 0 1 0 10
1 0 0 10 0 0 1 1 0 0 0 1 0
2 0 0 10 -0 -0 -1 1 0 -0 0 -1 0 5
1 7.5 0 5 0 -1 0 0 0 -1 1 0 0
1 0 7.5 5 1 0 0 0 0 -1 0 1 0
Triangulations 0

TShapes 34
Ve
1e-07
5 0 0
0 0

0101101
*
Ve
1e-07
0 5 0
0 0

0101101
*
Ve
1e-07
0 10 0
0 0

0101101
*
Ve
1e-07
10 0 0
0 0

0101101
*
Ve
1e-07
0 10 10
0 0

0101101
*
Ve
1e-07
10 0 10
0 0

0101101
*
Ve
1e-07
0 5 10
0 0

0101101
*
Ve
1e-07
5 0 10
0 0

0101101
*
Ed
 1e-07 1 1 0
2  1 0 0 1.5707963267948966
4 C0 1 0 2 0
4 C0 2 0 2 0
0

0101000
+34 0 -33 0 *
Ed
 1e-07 1 1 0
1  2 0 0 5
4 C0 3 0 2 0
4 C0 4 0 2 0
0

0101000
+33 0 -32 0 *
Ed
 1e-07 1 1 0
2  3 0 0 1.5707963267948966
4 C0 5 0 2 0
4 C0 6 0 2 0
0

0101000
+32 0 -31 0 *
Ed
 1e-07 1 1 0
1  4 0 0 5
4 C0 7 0 2 0
4 C0 8 0 2 0
0

0101000
+34 0 -31 0 *
Ed
 1e-07 1 1 0
2  5 0 0 6.283185307179586
4 C0 9 0 2 0
4 C0 10 0 2 0
0

0101000
+32 0 -30 0 *
Ed
 1e-07 1 1 0
2  6 0 0 1.5707963267948966
4 C0 11 0 2 0
4 C0 12 0 2 0
0

0101000
+30 0 -29 0 *
Ed
 1e-07 1 1 0
2  7 0 0 6.283185307179586
4 C0 13 0 2 0
4 C0 14 0 2 0
0

0101000
+31 0 -29 0 *
Ed
 1e-07 1 1 0
1  8 0 0 5
4 C0 15 0 2 0
4 C0 16 0 2 0
0

0101000
+30 0 -28 0 *
Ed
 1e-07 1 1 0
2  9 0 0 1.5707963267948966
4 C0 17 0 2 0
4 C0 18 0 2 0
0

0101000
+28 0 -27 0 *
Ed
 1e-07 1 1 0
1  10 0 0 5
4 C0 19 0 2 0
4 C0 20 0 2 0
0

0101000
+29 0 -27 0 *
Ed
 1e-07 1 1 0
2  11 0 0 6.283185307179586
4 C0 21 0 2 0
4 C0 22 0 2 0
0

0101000
+33 0 -28 0 *
Ed
 1e-07 1 1 0
2  12 0 0 6.283185307179586
4 C0 23 0 2 0
4 C0 24 0 2 0
0

0101000
+34 0 -27 0 *
Wi

0101100
+26 0 +25 0 +24 0 -23 0 *
Wi

0101100
-24 0 +22 0 +21 0 -20 0 *
Wi

0101100
-21 0 +19 0 +18 0 -17 0 *
Wi

0101100
-18 0 -16 0 -26 0 +15 0 *
Wi

0101100
+23 0 +20 0 +17 0 -15 0 *
Wi

0101100
+25 0 +22 0 +19 0 -16 0 *
Fa
0  0.0001  1 0

0101000
+14 0 *
Fa
0  0.0001  2 0

0101000
+13 0 *
Fa
0  0.0001  3 0

0101000
+12 0 *
Fa
0  0.0001  4 0

0101000
+11 0 *
Fa
0  0.0001  5 0

0101000
+10 0 *
Fa
0  0.0001  6 0

0101000
+9 0 *
Sh

0101100
-8 0 +7 0 +6 0 +5 0 +4 0 -3 0 *
So

0100000
+2 0 *

+1 0
