DBRep_DrawableShape

CASCADE Topology V1, (c) Matra-Datavision
Locations 0
Curve2ds 4
7 1 17 19 0 0 3.141592653589793 5.890486225480862 3.141592653589793 5.497787143782138 3.141592653589793 5.105088062083414 3.141592653589793 4.71238898038469 3.141592653589793 4.319689898685965 3.141592653589793 3.9269908169872414 3.141592653589793 3.5342917352885173 3.141592653589793 3.1415926535897936 3.141592653589793 2.748893571891069 3.141592653589793 2.356194490192345 3.141592653589793 1.9634954084936207 3.141592653589793 1.5707963267948966 3.141592653589793 1.1780972450961724 3.141592653589793 0.7853981633974483 3.141592653589793 0.39269908169872414 3.141592653589793 0.00000000000000024492935982947064 3.141592653589793 0 0 1 2 3 4 5 6 7 8 9 10 11 12 13 14 15 16 16
7 1 17 19 0 0 0 6.283185307179586 0.39269908169872425 6.283185307179586 0.7853981633974481 0 1.1780972450961724 0 1.5707963267948966 0 1.9634954084936207 0 2.356194490192345 0 2.7488935718910694 0 3.141592653589793 0 3.5342917352885173 0 3.9269908169872414 0 4.319689898685965 0 4.71238898038469 0 5.105088062083414 0 5.497787143782138 0 5.890486225480862 0 6.283185307179586 0 0 1 2 3 4 5 6 7 8 9 10 11 12 13 14 15 16 16
1 0 -0.0001 0 6.28338530718
1 -0.0001 0 6.28338530718 0
Curves 4
2 0 0 -0.0000000000000002449293598295  0 0 1  1 0 0  0 1 0  8
2 10 0 0  -0 1 0  1 0 0  0 0 -1  2
7 1  49  51  0  11.99999999 0 0.00019999999966666666  11.982914731162301 0 -0.26086235630987453  11.93189909461988 0 -0.5174610016290042  11.847826027549699 0 -0.7652051828822762  11.73213413488805 0 -0.9998556589606473  11.586803062836397 0 -1.2173972399233652  11.414319624412698 0 -1.4141074923785408  11.217635246686179 0 -1.5866204353995592  11.000115467831531 0 -1.731984137053258  10.76548234817681 0 -1.8477112259846544  10.517750780670674 0 -1.9318214537360607  10.261159790583733 0 -1.9828755795012105  10.000099999999959 0 -1.9999999975  9.739038498279687 0 -1.9829016855658474  9.482442404063132 0 -1.9318732191549344  9.234702426772891 0 -1.8477877649807888  9.000057735582464 0 -1.7320841399399545  8.782523421445273 0 -1.5867421909909234  8.585821793407902 0 -1.4142489172702095  8.413318684821409 0 -1.217555914142399  8.267965859338352 0 -1.00002886737457  8.152250502207592 0 -0.7653899616586984  8.068152661139694 0 -0.5176541889508404  8.01711136498786 0 -0.26106064647834964  8 0 -0.000000000000001133107779529596  8.01711136498786 0 0.26106064647834915  8.068152661139692 0 0.5176541889508373  8.152250502207592 0 0.7653899616586954  8.26796585933835 0 1.000028867374569  8.413318684821405 0 1.2175559141423966  8.5858217934079 0 1.4142489172702073  8.782523421445273 0 1.5867421909909225  9.000057735582462 0 1.7320841399399538  9.234702426772891 0 1.8477877649807883  9.48244240406313 0 1.9318732191549342  9.739038498279687 0 1.9829016855658474  10.000099999999957 0 1.9999999975  10.261159790583731 0 1.9828755795012105  10.517750780670674 0 1.931821453736061  10.76548234817681 0 1.8477112259846549  11.00011546783153 0 1.7319841370532585  11.217635246686179 0 1.5866204353995599  11.414319624412698 0 1.4141074923785415  11.586803062836397 0 1.217397239923366  11.73213413488805 0 0.9998556589606482  11.847826027549699 0 0.7652051828822771  11.93189909461988 0 0.5174610016290051  11.982914731162301 0 0.2608623563098755  11.99999999 0 -0.0001999999996657107 0 0 1 2 3 4 5 6 7 8 9 10 11 12 13 14 15 16 17 18 19 20 21 22 23 24 25 26 27 28 29 30 31 32 33 34 35 36 37 38 39 40 41 42 43 44 45 46 47 48 48
7 1  49  51  0  11.99999994 0.001199999998 0  11.897488386973805 -1.5651741378592472 0  11.591394567719274 -3.1047660097740253 0  11.086956165298197 -4.591231097293657 0  10.392804809328293 -5.999133953763884 0  9.520818377018387 -7.304383439540191 0  8.485917746476188 -8.484644954271245 0  7.305811480117077 -9.519722612397356 0  6.000692806989182 -10.391904822319548 0  4.592894089060868 -11.086267355907927 0  3.1065046840240473 -11.590928722416365 0  1.566958743502394 -11.897253477007263 0  0.000599999999752001 -11.999999985 0  -1.5657690103218758 -11.897410113395084 0  -3.10534557562121 -11.591239314929606 0  -4.591785439362651 -11.086726589884734 0  -5.999653586505213 -10.392504839639727 0  -7.304859471328361 -9.52045314594554 0  -8.485069239552582 -8.485493503621257 0  -9.520087891071553 -7.305335484854394 0  -10.392204843969889 -6.000173204247421 0  -11.086496986754447 -4.592339769952191 0  -11.591084033161838 -3.105925133705042 0  -11.897331810072837 -1.566363878870098 0  -12 -0.0000000000000067986466771775755 0  -11.897331810072838 1.5663638788700949 0  -11.591084033161843 3.1059251337050235 0  -11.086496986754454 4.592339769952172 0  -10.392204843969894 6.000173204247414 0  -9.520087891071565 7.30533548485438 0  -8.485069239552594 8.485493503621244 0  -7.304859471328367 9.520453145945535 0  -5.99965358650522 10.392504839639724 0  -4.591785439362656 11.08672658988473 0  -3.1053455756212163 11.591239314929606 0  -1.5657690103218842 11.897410113395084 0  0.0005999999997463974 11.999999985 0  1.5669587435023884 11.897253477007263 0  3.106504684024042 11.590928722416365 0  4.592894089060863 11.086267355907928 0  6.000692806989178 10.391904822319551 0  7.305811480117072 9.51972261239736 0  8.485917746476185 8.48464495427125 0  9.520818377018381 7.304383439540196 0  10.392804809328291 5.99913395376389 0  11.086956165298194 4.5912310972936625 0  11.591394567719272 3.1047660097740306 0  11.897488386973805 1.5651741378592527 0  11.99999994 -0.0011999999979942643 0 0 0 1 2 3 4 5 6 7 8 9 10 11 12 13 14 15 16 17 18 19 20 21 22 23 24 25 26 27 28 29 30 31 32 33 34 35 36 37 38 39 40 41 42 43 44 45 46 47 48 48
Polygon3D 0
PolygonOnTriangulations 0
Surfaces 1
5 0 0 0 -0 -0 -1 1 0 -0 0 -1 0 10 2
Triangulations 0

TShapes 13
Ve
1e-07
8 0 0
0 0

0101101
*
Ve
1e-07
11.99999999 0 0.0002
0 0

0101101
*
Ve
1e-07
11.99999999 0 -0.0002
0 0

0101101
*
Ve
1e-07
11.99999994 0.001199999998 0
0 0

0101101
*
Ve
1e-07
11.99999994 -0.001199999998 0
0 0

0101101
*
Ed
 1e-07 1 0 0
2  1 0 0 6.283185307179586
4 C0 1 0 2 0
0

0101100
+13 0 -13 0 *
Ed
 1e-07 1 0 0
2  2 0 0 6.283185307179586
4 C0 2 0 2 0
0

0101100
+13 0 -13 0 *
Ed
 1e-07 1 1 0
7  3 0 0 1
4 C0 3 0 2 0
0

0101000
+12 0 -11 0 *
Ed
 1e-07 1 1 0
7  4 0 0 1
4 C0 4 0 2 0
0

0101000
+10 0 -9 0 *
Wi

0101100
+8 0 +7 0 +8 0 +7 0 +6 0 +5 0 *
Fa
0  0.0001  1 0

0101000
+4 0 *
Sh

0101100
+3 0 *
So

0100000
+2 0 *

+1 0
