DBRep_DrawableShape

CASCADE Topology V1, (c) Matra-Datavision
Locations 0
Curve2ds 48
1 0 0 10 0
1 0 2 10 0
1 0 2 10 0
1 10 0 0 10
1 10 -2 -10 0
1 10 10 -10 0
1 0 10 0 -10
1 10 -2 -10 0
1 3 -2 4 0
1 3 3 4 0
1 3 -2 4 0
1 7 3 0 4
1 7 7 -4 0
1 7 2 -4 0
1 7 2 -4 0
1 3 7 0 -4
1 0 0 10 0
1 0 0 10 0
1 0 0 10 0
1 10 0 0 10
1 10 10 -10 0
1 10 0 -10 0
1 0 10 0 -10
1 10 0 -10 0
1 3 0 4 0
1 3 3 4 0
1 3 0 4 0
1 7 3 0 4
1 7 7 -4 0
1 7 0 -4 0
1 3 7 0 -4
1 7 0 -4 0
1 10 0 0 2
1 0 0 0 2
1 0 0 0 -2
1 0 0 0 2
1 10 0 0 2
1 10 0 0 -2
1 0 0 0 -2
1 10 0 0 -2
1 3 0 0 -2
1 7 0 0 -2
1 3 0 0 2
1 3 0 0 -2
1 3 0 0 2
1 7 0 0 2
1 7 0 0 2
1 7 0 0 -2
Curves 24
1 0 0 2 1 0 0
1 10 0 2 0 1 0
1 10 10 2 -1 0 0
1 0 10 2 0 -1 0
1 3 3 2 1 0 0
1 7 3 2 0 1 0
1 7 7 2 -1 0 0
1 3 7 2 0 -1 0
1 0 0 0 1 0 0
1 10 0 0 0 1 0
1 10 10 0 -1 0 0
1 0 10 0 0 -1 0
1 3 3 0 1 0 0
1 7 3 0 0 1 0
1 7 7 0 -1 0 0
1 3 7 0 0 -1 0
1 10 0 0 0 0 1
1 0 0 0 0 0 1
1 10 10 0 0 0 1
1 0 10 0 0 0 1
1 7 3 0 0 0 1
1 3 3 0 0 0 1
1 3 7 0 0 0 1
1 7 7 0 0 0 1
Polygon3D 0
PolygonOnTriangulations 0
Surfaces 10
1 0 0 2 0 0 1 1 0 0 0 1 0
1 0 0 0 0 0 1 1 0 0 0 1 0
1 0 0 0 0 -1 0 1 0 0 0 0 1
1 0 10 0 0 1 0 1 0 0 0 0 -1
1 0 0 0 -1 0 0 0 1 0 0 0 -1
1 10 0 0 1 0 0 0 1 0 0 0 1
1 0 3 0 0 1 0 1 0 0 0 0 -1
1 0 7 0 0 -1 0 1 0 0 0 0 1
1 3 0 0 1 0 0 0 1 0 0 0 1
1 7 0 0 -1 0 0 0 1 0 0 0 -1
Triangulations 0

TShapes 64
Ve
1e-07
0 0 2
0 0

0101101
*
Ve
1e-07
10 0 2
0 0

0101101
*
Ve
1e-07
10 10 2
0 0

0101101
*
Ve
1e-07
0 10 2
0 0

0101101
*
Ve
1e-07
3 3 2
0 0

0101101
*
Ve
1e-07
7 3 2
0 0

0101101
*
Ve
1e-07
7 7 2
0 0

0101101
*
Ve
1e-07
3 7 2
0 0

0101101
*
Ve
1e-07
0 0 0
0 0

0101101
*
Ve
1e-07
10 0 0
0 0

0101101
*
Ve
1e-07
10 10 0
0 0

0101101
*
Ve
1e-07
0 10 0
0 0

0101101
*
Ve
1e-07
3 3 0
0 0

0101101
*
Ve
1e-07
7 3 0
0 0

0101101
*
Ve
1e-07
7 7 0
0 0

0101101
*
Ve
1e-07
3 7 0
0 0

0101101
*
Ed
 1e-07 1 1 0
1  1 0 0 1
4 C0 1 0 2 0
4 C0 2 0 2 0
0

0101000
+64 0 -63 0 *
Ed
 1e-07 1 1 0
1  2 0 0 1
4 C0 3 0 2 0
4 C0 4 0 2 0
0

0101000
+63 0 -62 0 *
Ed
 1e-07 1 1 0
1  3 0 0 1
4 C0 5 0 2 0
4 C0 6 0 2 0
0

0101000
+62 0 -61 0 *
Ed
 1e-07 1 1 0
1  4 0 0 1
4 C0 7 0 2 0
4 C0 8 0 2 0
0

0101000
+64 0 -61 0 *
Ed
 1e-07 1 1 0
1  5 0 0 1
4 C0 9 0 2 0
4 C0 10 0 2 0
0

0101000
+60 0 -59 0 *
Ed
 1e-07 1 1 0
1  6 0 0 1
4 C0 11 0 2 0
4 C0 12 0 2 0
0

0101000
+59 0 -58 0 *
Ed
 1e-07 1 1 0
1  7 0 0 1
4 C0 13 0 2 0
4 C0 14 0 2 0
0

0101000
+58 0 -57 0 *
Ed
 1e-07 1 1 0
1  8 0 0 1
4 C0 15 0 2 0
4 C0 16 0 2 0
0

0101000
+60 0 -57 0 *
Ed
 1e-07 1 1 0
1  9 0 0 1
4 C0 17 0 2 0
4 C0 18 0 2 0
0

0101000
+56 0 -55 0 *
Ed
 1e-07 1 1 0
1  10 0 0 1
4 C0 19 0 2 0
4 C0 20 0 2 0
0

0101000
+55 0 -54 0 *
Ed
 1e-07 1 1 0
1  11 0 0 1
4 C0 21 0 2 0
4 C0 22 0 2 0
0

0101000
+54 0 -53 0 *
Ed
 1e-07 1 1 0
1  12 0 0 1
4 C0 23 0 2 0
4 C0 24 0 2 0
0

0101000
+56 0 -53 0 *
Ed
 1e-07 1 1 0
1  13 0 0 1
4 C0 25 0 2 0
4 C0 26 0 2 0
0

0101000
+52 0 -51 0 *
Ed
 1e-07 1 1 0
1  14 0 0 1
4 C0 27 0 2 0
4 C0 28 0 2 0
0

0101000
+51 0 -50 0 *
Ed
 1e-07 1 1 0
1  15 0 0 1
4 C0 29 0 2 0
4 C0 30 0 2 0
0

0101000
+50 0 -49 0 *
Ed
 1e-07 1 1 0
1  16 0 0 1
4 C0 31 0 2 0
4 C0 32 0 2 0
0

0101000
+52 0 -49 0 *
Ed
 1e-07 1 1 0
1  17 0 0 1
4 C0 33 0 2 0
4 C0 34 0 2 0
0

0101000
+63 0 -55 0 *
Ed
 1e-07 1 1 0
1  18 0 0 1
4 C0 35 0 2 0
4 C0 36 0 2 0
0

0101000
+64 0 -56 0 *
Ed
 1e-07 1 1 0
1  19 0 0 1
4 C0 37 0 2 0
4 C0 38 0 2 0
0

0101000
+62 0 -54 0 *
Ed
 1e-07 1 1 0
1  20 0 0 1
4 C0 39 0 2 0
4 C0 40 0 2 0
0

0101000
+61 0 -53 0 *
Ed
 1e-07 1 1 0
1  21 0 0 1
4 C0 41 0 2 0
4 C0 42 0 2 0
0

0101000
+59 0 -51 0 *
Ed
 1e-07 1 1 0
1  22 0 0 1
4 C0 43 0 2 0
4 C0 44 0 2 0
0

0101000
+60 0 -52 0 *
Ed
 1e-07 1 1 0
1  23 0 0 1
4 C0 45 0 2 0
4 C0 46 0 2 0
0

0101000
+57 0 -49 0 *
Ed
 1e-07 1 1 0
1  24 0 0 1
4 C0 47 0 2 0
4 C0 48 0 2 0
0

0101000
+58 0 -50 0 *
Wi

0101100
+48 0 +47 0 +46 0 -45 0 *
Wi

0101100
+44 0 +43 0 +42 0 -41 0 *
Wi

0101100
+40 0 +39 0 +38 0 -37 0 *
Wi

0101100
+36 0 +35 0 +34 0 -33 0 *
Wi

0101100
+40 0 -32 0 -48 0 +31 0 *
Wi

0101100
-38 0 -30 0 +46 0 -29 0 *
Wi

0101100
+37 0 -29 0 -45 0 -31 0 *
Wi

0101100
+39 0 -30 0 -47 0 +32 0 *
Wi

0101100
+36 0 -28 0 -44 0 +27 0 *
Wi

0101100
+34 0 -26 0 -42 0 +25 0 *
Wi

0101100
-33 0 -27 0 +41 0 +26 0 *
Wi

0101100
+35 0 -25 0 -43 0 +28 0 *
Fa
0  0.0001  1 0

0101000
+24 0 -23 0 *
Fa
0  0.0001  2 0

0101000
+22 0 -21 0 *
Fa
0  0.0001  3 0

0101000
+20 0 *
Fa
0  0.0001  4 0

0101000
+19 0 *
Fa
0  0.0001  5 0

0101000
+18 0 *
Fa
0  0.0001  6 0

0101000
+17 0 *
Fa
0  0.0001  7 0

0101000
+16 0 *
Fa
0  0.0001  8 0

0101000
+15 0 *
Fa
0  0.0001  9 0

0101000
+14 0 *
Fa
0  0.0001  10 0

0101000
+13 0 *
Sh

0101100
+12 0 -11 0 +10 0 +9 0 +8 0 +7 0 -6 0 -5 0 -4 0 -3 0 *
So

0100000
+2 0 *

+1 0
