DBRep_DrawableShape

CASCADE Topology V1, (c) Matra-Datavision
Locations 0
Curve2ds 28
1 0 0 0.8915779 0
1 1 0 0 6.2831853
1 0 0 0 6.2831853
7 1 17 19 0 0 0.000000000000002236719966425 0.8340914927525045 28.44417872891093 74.28216811182105 12.43382577869099 1.5087221074562727 57.71930972294002 2.6630783715773334 37.95072531368949 113.09733552923 43.87400774188498 0.8835729338221093 46.38757902566074 0 51.24723016168234 0.6809910068895332 50.94945828922896 0 61.850105367547656 0.8835729338221093 66.70975650356925 78.93343923109367 74.62862294626372 86.57373499742657 71.58151708583237 21.612461299725208 79.47117331268402 43.19927390693499 90.86191139846983 10.697255475552716 101.76047763116762 0 0.000000000000002236719966425 0 0 1 2 3 4 5 6 7 8 9 10 11 12 13 14 15 16 16
1 0 0.8915779 6.2831853 0
1 0 0 113.0973355 0
7 1 17 19 0 113.09733552923 0.000000000000002236719966425 74.66191290796824 16.346099275709026 74.66191290796823 24.740042147019064 74.66191290796823 31.366839150684886 20.751175781955634 37.0907745554949 86.59014751456671 41.52792788963914 110.00483026085261 46.38757902566074 113.09733552923 51.24723016168234 45.92944243974722 66.09828794399901 113.09733552923 61.850105367547656 110.00483026085261 66.70975650356925 86.59014751456671 71.56940763959085 1.8933344921291821 58.72263663777382 74.66191290796823 81.73049637854511 74.66191290796823 88.35729338221093 74.66191290796824 96.75123625352097 113.09733552923 0.000000000000002236719966425 0 0 1 2 3 4 5 6 7 8 9 10 11 12 13 14 15 16 16
7 1 17 19 0 16.245488691271 0 10.56049712158659 13.681196036779234 3.287708578779117 17.19118548472476 -2.9716301626706576 17.18944892632633 -7.870997561356515 15.338433573537467 -11.434483127167029 12.449713289270761 -13.801109599718426 8.865541208625935 -15.134396219350528 4.6602873187223635 -15.562634321622824 0.00000000000023621066176171893 -15.134396219350496 -4.660287318721831 -13.80110959971822 -8.865541208625212 -11.43448312716636 -12.449713289269432 -7.870997561355373 -15.338433573534989 -2.9716301626699417 -17.18944892632302 3.2877085787790556 -17.191185484721508 10.56049712158706 -13.6811960367765 16.245488691271 0 0 0 1 2 3 4 5 6 7 8 9 10 11 12 13 14 15 16 16
1 0 0 0 6.2831853
1 1 0 0 6.2831853
1 0 0 1 0
7 1 17 19 0 14.5669350965 0.0000000563290343147 9.558680042329785 -11.254109819298462 4.441099186287141 -13.932740654806516 -1.0359169546401832 -14.436566017388246 -5.620894299046571 -13.595454418206964 -9.213564472463657 -11.584070067066264 -12.047481018026922 -8.582615696805044 -13.84790386459296 -4.870978129649878 -14.461326409666121 0.000003690310967342984 -13.847951466548661 4.870795190997946 -12.047619074235284 8.582580686365784 -9.213382621826614 11.584079528912463 -5.621048511659119 13.595415423862146 -1.03584409496194 14.436571800744227 4.440993833462124 13.93276267444181 9.558888967717298 11.253977559936995 14.5669350965 0.0000000563290343147 0 0 1 2 3 4 5 6 7 8 9 10 11 12 13 14 15 16 16
7 1 17 19 0 0 81.681409049809 0 11.167380143528574 0 22.179019012551564 0 20.998789049491045 81.681409049809 81.681409049809 0 29.035188373174293 0 32.864004422384085 0 61.87059725273533 3.828816049209797 40.8407045249045 0 42.56012202819907 0 48.81740462742492 0 52.646220676634705 81.681409049809 81.681409049809 4.147884053310614 60.3038527750543 81.681409049809 81.681409049809 0 70.51402890628043 0 81.681409049809 0 0 1 2 3 4 5 6 7 8 9 10 11 12 13 14 15 16 16
1 0 0 0 6.2831853
2 0 125.66370614359172 0 0 1 0 20
1 0 0 1 0
1 0 0 81.681409 0
7 1 17 19 0 81.681409049809 0.000000001722414264013769 80.72420503750655 11.167380143528574 81.36234104570819 16.272468209141635 81.681409049809 21.3775562747547 81.04327304160736 25.525440328065315 80.72420503750655 29.035188373174293 80.72420503750655 32.864004422384085 81.04327304160738 36.37375246749308 81.681409049809 40.8407045249045 81.04327304160738 45.30765658231593 80.72420503750655 48.81740462742492 80.72420503750655 52.646220676634705 81.04327304160736 56.15596872174369 81.681409049809 60.3038527750543 81.36234104570819 65.40894084066736 80.72420503750655 70.51402890628043 81.681409049809 81.681409049809 0 0 1 2 3 4 5 6 7 8 9 10 11 12 13 14 15 16 16
1 6.2831853 0.8760883 -6.2831853 0
1 0 0.0771308 0 0.6057947
7 1 17 19 0 0 -0.002357753850135987 0.04486893804565797 -0.002357753850135987 0.09012137128828737 -0.002357753850135987 0.13499030933394532 -0.002357753850135987 0.18024274257657474 -0.002357753850135987 0.22511168062223266 -0.002357753850135987 0.2703641138648621 -0.002357753850135987 0.31561654710749154 -0.002357753850135987 0.36086898035012094 -0.002357753850135987 0.4061214135927503 -0.002357753850135987 0.7819467066247571 -0.002357753850135987 0.49739327047195203 -0.002357753850135987 0.5430291989115528 -0.002357753850135987 0.5890486225481251 -0.002357753850135987 0.7953690385187574 0.000025477823160155802 0.8521263276705296 0.000025477823160155802 1.237539000626823 -0.0023577538501359865 0 0 1 2 3 4 5 6 7 8 9 10 11 12 13 14 15 16 16
1 1 6.2831853 0 -5.2831853
1 0 0 0 1
1 1 0 0 1
1 0 6.2831853 1 0
2 0 125.66370614359172 0 0 1 0 20
1 0.1916488 0 0 6.2831853
1 0.1916488 6.2831853 0.8083512 0
Curves 18
7 3  4  2  0  15 0 75  15 0 93.884517468021  18 0 93.705160843993  18 0 100 0 1 4 4
2 0 0 75  0 0 1  1 0 0  0 1 0  15
7 10  20  11  0  17.901849016043 0 98.148270499951  17.901849016042 5.542676159605 98.148270499951  15.994804783754 11.169390860665 98.148270499951  12.085601462411 16.090806544317 98.148270499951  6.481172810575 19.443481394147 98.14827049995  -0.004631900833011 20.585804625459 98.148270499951  -6.466167511079 19.416036336738 98.14827049995  -12.01337010672 16.100089584895 98.148270499951  -15.93851421449 11.248232701208 98.148270499951  -17.90184901604 5.624031735448 98.148270499951  -17.90184901604 -5.624031735448 98.148270499951  -15.93851421449 -11.2482327012 98.148270499951  -12.01337010672 -16.10008958489 98.148270499951  -6.466167511074 -19.41603633673 98.14827049995  -0.004631900834968 -20.58580462545 98.148270499951  6.481172810574 -19.44348139414 98.14827049995  12.085601462414 -16.09080654431 98.148270499951  15.994804783753 -11.16939086066 98.148270499951  17.901849016043 -5.542676159605 98.148270499951  17.901849016043 -0.000000000000004384688419263 98.148270499951 0 0.1 0.2 0.3 0.4 0.5 0.6 0.7 0.8 0.9 1 11 1 1 1 1 1 1 1 1 1 11
7 2  3  2  0  17.901849016043 0 98.148270499951  18.108740175419 -0.000000000000001981054209566 100  16.245488691271 0 100 0 1 3 3
7 10  20  11  0  16.245488691271 0 100  16.245488691271 5.029842603943 100  14.514892847141 10.135948122047 100  10.967386760377 14.602012089078 100  5.881505285069 17.644482244517 100  -0.00420333634364 18.68111254563 100  -5.86788834399 17.619576528388 100  -10.90183857756 14.610436220608 100  -14.46381053684 10.207495157652 100  -16.24548869127 5.103670792648 100  -16.24548869127 -5.103670792648 100  -14.46381053684 -10.20749515765 100  -10.90183857756 -14.61043622061 100  -5.867888343986 -17.61957652838 100  -0.004203336344637 -18.68111254563 100  5.881505285067 -17.64448224451 100  10.96738676038 -14.60201208908 100  14.51489284714 -10.13594812204 100  16.245488691271 -5.029842603943 100  16.245488691271 0 100 0 0.1 0.2 0.3 0.4 0.5 0.6 0.7 0.8 0.9 1 11 1 1 1 1 1 1 1 1 1 11
2 0 0 25  0 0 1  1 0 0  0 1 0  30
7 3  4  2  0  30 0 25  30 0 64.151149408415  15 0 61.949616863862  15 0 75 0 1 4 4
7 13  50  38  0  14.5669350965 0.0000000563290343147 100  14.566935089695 -1.759683344519 100  14.336735530817 -3.520733902986 100  13.874816303379 -5.24820747358 100  13.192220156325 -6.907409053654 99.999999999998  12.282164664647 -8.475309259674 100  11.201007440194 -9.899748956227 99.999999999997  9.895355448077 -11.19958636153 100  8.479341748988 -12.28135814993 99.999999999997  6.905880435053 -13.19295756013 100  5.248483630479 -13.87464780211 99.999999999999  3.520565405416 -14.33662876722 100  1.760244667836 -14.56694829105 100  -1.760463025901 -14.56692189913 100  -3.520716655429 -14.33654866786 100  -5.24789233777 -13.87477341965 100  -6.906825816372 -13.19275581069 100  -8.476886260341 -12.28166010688 100  -9.898386550846 -11.20077268417 100  -11.20018533795 -9.896058347021 99.999999999999  -12.28123227955 -8.478739020954 100  -13.19288682223 -6.90625162828 100  -13.87466044999 -5.248422959331 100  -14.33660635162 -3.520639611686 100  -14.56693907453 -1.760310052731 100  -14.56693111661 1.760375868507 100  -14.33657262456 3.520612815157 100  -13.87479039381 5.2478347585 100  -13.19287191557 6.90677241626 99.999999999998  -12.28143441925 8.47697351878 100  -11.2012114235 9.898118370632 99.999999999996  -9.895594757348 11.20057374324 100  -8.478987079648 12.280969099084 99.999999999997  -6.906146145953 13.193005024131 100  -5.248450417174 13.874627222452 99.999999999999  -3.520637085546 14.336610672008 100  -1.760310943731 14.566938967129 100  1.760374985298 14.566931223614 100  3.520611451128 14.336572155283 100  5.247836398063 13.874796977702 100  6.90676802511 13.192843510565 99.999999999999  8.476962607207 12.281519394056 100  9.898178523896 11.201043870102 99.999999999997  11.200426979048 9.895817372633 100  12.281171556526 8.478834339101 99.999999999997  13.192865952654 6.906094579127 100  13.874580680069 5.24865579754 99.999999999999  14.336773912521 3.520669904328 100  14.566935089696 1.759683344383 100  14.5669350965 0.0000000563290343147 100 0 0.02702702702702703 0.05405405405405406 0.08108108108108109 0.10810810810810811 0.13513513513513514 0.16216216216216217 0.1891891891891892 0.21621621621621623 0.24324324324324326 0.2702702702702703 0.2972972972972973 0.32432432432432434 0.35135135135135137 0.3783783783783784 0.40540540540540543 0.43243243243243246 0.4594594594594595 0.4864864864864865 0.5135135135135135 0.5405405405405406 0.5675675675675675 0.5945945945945946 0.6216216216216216 0.6486486486486487 0.6756756756756757 0.7027027027027027 0.7297297297297297 0.7567567567567568 0.7837837837837838 0.8108108108108109 0.8378378378378378 0.8648648648648649 0.8918918918918919 0.918918918918919 0.9459459459459459 0.972972972972973 1 14 1 1 1 1 1 1 1 1 1 1 1 1 1 1 1 1 1 1 1 1 1 1 1 1 1 1 1 1 1 1 1 1 1 1 1 1 14
2 0 0 0  0 0 1  1 0 0  0 1 0  20
7 3  4  2  0  20 0 0  26.731456008918 0 0  30 0 18.268543991082  30 0 25 0 1 4 4
7 2  3  2  0  14.5669350965 0.0000000563290343147 100  13.100228890027 -0.000000003602535764494 100  12.913788463005 0.000000000001937810635554 98.545191743467 0 1 3 3
7 13  50  38  0  12.913788463005 0.000000000001937810635554 98.545191743467  12.913788463379 -1.559982879607 98.545191743467  12.709604368309 -3.121235506714 98.545191742236  12.30104799961 -4.652138828558 98.545191754471  11.691896861344 -6.125529129745 98.545191707154  10.895972005943 -7.507986279137 98.545191817983  9.917689734415 -8.786341708532 98.545191628489  8.784456230708 -9.916968068804 98.545191871389  7.510178473403 -10.89556055714 98.545191652854  6.124413823773 -11.69238229946 98.545191782823  4.652334222378 -12.30098973829 98.545191732311  3.120979142561 -12.70950838613 98.545191744943  1.560464462156 -12.91379434728 98.54519174371  -1.560561855477 -12.91378257825 98.545191744226  -3.121101298285 -12.70945187024 98.545191744508  -4.651882993866 -12.30115751568 98.545191741191  -6.126100712955 -11.6919715087 98.545191730892  -7.507666455815 -10.89551122775 98.545191793591  -8.786332777608 -9.918313537771 98.545191644462  -9.917189906651 -8.783870552265 98.54519186458  -10.89531024399 -7.510556706636 98.545191655589  -11.69247719867 -6.124307305227 98.545191779793  -12.30093770305 -4.652416719026 98.545191735266  -12.70949884421 -3.121020465618 98.545191744838  -12.91378583375 -1.560526690897 98.545191743307  -12.91379109224 1.560483175383 98.545191743842  -12.7094724496 3.121021064786 98.54519174427  -12.30117593495 4.651827806949 98.545191744519  -11.69204135589 6.126042092964 98.545191727735  -10.89542695987 7.507742509311 98.545191794253  -9.918469880876 8.786166266624 98.545191645513  -8.783744907057 9.917390651345 98.545191864213  -7.510570467182 10.895208297286 98.545191653615  -6.124300090995 11.692516344918 98.545191783797  -4.652418602328 12.300927468835 98.545191731775  -3.12102119115 12.709499936316 98.545191745012  -1.560527479105 12.913785738312 98.545191743712  1.560482386534 12.913791187375 98.545191744247  3.121020826765 12.709471919991 98.545191744441  4.651822579069 12.301181603311 98.545191741049  6.12606071828 11.692021643854 98.545191731714  7.507687192941 10.89547392726 98.545191792125  8.786274651898 9.918402676061 98.545191645551  9.917236037891 8.783791737261 98.545191865177  10.895347603792 7.510613832929 98.545191653089  11.692478673426 6.124149622401 98.545191782922  12.300825000459 4.652553508739 98.545191733311  12.709641818497 3.121174556473 98.545191745122  12.913788463379 1.55998287952 98.545191743467  12.913788462716 -0.000000000000219935532417 98.545191741211 0 0.02702702702702703 0.05405405405405406 0.08108108108108109 0.10810810810810811 0.13513513513513514 0.16216216216216217 0.1891891891891892 0.21621621621621623 0.24324324324324326 0.2702702702702703 0.2972972972972973 0.32432432432432434 0.35135135135135137 0.3783783783783784 0.40540540540540543 0.43243243243243246 0.4594594594594595 0.4864864864864865 0.5135135135135135 0.5405405405405406 0.5675675675675675 0.5945945945945946 0.6216216216216216 0.6486486486486487 0.6756756756756757 0.7027027027027027 0.7297297297297297 0.7567567567567568 0.7837837837837838 0.8108108108108109 0.8378378378378378 0.8648648648648649 0.8918918918918919 0.918918918918919 0.9459459459459459 0.972972972972973 1 14 1 1 1 1 1 1 1 1 1 1 1 1 1 1 1 1 1 1 1 1 1 1 1 1 1 1 1 1 1 1 1 1 1 1 1 1 14
7 10  128  15  0  10.000000000002 0.0000000000003833020444627 75.000000603631  10.000000000005 0.0000000000003830125752671 75.000020200509  10.000000000009 0.0000000000003825813647524 75.000039853468  10.000000000015 0.0000000000003820058644972 75.000059565007  10.000000000021 0.000000000000381295163338 75.00007933533  10.00000000003 0.0000000000003804744290822 75.000099161471  10.00000000004 0.0000000000003795902465838 75.000119036249  10.000000000053 0.000000000000378716944661 75.00013894703  10.000000000068 0.0000000000003779640043371 75.000158874284  10.000000000086 0.000000000000377484640886 75.000178789925  10.000000000247 0.0000000000003774921947372 75.000327177293  10.000000000486 0.000000000000377735453245 75.000455698588  10.000000000827 0.0000000000003781562483711 75.000584219276  10.000000001264 0.0000000000003786954007989 75.000712739371  10.000000001807 0.0000000000003792937312122 75.000841258855  10.000000002444 0.0000000000003798920602944 75.000969777746  10.000000003186 0.0000000000003804312087295 75.001098296031  10.000000004025 0.0000000000003808519972008 75.001226813716  10.000000004965 0.0000000000003810952463922 75.0013553308  10.000000072588 0.000000000000381519735066 75.009708902142  10.000000549246 0.0000000000003819893643032 75.017931493913  10.000001435857 0.0000000000003824978725384 75.026151623237  10.000002732279 0.0000000000003830324676118 75.034369290703  10.000004438404 0.0000000000003835803573629 75.042584496985  10.000006554078 0.000000000000384128749632 75.050797242652  10.000009079196 0.0000000000003846648522587 75.059007528373  10.000012013612 0.000000000000385175873083 75.067215354745  10.000015357207 0.0000000000003856490199447 75.075420722402  10.000079152117 0.0000000000003928311925091 75.214870184999  10.000243906938 0.0000000000003998133352081 75.345487467835  10.000512849859 0.0000000000004069899930389 75.475478034799  10.000885456411 0.0000000000004143332302585 75.604844439993  10.00136120215 0.0000000000004218151111261 75.733589237922  10.0019395626 0.000000000000429407699898 75.861714982535  10.002620013316 0.0000000000004370830608334 75.989224228382  10.003402029832 0.0000000000004448132581891 76.116119529501  10.004285087692 0.0000000000004525703562236 76.242403440269  10.007235811923 0.0000000000004758385451363 76.61942866415  10.009604983494 0.0000000000004914427728901 76.868343521913  10.012372047781 0.0000000000005072236534735 77.114843469222  10.015532875401 0.0000000000005232657379033 77.358948887034  10.019083337001 0.0000000000005396535771981 77.600680156472  10.023019303185 0.0000000000005564717223738 77.84005765841  10.027336644605 0.0000000000005738047244494 78.077101774005  10.03203123187 0.000000000000591737134441 78.311832884166  10.03709893562 0.0000000000006103535033668 78.544271369969  10.064282389907 0.0000000000007072778977526 79.69510258216  10.091934753955 0.0000000000007939774304106 80.579412055672  10.125229401771 0.0000000000008862717041169 81.428662953054  10.163908564125 0.0000000000009826272288343 82.244151198066  10.207718493245 0.000000000001082898696921 83.027165770981  10.256407936517 0.000000000001187685379457 83.778982760151  10.30972661037 0.000000000001297687522576 84.500859415372  10.367423673959 0.00000000000141306274379 85.194028199255  10.429246203027 0.000000000001532782428326 85.859690840378  10.626320584872 0.00000000000189639951969 87.777655474747  10.773168701066 0.000000000002158361435638 88.950922313749  10.9334433582 0.000000000002377437317138 90.028130365023  11.104882265615 0.000000000002665644080886 91.017827248267  11.285085740929 0.000000000002938139364484 91.927710079928  11.471117291251 0.000000000003122410395414 92.764001828823  11.658918471237 0.000000000003284617217031 93.530946382718  11.843016936293 0.000000000003469046351995 94.230958895951  12.017185587086 0.000000000003505934328142 94.865842866628  12.336593771438 0.000000000003498513344058 96.012877665721  12.481831200975 0.000000000003410326693328 96.52501967158  12.607910030675 0.000000000003449036263266 96.979536395094  12.711983394541 0.000000000002625807561414 97.381823106717  12.793009023311 0.000000000003405230038761 97.741980286935  12.857074770772 0.000000000001697234271725 98.074742158615  12.910941341761 0.000000000002508601410596 98.408556148069  12.953641223501 0.000000000001537702071502 98.767146990362  12.983062210461 0.000000000001379286768225 99.171168179241  12.996100159052 0.000000000001064261452501 99.666157931441  12.996800220452 0.000000000001044662780138 99.695516877955  12.997432426195 0.000000000001024293138008 99.725121535812  12.997995797381 0.000000000001003449327782 99.754975714195  12.998489355097 0.0000000000009824281511314 99.785083222083  12.998912120449 0.0000000000009615264097283 99.815447868744  12.999263114524 0.0000000000009410409052422 99.846073463125  12.999541358423 0.0000000000009212684393461 99.876963814459  12.999745873239 0.0000000000009025058137101 99.908122731772  12.999891905923 0.000000000000882867832043 99.943482935767  12.999906963456 0.0000000000008806950315216 99.947416098919  12.999920850661 0.0000000000008785297483124 99.951353520698  12.999933565517 0.0000000000008763703022842 99.955295207985  12.99994510603 0.0000000000008742150133091 99.959241167953  12.999955470167 0.0000000000008720622012545 99.96319140735  12.999964655939 0.0000000000008699101859931 99.967145933404  12.999972661317 0.0000000000008677572873929 99.971104752914  12.999979484302 0.0000000000008656018253251 99.975067872984  12.999987942163 0.0000000000008623622668263 99.981019014326  12.999990465349 0.0000000000008617864733371 99.983003804989  12.999992692169 0.0000000000008615888740612 99.984989673322  12.999994622394 0.0000000000008616436038703 99.986976620368  12.999996255734 0.0000000000008618247976322 99.9889646467  12.99999759198 0.0000000000008620065902199 99.990953753537  12.999998630839 0.0000000000008620631165011 99.99294394141  12.999999372087 0.0000000000008618685113478 99.994935211428  12.999999815454 0.0000000000008612969096292 99.996927564317  12.999999965234 0.0000000000008601888692342 99.998983295894  12.999999969482 0.0000000000008596941575868 99.99904559185  12.999999973438 0.0000000000008588535934641 99.999107888859  12.999999977104 0.0000000000008577824590568 99.999170186936  12.999999980477 0.0000000000008565960365549 99.999232486063  12.999999983561 0.0000000000008554096081495 99.99929478625  12.999999986352 0.0000000000008543384560306 99.999357087501  12.999999988853 0.0000000000008534978623889 99.999419389802  12.999999991062 0.0000000000008530031094148 99.999481693169  12.999999993939 0.0000000000008529526642407 99.9995751498  12.999999994827 0.0000000000008532073258105 99.999606302286  12.999999995637 0.0000000000008536655947923 99.999637455001  12.999999996383 0.0000000000008542596019718 99.999668608046  12.999999997045 0.0000000000008549214781323 99.999699761271  12.999999997645 0.0000000000008555833540598 99.999730914844  12.999999998164 0.0000000000008561773605379 99.999762068618  12.999999998615 0.000000000000856635628352 99.999793222695  12.999999998992 0.0000000000008568902882864 99.999824377018  12.999999999436 0.0000000000008568656729019 99.999869978196  12.999999999563 0.0000000000008836858505657 99.999883231822  12.999999999669 0.0000000000008385869517891 99.999900938701  12.999999999766 0.0000000000008390748794992 99.99991350817  12.999999999846 0.0000000000008730676340012 99.999925452023  12.999999999904 0.0000000000008781879533941 99.999942137887  12.999999999951 0.0000000000008565639853365 99.999959136822  12.999999999987 0.0000000000008545830866876 99.999970559964  12.999999999998 0.0000000000008561144110594 99.999984000432  13 0.0000000000008567865077897 100.00000091206 0 0.00000341086357198 0.0000254778235099 0.001437763259537 0.02403433023597 0.06922746418884 0.25 0.611545071623 0.973090143246 0.995686710223 0.998511281095 0.999923566531 0.999967700451 0.999989767411 1 11 9 9 9 9 9 9 9 9 9 9 9 9 9 11
7 13  14  2  0  10 -0.000000000000006037857517664 75  10 4.833219467061 74.999999999994  7.469318318339 9.666440866861 75.000000000027  2.408105618414 13.054125992648 74.999999999928  -4.276211799827 13.550915944609 75.000000000138  -10.76421242572 10.344686757424 74.999999999806  -14.83699979618 3.894476724295 75.000000000201  -14.83699979618 -3.894476724297 74.999999999843  -10.76421242572 -10.34468675741 75.000000000092  -4.276211799829 -13.55091594461 74.999999999961  2.408105618415 -13.05412599264 75.000000000012  7.469318318339 -9.666440866864 74.999999999998  10.000000000001 -4.83321946706 75  10 -0.000000000000002225763115694 75 0 6.28318530718 14 14
7 13  14  2  0  25 0.000000000000003475640938902 25  25 12.083048667651 24.999999999997  18.67329579585 24.166102167158 25.000000000011  6.020264046031 32.635314981607 24.99999999997  -10.69052949955 33.877289861546 25.000000000058  -26.91053106432 25.861716893527 24.999999999916  -37.09249949043 9.736191810771 25.000000000094  -37.09249949047 -9.73619181077 24.999999999918  -26.91053106429 -25.86171689352 25.000000000058  -10.69052949957 -33.87728986154 24.999999999968  6.020264046039 -32.6353149816 25.000000000014  18.673295795847 -24.16610216715 24.999999999995  25.000000000001 -12.08304866765 25.000000000001  25 -0.000000000000002981334610775 25 0 6.28318530718 14 14
7 10  29  4  0  25 -0.000000000000006123233995737 25  25 -0.000000000000006123233995737 30.681107154218  24.758144302759 -0.00000000000000606399643464 35.649313320848  24.309183365393 -0.000000000000005954032719664 39.961235218095  23.688458679842 -0.000000000000005801999019799 43.673814355836  22.934366064131 -0.000000000000005617299598184 46.847125773179  22.081833448143 -0.000000000000005408489330313 49.543274478427  21.173043488964 -0.000000000000005185899987394 51.833940669476  20.229667660615 -0.000000000000004954839549677 53.807342622278  19.259326138983 -0.000000000000004717174421968 55.545580718241  17.767884589372 -0.000000000000004351876597999 57.921868063933  17.264742810594 -0.000000000000004228642404219 58.675448948501  16.756012816264 -0.000000000000004104039492382 59.400620667251  16.241704798006 -0.000000000000003978070358715 60.107390271522  15.722004332371 -0.000000000000003850780456364 60.80561123386  15.197460713793 -0.000000000000003722304323662 61.505195852874  14.66943193286 -0.000000000000003592974572378 62.216500860163  14.140961081395 -0.000000000000003463536545039 62.950546641703  13.617793861638 -0.000000000000003335397532821 63.718485004151  12.599769683514 -0.000000000000003086053522582 65.340484855714  12.104913839382 -0.000000000000002964848797471 66.194548877971  11.632951237381 -0.000000000000002849251299499 67.100886015707  11.195969054186 -0.000000000000002742221533113 68.066800089287  10.807793056482 -0.000000000000002647145834493 69.095946749219  10.486645141424 -0.000000000000002568487281248 70.186535773794  10.243276361186 -0.000000000000002508879121702 71.326575553383  10.08084225324 -0.000000000000002469094239628 72.509952903242  10 -0.000000000000002449293598295 73.733873379224  10 -0.000000000000002449293598295 75 0 0.5 0.75 1 11 9 9 11
2 0 0 5  0 -0 1  1 0 0  -0 1 0  20
7 12  35  4  0  20 -0.000000000000004898587196589 5  19.855318758154 -0.000000000000004863150512645 5.000000000001  19.695310027254 -0.000000000000004823959676617 4.982150819193  19.548147207919 -0.00000000000000478791518149 4.942112308353  19.443151561708 -0.000000000000004762198665073 4.888162703031  19.404131037004 -0.000000000000004752641392946 4.842387479032  19.425268842992 -0.000000000000004757818662224 4.835494749572  19.494868248326 -0.000000000000004774865600027 4.87025914976  19.605618103193 -0.000000000000004801991491073 4.95687594059  19.746475602752 -0.000000000000004836491628272 5.093841536218  19.910814192202 -0.000000000000004876742973779 5.281270040922  20.092141278009 -0.000000000000004921155300826 5.516671348437  20.479008270798 -0.000000000000005015910385709 6.07792221068  20.684543575054 -0.000000000000005066252016204 6.403768035444  20.897216772498 -0.000000000000005118341926303 6.772012870764  21.113322838098 -0.000000000000005171272646614 7.179226987109  21.330122781545 -0.00000000000000522437331796 7.621877898769  21.545583091048 -0.000000000000005277145873652 8.096537080646  21.758166565123 -0.00000000000000532921380785 8.599925573845  21.966682315928 -0.000000000000005380285437224 9.128897289153  22.170191419922 -0.000000000000005430130791775 9.680419858067  22.367953385616 -0.000000000000005478568503435 10.251573928919  22.559387301014 -0.000000000000005525456289782 10.839552846195  23.113256048049 -0.000000000000005661115007423 12.645711401534  23.455254940043 -0.000000000000005744880577101 13.90613427276  23.766263377576 -0.00000000000000582105567461 15.200814542903  24.044012957904 -0.000000000000005889084701508 16.509520838916  24.287880281704 -0.000000000000005948814969016 17.811189116132  24.496105447905 -0.000000000000005999815425666 19.087821718968  24.668985177758 -0.000000000000006042158747235 20.318233943573  24.806145798162 -0.000000000000006075753410178 21.482532253834  24.906286786744 -0.000000000000006100280878408 22.561635145089  24.971768154695 -0.000000000000006116319187939 23.528199149263  25.000000000001 -0.000000000000006123233995737 24.360885792811  25 -0.000000000000006123233995737 25 0 0.25 0.5 1 13 11 11 13
Polygon3D 0
PolygonOnTriangulations 0
Surfaces 11
7 0 0 0 0 0 1
7 0 0  1 17 19  15 0 75  15.03369140625 0 78.32367713107762  15.12890625 0 81.23795399516199  15.27685546875 0 83.78023987429235  15.46875 0 85.98794405050788  15.69580078125 0 87.89847580584774  15.94921875 0 89.54924442235114  16.22021484375 0 90.97765918205724  16.5 0 92.22112936700526  16.77978515625 0 93.31706425923434  17.05078125 0 94.30287314078372  17.30419921875 0 95.21596529369253  17.53125 0 96.09375  17.72314453125 0 96.9736365417453  17.87109375 0 97.8930342009676  17.96630859375 0 98.8893522597061  18 0 100
 0 2 1 2
8 2 10 2 3 2 2 17.901849016043 0 98.148270499951 1 17.901849016042 5.542676159605 98.148270499951 1 15.994804783754 11.169390860665 98.148270499951 1 12.085601462411 16.090806544317 98.148270499951 1 6.481172810575 19.443481394147 98.14827049995 1 -0.004631900833011 20.585804625459 98.148270499951 1.000000000001 -6.466167511079 19.416036336738 98.14827049995 1 -12.01337010672 16.100089584895 98.148270499951 1 -15.93851421449 11.248232701208 98.148270499951 1 -17.90184901604 5.624031735448 98.148270499951 1 -17.90184901604 -5.624031735448 98.148270499951 1 -15.93851421449 -11.2482327012 98.148270499951 1 -12.01337010672 -16.10008958489 98.148270499951 1 -6.466167511074 -19.41603633673 98.14827049995 1 -0.004631900834968 -20.58580462545 98.148270499951 1 6.481172810574 -19.44348139414 98.14827049995 1 12.085601462414 -16.09080654431 98.148270499951 1 15.994804783753 -11.16939086066 98.148270499951 1 17.901849016043 -5.542676159605 98.148270499951 1 17.901849016043 -0.000000000000004384688419263 98.148270499951 1 18.108740175419 -0.000000000000001981054209566 100 0.666694195254 18.108740175419 5.60673271017 100 0.666694195254 16.179656287235 11.298475192827 100 0.666694195254 12.225274414413 16.276767537412 100 0.666694195254 6.556075540214 19.668189155025 100 0.666694195254 -0.004685431579515 20.823714183396 100 0.666694195254 -6.540896824898 19.640426915867 100 0.666694195254 -12.152208283 16.286157861826 100 0.666694195254 -16.12271516947 11.378228206276 100 0.666694195254 -18.10874017541 5.689028510087 100 0.666694195254 -18.10874017542 -5.689028510087 100 0.666694195254 -16.12271516946 -11.37822820627 100 0.666694195254 -12.152208283 -16.28615786182 99.999999999999 0.666694195254 -6.540896824896 -19.64042691586 100 0.666694195254 -0.00468543158006 -20.82371418339 99.999999999998 0.666694195254 6.556075540213 -19.66818915502 100 0.666694195254 12.225274414413 -16.27676753741 99.999999999999 0.666694195254 16.179656287234 -11.29847519282 100 0.666694195254 18.108740175419 -5.606732710171 100 0.666694195254 18.108740175419 0.00000000000001046732145404 100 0.666694195254 16.245488691271 0 100 1 16.245488691271 5.029842603943 100 1 14.514892847141 10.135948122047 100 1 10.967386760377 14.602012089078 100 1 5.881505285069 17.644482244517 100 1 -0.00420333634364 18.68111254563 100 1.000000000001 -5.86788834399 17.619576528388 100 1 -10.90183857756 14.610436220608 100 1 -14.46381053684 10.207495157652 100 1 -16.24548869127 5.103670792648 100 1 -16.24548869127 -5.103670792648 100 1 -14.46381053684 -10.20749515765 100 1 -10.90183857756 -14.61043622061 100 1 -5.867888343986 -17.61957652838 100 1 -0.004203336344637 -18.68111254563 100 1 5.881505285067 -17.64448224451 100 1 10.96738676038 -14.60201208908 100 1 14.51489284714 -10.13594812204 100 1 16.245488691271 -5.029842603943 100 1 16.245488691271 0 100 1 0 113.09733552923 3 3 0.000000000000002236719966425 56.548667764616 113.09733552923 11 9 11
7 0 0 0 0 0 1
7 0 0  1 17 19  30 0 25  29.83154296875 0 31.870058254285624  29.35546875 0 37.85382991636349  28.61572265625 0 43.03423187729853  27.65625 0 47.494181028155666  26.52099609375 0 51.316594259999846  25.25390625 0 54.58438846389598  23.89892578125 0 57.38048053090902  22.5 0 59.78778735210388  21.10107421875 0 61.88922581854548  19.74609375 0 63.76771282129877  18.47900390625 0 65.50616525142868  17.34375 0 67.18750000000014  16.38427734375 0 68.89463395807806  15.64453125 0 70.7104840167274  15.16845703125 0 72.71796706701306  15 0 75
 0 2 1 2
1 0 0 100 0 0 1 1 0 0 0 1 0
7 0 0 0 0 0 1
7 0 0  1 17 19  20 0 0  21.22161445459464 0 0.20680773427702395  22.362351627560443 0 0.7981238746342227  23.42249623768659 0 1.7302878273607867  24.40233300376228 0 2.9596389987459064  25.302146644576702 0 4.442516795078772  26.122221878919042 0 6.135260622648574  26.862843425578497 0 7.994209887744504  27.524296003344247 0 9.975703996655751  28.106864331005497 0 12.036082355671505  28.610833127351427 0 14.131684371080958  29.036487111171226 0 16.218849449173298  29.384111001254094 0 18.25391699623772  29.653989516389213 0 20.19322641856341  29.84640737536578 0 21.993117122439557  29.961649296972976 0 23.60992851415536  30 0 25
 0 2 1 2
8 2 13 2 5 2 2 14.5669350965 0.0000000563290343147 100 1 14.566935089695 -1.759683344519 100 1 14.336735530817 -3.520733902986 100 1 13.874816303379 -5.24820747358 100 0.999999999999 13.192220156325 -6.907409053654 99.999999999998 1.000000000002 12.282164664647 -8.475309259674 100 0.999999999996 11.201007440194 -9.899748956227 99.999999999997 1.000000000005 9.895355448077 -11.19958636153 100 0.999999999995 8.479341748988 -12.28135814993 99.999999999997 1.000000000004 6.905880435053 -13.19295756013 100 0.999999999998 5.248483630479 -13.87464780211 99.999999999999 1.000000000001 3.520565405416 -14.33662876722 100 1 1.760244667836 -14.56694829105 100 1 -1.760463025901 -14.56692189913 100 1 -3.520716655429 -14.33654866786 100 1 -5.24789233777 -13.87477341965 100 1 -6.906825816372 -13.19275581069 100 0.999999999999 -8.476886260341 -12.28166010688 100 1.000000000001 -9.898386550846 -11.20077268417 100 0.999999999998 -11.20018533795 -9.896058347021 99.999999999999 1.000000000002 -12.28123227955 -8.478739020954 100 0.999999999998 -13.19288682223 -6.90625162828 100 1.000000000001 -13.87466044999 -5.248422959331 100 0.999999999999 -14.33660635162 -3.520639611686 100 1 -14.56693907453 -1.760310052731 100 1 -14.56693111661 1.760375868507 100 1 -14.33657262456 3.520612815157 100 0.999999999999 -13.87479039381 5.2478347585 100 1.000000000003 -13.19287191557 6.90677241626 99.999999999998 0.999999999994 -12.28143441925 8.47697351878 100 1.000000000009 -11.2012114235 9.898118370632 99.999999999996 0.99999999999 -9.895594757348 11.20057374324 100 1.00000000001 -8.478987079648 12.280969099084 99.999999999997 0.999999999992 -6.906146145953 13.193005024131 100 1.000000000005 -5.248450417174 13.874627222452 99.999999999999 0.999999999998 -3.520637085546 14.336610672008 100 1.000000000001 -1.760310943731 14.566938967129 100 1 1.760374985298 14.566931223614 100 1 3.520611451128 14.336572155283 100 1 5.247836398063 13.874796977702 100 1 6.90676802511 13.192843510565 99.999999999999 1 8.476962607207 12.281519394056 100 1 9.898178523896 11.201043870102 99.999999999997 1.000000000001 11.200426979048 9.895817372633 100 0.999999999999 12.281171556526 8.478834339101 99.999999999997 1.000000000001 13.192865952654 6.906094579127 100 0.999999999999 13.874580680069 5.24865579754 99.999999999999 1.000000000001 14.336773912521 3.520669904328 100 1 14.566935089696 1.759683344383 100 1 14.5669350965 0.0000000563290343147 100 1 13.100228890027 -0.000000003602535764494 100 0.750704684307 13.100228889591 -1.582504922842 100 0.750704684307 12.893110794356 -3.166290582481 100 0.75070468406 12.478536203608 -4.719362942614 99.999999999998 0.750704686507 11.861102021292 -6.213708819927 100 0.750704677048 11.052305566316 -7.617080198102 99.999999999992 0.750704699201 10.062421207739 -8.911910689632 100.00000000001 0.750704661327 8.909742484209 -10.06162072638 99.999999999984 0.750704709873 7.619479807218 -11.05184955535 100.00000000001 0.750704666196 6.212546983068 -11.86161586681 99.999999999991 0.750704692174 4.719567414089 -12.47846551427 100 0.750704682076 3.166044133724 -12.89301359495 99.999999999999 0.750704684602 1.582995498642 -13.10023559894 100 0.750704684355 -1.583106534043 -13.10022218116 100 0.750704684459 -3.166169565013 -12.89295442236 100 0.750704684515 -4.71910043121 -12.47862851997 99.999999999998 0.750704683853 -6.214150121624 -11.86122868701 100 0.750704681792 -7.616974369369 -11.0518398195 99.999999999988 0.750704694326 -8.91174903834 -10.06294820196 100.00000000001 0.750704664519 -10.06188515043 -8.909302133964 99.999999999979 0.750704708513 -11.05161325477 -7.619747390565 100.00000000001 0.750704666743 -11.86169208832 -6.212494356773 99.999999999991 0.750704691568 -12.47842077588 -4.71963375875 100 0.750704682667 -12.89300260114 -3.16608916536 99.999999999999 0.750704684581 -13.10022700581 -1.583058083298 100 0.750704684275 -13.10023077419 1.583026897846 100 0.750704684382 -12.89297538242 3.166086668994 99.999999999999 0.750704684467 -12.47864677965 4.719044969796 100 0.750704684518 -11.86130374713 6.214092105338 99.999999999981 0.750704681161 -11.05173960045 7.617051666551 100.00000000003 0.750704694456 -10.06313640601 8.911571076765 99.999999999945 0.750704664734 -8.909138354228 10.062107053366 100.00000000005 0.750704708434 -7.619787597943 11.051493121764 99.999999999953 0.750704666353 -6.21247604455 11.861740156155 100.00000000002 0.750704692366 -4.719638530695 12.478407944799 99.999999999991 0.750704681969 -3.166089524478 12.893004057485 100 0.750704684616 -1.583058883136 13.100226909339 100 0.750704684356 1.583026098392 13.100230870974 100 0.750704684463 3.166086304366 12.892974859719 100 0.750704684501 4.719040520267 12.478652547818 100 0.750704683823 6.214108121216 11.86128305991 100 0.75070468196 7.617001377625 11.051790851875 100 0.750704694026 8.911674004749 10.063057880531 99.999999999996 0.750704664747 10.06195333618 8.909205018147 100 0.75070470862 11.051639546675 7.619808836015 99.999999999992 0.750704666253 11.861691047898 6.212336738402 100 0.750704692187 12.478311785255 4.719781382588 99.999999999998 0.750704682279 12.893148348551 3.166229294469 100 0.750704684637 13.100228889591 1.58250492275 100 0.750704684307 13.100228890027 0.000000003603869190918 100 0.750704684307 12.913788463005 0.000000000001937810635554 98.545191743467 1 12.913788463379 -1.559982879607 98.545191743467 1 12.709604368309 -3.121235506714 98.545191742236 1 12.30104799961 -4.652138828558 98.545191754471 0.999999999999 11.691896861344 -6.125529129745 98.545191707154 1.000000000002 10.895972005943 -7.507986279137 98.545191817983 0.999999999996 9.917689734415 -8.786341708532 98.545191628489 1.000000000005 8.784456230708 -9.916968068804 98.545191871389 0.999999999995 7.510178473403 -10.89556055714 98.545191652854 1.000000000004 6.124413823773 -11.69238229946 98.545191782823 0.999999999998 4.652334222378 -12.30098973829 98.545191732311 1.000000000001 3.120979142561 -12.70950838613 98.545191744943 1 1.560464462156 -12.91379434728 98.54519174371 1 -1.560561855477 -12.91378257825 98.545191744226 1 -3.121101298285 -12.70945187024 98.545191744508 1 -4.651882993866 -12.30115751568 98.545191741191 1 -6.126100712955 -11.6919715087 98.545191730892 0.999999999999 -7.507666455815 -10.89551122775 98.545191793591 1.000000000001 -8.786332777608 -9.918313537771 98.545191644462 0.999999999998 -9.917189906651 -8.783870552265 98.54519186458 1.000000000002 -10.89531024399 -7.510556706636 98.545191655589 0.999999999998 -11.69247719867 -6.124307305227 98.545191779793 1.000000000001 -12.30093770305 -4.652416719026 98.545191735266 0.999999999999 -12.70949884421 -3.121020465618 98.545191744838 1 -12.91378583375 -1.560526690897 98.545191743307 1 -12.91379109224 1.560483175383 98.545191743842 1 -12.7094724496 3.121021064786 98.54519174427 0.999999999999 -12.30117593495 4.651827806949 98.545191744519 1.000000000003 -11.69204135589 6.126042092964 98.545191727735 0.999999999994 -10.89542695987 7.507742509311 98.545191794253 1.000000000009 -9.918469880876 8.786166266624 98.545191645513 0.99999999999 -8.783744907057 9.917390651345 98.545191864213 1.00000000001 -7.510570467182 10.895208297286 98.545191653615 0.999999999992 -6.124300090995 11.692516344918 98.545191783797 1.000000000005 -4.652418602328 12.300927468835 98.545191731775 0.999999999998 -3.12102119115 12.709499936316 98.545191745012 1.000000000001 -1.560527479105 12.913785738312 98.545191743712 1 1.560482386534 12.913791187375 98.545191744247 1 3.121020826765 12.709471919991 98.545191744441 1 4.651822579069 12.301181603311 98.545191741049 1 6.12606071828 11.692021643854 98.545191731714 1 7.507687192941 10.89547392726 98.545191792125 1 8.786274651898 9.918402676061 98.545191645551 1.000000000001 9.917236037891 8.783791737261 98.545191865177 0.999999999999 10.895347603792 7.510613832929 98.545191653089 1.000000000001 11.692478673426 6.124149622401 98.545191782922 0.999999999999 12.300825000459 4.652553508739 98.545191733311 1.000000000001 12.709641818497 3.121174556473 98.545191745122 1 12.913788463379 1.55998287952 98.545191743467 1 12.913788462716 -0.000000000000219935532417 98.545191741211 1 0 81.681409049809 3 3 -0.0000000000000007773030873801 20.420352262452 40.840704524905 61.261056787357 81.681409049809 14 12 12 12 14
1 0 0 0 0 0 1 1 0 0 0 1 0
1 0 0 0  0 0 1  1 0 0  0 1 0
1 0 0 0  0 0 1  1 0 0  0 1 0
1 0 0 0  0 0 1  1 0 0  0 1 0
1 0 0 5 0 0 1 1 0 0 0 1 0
Triangulations 0

TShapes 54
Ve
0.0001
17.901849 0 98.1482705
0 0

0101101
*
Ve
0.0001
15 0 75
0 0

0101101
*
Ve
0.0001
16.2454887 0 100
0 0

0101101
*
Ve
0.0001
30 0 25
0 0

0101101
*
Ve
0.0001
14.5669351 0 100
0 0

0101101
*
Ve
0.0001
20 0 0
0 0

0101101
*
Ve
0.0001
12.9137885 0 98.5451917
0 0

0101101
*
Ve
0.0001
10 0 75
0 0

0101101
*
Ve
0.0001
25 0 25
0 0

0101101
*
Ve
0.0001
20 0 5
0 0

0101101
*
Ed
 0.0001 1 1 0
7  1 0 0 0.8915778669016303
4 C0 1 0 2 0
0

0101000
+54 0 -53 0 *
Ed
 0.0001 1 1 0
2  2 0 0 0
4 C0 2 0 2 0
4 C0 3 0 2 0
0

0101000
+53 0 -53 0 *
Ed
 0.0001 1 1 0
7  3 0 0 0
4 C0 4 0 2 0
4 C0 5 0 2 0
0

0101000
+54 0 -54 0 *
Ed
 0.0001 1 1 0
7  4 0 0 1
4 C0 6 0 2 0
0

0101000
+54 0 -52 0 *
Ed
 0.0001 1 1 0
7  5 0 0 0
4 C0 7 0 2 0
4 C0 8 0 2 0
0

0101000
+52 0 -52 0 *
Ed
 0.0001 1 1 0
2  6 0 0 0
4 C0 9 0 2 0
4 C0 10 0 2 0
0

0101000
+51 0 -51 0 *
Ed
 0.0001 1 1 0
7  7 0 0 1
4 C0 11 0 2 0
0

0101000
+53 0 -51 0 *
Ed
 0.0001 1 1 0
7  8 0 0 0
4 C0 12 0 2 0
4 C0 13 0 2 0
0

0101000
+50 0 -50 0 *
Ed
 0.0001 1 1 0
2  9 0 0 0
4 C0 14 0 2 0
4 C0 15 0 2 0
0

0101000
+49 0 -49 0 *
Ed
 0.0001 1 1 0
7  10 0 0 1
4 C0 16 0 2 0
0

0101000
+51 0 -49 0 *
Ed
 0.0001 1 1 0
7  11 0 0 1
4 C0 17 0 2 0
0

0101000
+50 0 -48 0 *
Ed
 0.0001 1 1 0
7  12 0 0 0
4 C0 18 0 2 0
4 C0 19 0 2 0
0

0101000
+48 0 -48 0 *
Ed
 0.0001 1 1 0
7  13 0 0 0.876088319611554
4 C0 20 0 2 0
0

0101000
+48 0 -47 0 *
Ed
 0.0001 1 1 0
7  14 0 0 0
4 C0 21 0 2 0
4 C0 22 0 2 0
0

0101000
+47 0 -47 0 *
Ed
 0.0001 1 1 0
7  15 0 0 0
4 C0 23 0 2 0
4 C0 24 0 2 0
0

0101000
+46 0 -46 0 *
Ed
 0.0001 1 1 0
7  16 0 0 1
4 C0 25 0 2 0
0

0101000
+47 0 -46 0 *
Ed
 0.0001 1 1 0
2  17 0 0 0
4 C0 26 0 2 0
4 C0 27 0 2 0
0

0101000
+45 0 -45 0 *
Ed
 0.0001 1 1 0
7  18 0 0 1
4 C0 28 0 2 0
0

0101000
+46 0 -45 0 *
Wi

0101100
+44 0 +43 0 -44 0 +42 0 *
Wi

0101100
+41 0 +40 0 -41 0 +42 0 *
Wi

0101100
+39 0 -38 0 +43 0 +38 0 *
Wi

0101100
+40 0 *
Wi

0101100
+37 0 *
Wi

0101100
+36 0 -35 0 +39 0 +35 0 *
Wi

0101100
+34 0 +33 0 -34 0 +37 0 *
Wi

0101100
+36 0 *
Wi

0101100
-32 0 +33 0 +32 0 +31 0 *
Wi

0101100
+30 0 -29 0 +31 0 +29 0 *
Wi

0101100
+28 0 -27 0 +30 0 +27 0 *
Wi

0101100
+28 0 *
Fa
0  0.0001  1 0

0101000
+26 0 *
Fa
0  0.0001  2 0

0101000
+25 0 *
Fa
0  0.0001  3 0

0101000
+24 0 *
Fa
0  0.0001  4 0

0101000
+23 0 -22 0 *
Fa
0  0.0001  5 0

0101000
+21 0 *
Fa
0  0.0001  6 0

0101000
+20 0 *
Fa
0  0.0001  7 0

0101000
+19 0 *
Fa
0  0.0001  8 0

0101000
+18 0 *
Fa
0  0.0001  9 0

0101000
+17 0 *
Fa
0  0.0001  10 0

0101000
+16 0 *
Fa
0  0.0001  11 0

0101000
+15 0 *
Sh

0101100
+14 0 +13 0 -12 0 +11 0 -10 0 +9 0 -8 0 -7 0 -6 0 -5 0 -4 0 *
So

0100000
+3 0 *
Co

1100000
+2 0 *

+1 0
