DBRep_DrawableShape

CASCADE Topology V1, (c) Matra-Datavision
Locations 0
Curve2ds 180
1 0 5 1 0
1 0 0 1 0
1 100 0 0 1
1 0 5 1 0
1 -100 5 1 0
1 100 80 -1 0
1 -80 5 1 0
1 0 80 0 -1
1 19 34 1 0
1 0 5 1 0
1 31 34 0 1
1 0 5 1 0
1 0 5 1 0
1 31 46 -1 0
1 19 46 0 -1
1 0 5 1 0
1 58 40 -0.1950903 0.9807853
1 5 1.5607226 0 -1
1 57.3910363 43.0614675 -0.5555702 0.8314696
1 5 1.5607226 0 -1
1 5 1.5607226 0 -1
1 55.6568542 45.6568542 -0.8314696 0.5555702
1 53.0614675 47.3910363 -0.9807853 0.1950903
1 5 1.5607226 0 -1
1 50 48 -0.9807853 -0.1950903
1 5 1.5607226 0 -1
1 46.9385325 47.3910363 -0.8314696 -0.5555702
1 5 1.5607226 0 -1
1 44.3431458 45.6568542 -0.5555702 -0.8314696
1 5 1.5607226 0 -1
1 42.6089637 43.0614675 -0.1950903 -0.9807853
1 5 1.5607226 0 -1
1 5 1.5607226 0 -1
1 42 40 0.1950903 -0.9807853
1 42.6089637 36.9385325 0.5555702 -0.8314696
1 5 1.5607226 0 -1
1 44.3431458 34.3431458 0.8314696 -0.5555702
1 5 1.5607226 0 -1
1 5 1.5607226 0 -1
1 46.9385325 32.6089637 0.9807853 -0.1950903
1 50 32 0.9807853 0.1950903
1 5 1.5607226 0 -1
1 5 1.5607226 0 -1
1 53.0614675 32.6089637 0.8314696 0.5555702
1 55.6568542 34.3431458 0.5555702 0.8314696
1 5 1.5607226 0 -1
1 57.3910363 36.9385325 0.1950903 0.9807853
1 5 1.5607226 0 -1
1 83 40 -0.5 0.8660254
1 5 4 0 -1
1 5 4 0 -1
1 79 46.9282032 -1 0
1 5 4 0 -1
1 71 46.9282032 -0.5 -0.8660254
1 67 40 0.5 -0.8660254
1 5 4 0 -1
1 5 4 0 -1
1 71 33.0717968 1 0
1 5 4 0 -1
1 79 33.0717968 0.5 0.8660254
1 -100 0 1 0
1 100 -80 -1 0
1 0 0 1 0
1 100 0 0 -1
1 0 0 1 0
1 0 0 1 0
1 0 -80 0 1
1 -80 0 1 0
1 31 -46 -1 0
1 0 0 1 0
1 31 -34 0 -1
1 0 0 1 0
1 19 -34 1 0
1 0 0 1 0
1 19 -46 0 1
1 0 0 1 0
1 0 1.5607226 0 -1
1 58 -40 -0.1950903 -0.9807853
1 0 1.5607226 0 -1
1 57.3910363 -36.9385325 0.1950903 -0.9807853
1 55.6568542 -34.3431458 0.5555702 -0.8314696
1 0 1.5607226 0 -1
1 0 1.5607226 0 -1
1 53.0614675 -32.6089637 0.8314696 -0.5555702
1 50 -32 0.9807853 -0.1950903
1 0 1.5607226 0 -1
1 0 1.5607226 0 -1
1 46.9385325 -32.6089637 0.9807853 0.1950903
1 0 1.5607226 0 -1
1 44.3431458 -34.3431458 0.8314696 0.5555702
1 42.6089637 -36.9385325 0.5555702 0.8314696
1 0 1.5607226 0 -1
1 42 -40 0.1950903 0.9807853
1 0 1.5607226 0 -1
1 42.6089637 -43.0614675 -0.1950903 0.9807853
1 0 1.5607226 0 -1
1 0 1.5607226 0 -1
1 44.3431458 -45.6568542 -0.5555702 0.8314696
1 0 1.5607226 0 -1
1 46.9385325 -47.3910363 -0.8314696 0.5555702
1 0 1.5607226 0 -1
1 50 -48 -0.9807853 0.1950903
1 53.0614675 -47.3910363 -0.9807853 -0.1950903
1 0 1.5607226 0 -1
1 55.6568542 -45.6568542 -0.8314696 -0.5555702
1 0 1.5607226 0 -1
1 57.3910363 -43.0614675 -0.5555702 -0.8314696
1 0 1.5607226 0 -1
1 83 -40 -0.5 -0.8660254
1 0 4 0 -1
1 79 -33.0717968 0.5 -0.8660254
1 0 4 0 -1
1 0 4 0 -1
1 71 -33.0717968 1 0
1 67 -40 0.5 0.8660254
1 0 4 0 -1
1 71 -46.9282032 -0.5 0.8660254
1 0 4 0 -1
1 0 4 0 -1
1 79 -46.9282032 -1 0
1 0 0 0 1
1 100 0 0 1
1 0 0 0 1
1 0 0 0 1
1 80 0 0 1
1 -100 0 0 1
1 -80 0 0 1
1 0 0 0 1
1 0 0 0 1
1 12 0 0 1
1 0 0 0 1
1 12 0 0 1
1 0 0 0 1
1 12 0 0 1
1 12 0 0 1
1 0 0 0 1
1 0 1.5607226 1 0
1 0 -1.5607226 1 0
1 0 -1.5607226 1 0
1 0 1.5607226 1 0
1 0 1.5607226 1 0
1 0 -1.5607226 1 0
1 0 1.5607226 1 0
1 0 -1.5607226 1 0
1 0 -1.5607226 1 0
1 0 1.5607226 1 0
1 0 1.5607226 1 0
1 0 -1.5607226 1 0
1 0 1.5607226 1 0
1 0 -1.5607226 1 0
1 0 -1.5607226 1 0
1 0 1.5607226 1 0
1 0 1.5607226 1 0
1 0 -1.5607226 1 0
1 0 1.5607226 1 0
1 0 -1.5607226 1 0
1 0 -1.5607226 1 0
1 0 1.5607226 1 0
1 0 1.5607226 1 0
1 0 -1.5607226 1 0
1 0 1.5607226 1 0
1 0 -1.5607226 1 0
1 0 -1.5607226 1 0
1 0 1.5607226 1 0
1 0 1.5607226 1 0
1 0 -1.5607226 1 0
1 0 -1.5607226 1 0
1 0 1.5607226 1 0
1 0 -4 1 0
1 0 4 1 0
1 0 -4 1 0
1 0 4 1 0
1 0 4 1 0
1 0 -4 1 0
1 0 -4 1 0
1 0 4 1 0
1 0 -4 1 0
1 0 4 1 0
1 0 4 1 0
1 0 -4 1 0
Curves 90
1 0 0 5 1 0 0
1 100 0 5 0 1 0
1 100 80 5 -1 0 0
1 0 80 5 0 -1 0
1 19 34 5 1 0 0
1 31 34 5 0 1 0
1 31 46 5 -1 0 0
1 19 46 5 0 -1 0
1 58 40 5 -0.1950903 0.9807853 0
1 57.3910363 43.0614675 5 -0.5555702 0.8314696 0
1 55.6568542 45.6568542 5 -0.8314696 0.5555702 0
1 53.0614675 47.3910363 5 -0.9807853 0.1950903 0
1 50 48 5 -0.9807853 -0.1950903 0
1 46.9385325 47.3910363 5 -0.8314696 -0.5555702 0
1 44.3431458 45.6568542 5 -0.5555702 -0.8314696 0
1 42.6089637 43.0614675 5 -0.1950903 -0.9807853 0
1 42 40 5 0.1950903 -0.9807853 0
1 42.6089637 36.9385325 5 0.5555702 -0.8314696 0
1 44.3431458 34.3431458 5 0.8314696 -0.5555702 0
1 46.9385325 32.6089637 5 0.9807853 -0.1950903 0
1 50 32 5 0.9807853 0.1950903 0
1 53.0614675 32.6089637 5 0.8314696 0.5555702 0
1 55.6568542 34.3431458 5 0.5555702 0.8314696 0
1 57.3910363 36.9385325 5 0.1950903 0.9807853 0
1 83 40 5 -0.5 0.8660254 0
1 79 46.9282032 5 -1 0 0
1 71 46.9282032 5 -0.5 -0.8660254 0
1 67 40 5 0.5 -0.8660254 0
1 71 33.0717968 5 1 0 0
1 79 33.0717968 5 0.5 0.8660254 0
1 100 80 0 -1 0 0
1 100 0 0 0 1 0
1 0 0 0 1 0 0
1 0 80 0 0 -1 0
1 31 46 0 -1 0 0
1 31 34 0 0 1 0
1 19 34 0 1 0 0
1 19 46 0 0 -1 0
1 58 40 0 -0.1950903 0.9807853 0
1 57.3910363 36.9385325 0 0.1950903 0.9807853 0
1 55.6568542 34.3431458 0 0.5555702 0.8314696 0
1 53.0614675 32.6089637 0 0.8314696 0.5555702 0
1 50 32 0 0.9807853 0.1950903 0
1 46.9385325 32.6089637 0 0.9807853 -0.1950903 0
1 44.3431458 34.3431458 0 0.8314696 -0.5555702 0
1 42.6089637 36.9385325 0 0.5555702 -0.8314696 0
1 42 40 0 0.1950903 -0.9807853 0
1 42.6089637 43.0614675 0 -0.1950903 -0.9807853 0
1 44.3431458 45.6568542 0 -0.5555702 -0.8314696 0
1 46.9385325 47.3910363 0 -0.8314696 -0.5555702 0
1 50 48 0 -0.9807853 -0.1950903 0
1 53.0614675 47.3910363 0 -0.9807853 0.1950903 0
1 55.6568542 45.6568542 0 -0.8314696 0.5555702 0
1 57.3910363 43.0614675 0 -0.5555702 0.8314696 0
1 83 40 0 -0.5 0.8660254 0
1 79 33.0717968 0 0.5 0.8660254 0
1 71 33.0717968 0 1 0 0
1 67 40 0 0.5 -0.8660254 0
1 71 46.9282032 0 -0.5 -0.8660254 0
1 79 46.9282032 0 -1 0 0
1 100 0 0 0 0 1
1 0 0 0 0 0 1
1 100 80 0 0 0 1
1 0 80 0 0 0 1
1 31 34 0 0 0 1
1 19 34 0 0 0 1
1 31 46 0 0 0 1
1 19 46 0 0 0 1
1 57.3910363 43.0614675 0 0 0 1
1 58 40 0 0 0 1
1 55.6568542 45.6568542 0 0 0 1
1 53.0614675 47.3910363 0 0 0 1
1 50 48 0 0 0 1
1 46.9385325 47.3910363 0 0 0 1
1 44.3431458 45.6568542 0 0 0 1
1 42.6089637 43.0614675 0 0 0 1
1 42 40 0 0 0 1
1 42.6089637 36.9385325 0 0 0 1
1 44.3431458 34.3431458 0 0 0 1
1 46.9385325 32.6089637 0 0 0 1
1 50 32 0 0 0 1
1 53.0614675 32.6089637 0 0 0 1
1 55.6568542 34.3431458 0 0 0 1
1 57.3910363 36.9385325 0 0 0 1
1 79 46.9282032 0 0 0 1
1 83 40 0 0 0 1
1 71 46.9282032 0 0 0 1
1 67 40 0 0 0 1
1 71 33.0717968 0 0 0 1
1 79 33.0717968 0 0 0 1
Polygon3D 0
PolygonOnTriangulations 0
Surfaces 32
1 0 0 5 0 0 1 1 0 0 0 1 0
1 0 0 0 0 0 -1 1 0 0 0 -1 0
1 0 0 0 0 -1 0 1 0 0 0 0 1
1 100 0 0 1 0 0 0 1 0 0 0 1
1 0 80 0 0 1 0 -1 0 0 0 0 1
1 0 0 0 -1 0 0 0 -1 0 0 0 1
1 19 34 0 0 -1 0 1 0 0 0 0 1
1 31 34 0 1 0 0 0 1 0 0 0 1
1 31 46 0 0 1 0 -1 0 0 0 0 1
1 19 46 0 -1 0 0 0 -1 0 0 0 1
1 57.8462822 41.5607226 0 0.9807853 0.1950903 0 0 0 1 0.1950903 -0.9807853 0
1 56.6517569 44.4445619 0 0.8314696 0.5555702 0 0 0 1 0.5555702 -0.8314696 0
1 54.4445619 46.6517569 0 0.5555702 0.8314696 0 0 0 1 0.8314696 -0.5555702 0
1 51.5607226 47.8462822 0 0.1950903 0.9807853 0 0 0 1 0.9807853 -0.1950903 0
1 48.4392774 47.8462822 0 -0.1950903 0.9807853 0 0 0 1 0.9807853 0.1950903 0
1 45.5554381 46.6517569 0 -0.5555702 0.8314696 0 0 0 1 0.8314696 0.5555702 0
1 43.3482431 44.4445619 0 -0.8314696 0.5555702 0 0 0 1 0.5555702 0.8314696 0
1 42.1537178 41.5607226 0 -0.9807853 0.1950903 0 0 0 1 0.1950903 0.9807853 0
1 42.1537178 38.4392774 0 -0.9807853 -0.1950903 0 0 0 1 -0.1950903 0.9807853 0
1 43.3482431 35.5554381 0 -0.8314696 -0.5555702 0 0 0 1 -0.5555702 0.8314696 0
1 45.5554381 33.3482431 0 -0.5555702 -0.8314696 0 0 0 1 -0.8314696 0.5555702 0
1 48.4392774 32.1537178 0 -0.1950903 -0.9807853 0 0 0 1 -0.9807853 0.1950903 0
1 51.5607226 32.1537178 0 0.1950903 -0.9807853 0 0 0 1 -0.9807853 -0.1950903 0
1 54.4445619 33.3482431 0 0.5555702 -0.8314696 0 0 0 1 -0.8314696 -0.5555702 0
1 56.6517569 35.5554381 0 0.8314696 -0.5555702 0 0 0 1 -0.5555702 -0.8314696 0
1 57.8462822 38.4392774 0 0.9807853 -0.1950903 0 0 0 1 -0.1950903 -0.9807853 0
1 81.9282032 44 0 0.8660254 0.5 0 0 0 1 0.5 -0.8660254 0
1 75 48 0 0 1 0 0 0 1 1 0 0
1 68.0717968 44 0 -0.8660254 0.5 0 0 0 1 0.5 0.8660254 0
1 68.0717968 36 0 -0.8660254 -0.5 0 0 0 1 -0.5 0.8660254 0
1 75 32 0 0 -1 0 0 0 1 -1 0 0
1 81.9282032 36 0 0.8660254 -0.5 0 0 0 1 -0.5 -0.8660254 0
Triangulations 0

TShapes 223
Ve
0.0001
0 0 5
0 0

0101101
*
Ve
0.0001
100 0 5
0 0

0101101
*
Ve
0.0001
100 80 5
0 0

0101101
*
Ve
0.0001
0 80 5
0 0

0101101
*
Ve
0.0001
31 34 5
0 0

0101101
*
Ve
0.0001
19 34 5
0 0

0101101
*
Ve
0.0001
31 46 5
0 0

0101101
*
Ve
0.0001
19 46 5
0 0

0101101
*
Ve
0.0001
57.3910363 43.0614675 5
0 0

0101101
*
Ve
0.0001
58 40 5
0 0

0101101
*
Ve
0.0001
55.6568542 45.6568542 5
0 0

0101101
*
Ve
0.0001
53.0614675 47.3910363 5
0 0

0101101
*
Ve
0.0001
50 48 5
0 0

0101101
*
Ve
0.0001
46.9385325 47.3910363 5
0 0

0101101
*
Ve
0.0001
44.3431458 45.6568542 5
0 0

0101101
*
Ve
0.0001
42.6089637 43.0614675 5
0 0

0101101
*
Ve
0.0001
42 40 5
0 0

0101101
*
Ve
0.0001
42.6089637 36.9385325 5
0 0

0101101
*
Ve
0.0001
44.3431458 34.3431458 5
0 0

0101101
*
Ve
0.0001
46.9385325 32.6089637 5
0 0

0101101
*
Ve
0.0001
50 32 5
0 0

0101101
*
Ve
0.0001
53.0614675 32.6089637 5
0 0

0101101
*
Ve
0.0001
55.6568542 34.3431458 5
0 0

0101101
*
Ve
0.0001
57.3910363 36.9385325 5
0 0

0101101
*
Ve
0.0001
79 46.9282032 5
0 0

0101101
*
Ve
0.0001
83 40 5
0 0

0101101
*
Ve
0.0001
71 46.9282032 5
0 0

0101101
*
Ve
0.0001
67 40 5
0 0

0101101
*
Ve
0.0001
71 33.0717968 5
0 0

0101101
*
Ve
0.0001
79 33.0717968 5
0 0

0101101
*
Ve
0.0001
0 80 0
0 0

0101101
*
Ve
0.0001
100 80 0
0 0

0101101
*
Ve
0.0001
100 0 0
0 0

0101101
*
Ve
0.0001
0 0 0
0 0

0101101
*
Ve
0.0001
31 46 0
0 0

0101101
*
Ve
0.0001
19 46 0
0 0

0101101
*
Ve
0.0001
31 34 0
0 0

0101101
*
Ve
0.0001
19 34 0
0 0

0101101
*
Ve
0.0001
58 40 0
0 0

0101101
*
Ve
0.0001
57.3910363 43.0614675 0
0 0

0101101
*
Ve
0.0001
57.3910363 36.9385325 0
0 0

0101101
*
Ve
0.0001
55.6568542 34.3431458 0
0 0

0101101
*
Ve
0.0001
53.0614675 32.6089637 0
0 0

0101101
*
Ve
0.0001
50 32 0
0 0

0101101
*
Ve
0.0001
46.9385325 32.6089637 0
0 0

0101101
*
Ve
0.0001
44.3431458 34.3431458 0
0 0

0101101
*
Ve
0.0001
42.6089637 36.9385325 0
0 0

0101101
*
Ve
0.0001
42 40 0
0 0

0101101
*
Ve
0.0001
42.6089637 43.0614675 0
0 0

0101101
*
Ve
0.0001
44.3431458 45.6568542 0
0 0

0101101
*
Ve
0.0001
46.9385325 47.3910363 0
0 0

0101101
*
Ve
0.0001
50 48 0
0 0

0101101
*
Ve
0.0001
53.0614675 47.3910363 0
0 0

0101101
*
Ve
0.0001
55.6568542 45.6568542 0
0 0

0101101
*
Ve
0.0001
83 40 0
0 0

0101101
*
Ve
0.0001
79 46.9282032 0
0 0

0101101
*
Ve
0.0001
79 33.0717968 0
0 0

0101101
*
Ve
0.0001
71 33.0717968 0
0 0

0101101
*
Ve
0.0001
67 40 0
0 0

0101101
*
Ve
0.0001
71 46.9282032 0
0 0

0101101
*
Ed
 0.0001 1 1 0
1  1 0 0 100
4 C0 1 0 2 0
4 C0 2 0 2 0
0

0101000
+223 0 -222 0 *
Ed
 0.0001 1 1 0
1  2 0 0 80
4 C0 3 0 2 0
4 C0 4 0 2 0
0

0101000
+222 0 -221 0 *
Ed
 0.0001 1 1 0
1  3 0 0 100
4 C0 5 0 2 0
4 C0 6 0 2 0
0

0101000
+221 0 -220 0 *
Ed
 0.0001 1 1 0
1  4 0 0 80
4 C0 7 0 2 0
4 C0 8 0 2 0
0

0101000
+223 0 -220 0 *
Ed
 0.0001 1 1 0
1  5 0 0 12
4 C0 9 0 2 0
4 C0 10 0 2 0
0

0101000
+219 0 -218 0 *
Ed
 0.0001 1 1 0
1  6 0 0 12
4 C0 11 0 2 0
4 C0 12 0 2 0
0

0101000
+219 0 -217 0 *
Ed
 0.0001 1 1 0
1  7 0 0 12
4 C0 13 0 2 0
4 C0 14 0 2 0
0

0101000
+217 0 -216 0 *
Ed
 0.0001 1 1 0
1  8 0 0 12
4 C0 15 0 2 0
4 C0 16 0 2 0
0

0101000
+218 0 -216 0 *
Ed
 0.0001 1 1 0
1  9 0 0 3.1214451522580506
4 C0 17 0 2 0
4 C0 18 0 2 0
0

0101000
+215 0 -214 0 *
Ed
 0.0001 1 1 0
1  10 0 0 3.121445152258055
4 C0 19 0 2 0
4 C0 20 0 2 0
0

0101000
+215 0 -213 0 *
Ed
 0.0001 1 1 0
1  11 0 0 3.121445152258055
4 C0 21 0 2 0
4 C0 22 0 2 0
0

0101000
+213 0 -212 0 *
Ed
 0.0001 1 1 0
1  12 0 0 3.1214451522580506
4 C0 23 0 2 0
4 C0 24 0 2 0
0

0101000
+212 0 -211 0 *
Ed
 0.0001 1 1 0
1  13 0 0 3.1214451522580506
4 C0 25 0 2 0
4 C0 26 0 2 0
0

0101000
+211 0 -210 0 *
Ed
 0.0001 1 1 0
1  14 0 0 3.121445152258055
4 C0 27 0 2 0
4 C0 28 0 2 0
0

0101000
+210 0 -209 0 *
Ed
 0.0001 1 1 0
1  15 0 0 3.121445152258055
4 C0 29 0 2 0
4 C0 30 0 2 0
0

0101000
+209 0 -208 0 *
Ed
 0.0001 1 1 0
1  16 0 0 3.1214451522580506
4 C0 31 0 2 0
4 C0 32 0 2 0
0

0101000
+208 0 -207 0 *
Ed
 0.0001 1 1 0
1  17 0 0 3.12144515225805
4 C0 33 0 2 0
4 C0 34 0 2 0
0

0101000
+207 0 -206 0 *
Ed
 0.0001 1 1 0
1  18 0 0 3.121445152258055
4 C0 35 0 2 0
4 C0 36 0 2 0
0

0101000
+206 0 -205 0 *
Ed
 0.0001 1 1 0
1  19 0 0 3.1214451522580453
4 C0 37 0 2 0
4 C0 38 0 2 0
0

0101000
+205 0 -204 0 *
Ed
 0.0001 1 1 0
1  20 0 0 3.1214451522580586
4 C0 39 0 2 0
4 C0 40 0 2 0
0

0101000
+204 0 -203 0 *
Ed
 0.0001 1 1 0
1  21 0 0 3.1214451522580506
4 C0 41 0 2 0
4 C0 42 0 2 0
0

0101000
+203 0 -202 0 *
Ed
 0.0001 1 1 0
1  22 0 0 3.121445152258049
4 C0 43 0 2 0
4 C0 44 0 2 0
0

0101000
+202 0 -201 0 *
Ed
 0.0001 1 1 0
1  23 0 0 3.1214451522580493
4 C0 45 0 2 0
4 C0 46 0 2 0
0

0101000
+201 0 -200 0 *
Ed
 0.0001 1 1 0
1  24 0 0 3.121445152258059
4 C0 47 0 2 0
4 C0 48 0 2 0
0

0101000
+214 0 -200 0 *
Ed
 0.0001 1 1 0
1  25 0 0 7.999999999999998
4 C0 49 0 2 0
4 C0 50 0 2 0
0

0101000
+199 0 -198 0 *
Ed
 0.0001 1 1 0
1  26 0 0 8
4 C0 51 0 2 0
4 C0 52 0 2 0
0

0101000
+199 0 -197 0 *
Ed
 0.0001 1 1 0
1  27 0 0 7.999999999999998
4 C0 53 0 2 0
4 C0 54 0 2 0
0

0101000
+197 0 -196 0 *
Ed
 0.0001 1 1 0
1  28 0 0 7.999999999999998
4 C0 55 0 2 0
4 C0 56 0 2 0
0

0101000
+196 0 -195 0 *
Ed
 0.0001 1 1 0
1  29 0 0 8
4 C0 57 0 2 0
4 C0 58 0 2 0
0

0101000
+195 0 -194 0 *
Ed
 0.0001 1 1 0
1  30 0 0 7.999999999999998
4 C0 59 0 2 0
4 C0 60 0 2 0
0

0101000
+198 0 -194 0 *
Ed
 0.0001 1 1 0
1  31 0 0 100
4 C0 61 0 2 0
4 C0 62 0 2 0
0

0101000
+193 0 -192 0 *
Ed
 0.0001 1 1 0
1  32 0 0 80
4 C0 63 0 2 0
4 C0 64 0 2 0
0

0101000
+192 0 -191 0 *
Ed
 0.0001 1 1 0
1  33 0 0 100
4 C0 65 0 2 0
4 C0 66 0 2 0
0

0101000
+191 0 -190 0 *
Ed
 0.0001 1 1 0
1  34 0 0 80
4 C0 67 0 2 0
4 C0 68 0 2 0
0

0101000
+193 0 -190 0 *
Ed
 0.0001 1 1 0
1  35 0 0 12
4 C0 69 0 2 0
4 C0 70 0 2 0
0

0101000
+189 0 -188 0 *
Ed
 0.0001 1 1 0
1  36 0 0 12
4 C0 71 0 2 0
4 C0 72 0 2 0
0

0101000
+189 0 -187 0 *
Ed
 0.0001 1 1 0
1  37 0 0 12
4 C0 73 0 2 0
4 C0 74 0 2 0
0

0101000
+187 0 -186 0 *
Ed
 0.0001 1 1 0
1  38 0 0 12
4 C0 75 0 2 0
4 C0 76 0 2 0
0

0101000
+188 0 -186 0 *
Ed
 0.0001 1 1 0
1  39 0 0 3.1214451522580506
4 C0 77 0 2 0
4 C0 78 0 2 0
0

0101000
+185 0 -184 0 *
Ed
 0.0001 1 1 0
1  40 0 0 3.121445152258059
4 C0 79 0 2 0
4 C0 80 0 2 0
0

0101000
+185 0 -183 0 *
Ed
 0.0001 1 1 0
1  41 0 0 3.1214451522580493
4 C0 81 0 2 0
4 C0 82 0 2 0
0

0101000
+183 0 -182 0 *
Ed
 0.0001 1 1 0
1  42 0 0 3.121445152258049
4 C0 83 0 2 0
4 C0 84 0 2 0
0

0101000
+182 0 -181 0 *
Ed
 0.0001 1 1 0
1  43 0 0 3.1214451522580506
4 C0 85 0 2 0
4 C0 86 0 2 0
0

0101000
+181 0 -180 0 *
Ed
 0.0001 1 1 0
1  44 0 0 3.1214451522580586
4 C0 87 0 2 0
4 C0 88 0 2 0
0

0101000
+180 0 -179 0 *
Ed
 0.0001 1 1 0
1  45 0 0 3.1214451522580453
4 C0 89 0 2 0
4 C0 90 0 2 0
0

0101000
+179 0 -178 0 *
Ed
 0.0001 1 1 0
1  46 0 0 3.121445152258055
4 C0 91 0 2 0
4 C0 92 0 2 0
0

0101000
+178 0 -177 0 *
Ed
 0.0001 1 1 0
1  47 0 0 3.12144515225805
4 C0 93 0 2 0
4 C0 94 0 2 0
0

0101000
+177 0 -176 0 *
Ed
 0.0001 1 1 0
1  48 0 0 3.1214451522580506
4 C0 95 0 2 0
4 C0 96 0 2 0
0

0101000
+176 0 -175 0 *
Ed
 0.0001 1 1 0
1  49 0 0 3.121445152258055
4 C0 97 0 2 0
4 C0 98 0 2 0
0

0101000
+175 0 -174 0 *
Ed
 0.0001 1 1 0
1  50 0 0 3.121445152258055
4 C0 99 0 2 0
4 C0 100 0 2 0
0

0101000
+174 0 -173 0 *
Ed
 0.0001 1 1 0
1  51 0 0 3.1214451522580506
4 C0 101 0 2 0
4 C0 102 0 2 0
0

0101000
+173 0 -172 0 *
Ed
 0.0001 1 1 0
1  52 0 0 3.1214451522580506
4 C0 103 0 2 0
4 C0 104 0 2 0
0

0101000
+172 0 -171 0 *
Ed
 0.0001 1 1 0
1  53 0 0 3.121445152258055
4 C0 105 0 2 0
4 C0 106 0 2 0
0

0101000
+171 0 -170 0 *
Ed
 0.0001 1 1 0
1  54 0 0 3.121445152258055
4 C0 107 0 2 0
4 C0 108 0 2 0
0

0101000
+184 0 -170 0 *
Ed
 0.0001 1 1 0
1  55 0 0 7.999999999999998
4 C0 109 0 2 0
4 C0 110 0 2 0
0

0101000
+169 0 -168 0 *
Ed
 0.0001 1 1 0
1  56 0 0 7.999999999999998
4 C0 111 0 2 0
4 C0 112 0 2 0
0

0101000
+169 0 -167 0 *
Ed
 0.0001 1 1 0
1  57 0 0 8
4 C0 113 0 2 0
4 C0 114 0 2 0
0

0101000
+167 0 -166 0 *
Ed
 0.0001 1 1 0
1  58 0 0 7.999999999999998
4 C0 115 0 2 0
4 C0 116 0 2 0
0

0101000
+166 0 -165 0 *
Ed
 0.0001 1 1 0
1  59 0 0 7.999999999999998
4 C0 117 0 2 0
4 C0 118 0 2 0
0

0101000
+165 0 -164 0 *
Ed
 0.0001 1 1 0
1  60 0 0 8
4 C0 119 0 2 0
4 C0 120 0 2 0
0

0101000
+168 0 -164 0 *
Ed
 0.0001 1 1 0
1  61 0 0 5
4 C0 121 0 2 0
4 C0 122 0 2 0
0

0101000
+222 0 -191 0 *
Ed
 0.0001 1 1 0
1  62 0 0 5
4 C0 123 0 2 0
4 C0 124 0 2 0
0

0101000
+223 0 -190 0 *
Ed
 0.0001 1 1 0
1  63 0 0 5
4 C0 125 0 2 0
4 C0 126 0 2 0
0

0101000
+221 0 -192 0 *
Ed
 0.0001 1 1 0
1  64 0 0 5
4 C0 127 0 2 0
4 C0 128 0 2 0
0

0101000
+220 0 -193 0 *
Ed
 0.0001 1 1 0
1  65 0 0 5
4 C0 129 0 2 0
4 C0 130 0 2 0
0

0101000
+219 0 -187 0 *
Ed
 0.0001 1 1 0
1  66 0 0 5
4 C0 131 0 2 0
4 C0 132 0 2 0
0

0101000
+218 0 -186 0 *
Ed
 0.0001 1 1 0
1  67 0 0 5
4 C0 133 0 2 0
4 C0 134 0 2 0
0

0101000
+217 0 -189 0 *
Ed
 0.0001 1 1 0
1  68 0 0 5
4 C0 135 0 2 0
4 C0 136 0 2 0
0

0101000
+216 0 -188 0 *
Ed
 0.0001 1 1 0
1  69 0 0 5
4 C0 137 0 2 0
4 C0 138 0 2 0
0

0101000
+215 0 -184 0 *
Ed
 0.0001 1 1 0
1  70 0 0 5
4 C0 139 0 2 0
4 C0 140 0 2 0
0

0101000
+214 0 -185 0 *
Ed
 0.0001 1 1 0
1  71 0 0 5
4 C0 141 0 2 0
4 C0 142 0 2 0
0

0101000
+213 0 -170 0 *
Ed
 0.0001 1 1 0
1  72 0 0 5
4 C0 143 0 2 0
4 C0 144 0 2 0
0

0101000
+212 0 -171 0 *
Ed
 0.0001 1 1 0
1  73 0 0 5
4 C0 145 0 2 0
4 C0 146 0 2 0
0

0101000
+211 0 -172 0 *
Ed
 0.0001 1 1 0
1  74 0 0 5
4 C0 147 0 2 0
4 C0 148 0 2 0
0

0101000
+210 0 -173 0 *
Ed
 0.0001 1 1 0
1  75 0 0 5
4 C0 149 0 2 0
4 C0 150 0 2 0
0

0101000
+209 0 -174 0 *
Ed
 0.0001 1 1 0
1  76 0 0 5
4 C0 151 0 2 0
4 C0 152 0 2 0
0

0101000
+208 0 -175 0 *
Ed
 0.0001 1 1 0
1  77 0 0 5
4 C0 153 0 2 0
4 C0 154 0 2 0
0

0101000
+207 0 -176 0 *
Ed
 0.0001 1 1 0
1  78 0 0 5
4 C0 155 0 2 0
4 C0 156 0 2 0
0

0101000
+206 0 -177 0 *
Ed
 0.0001 1 1 0
1  79 0 0 5
4 C0 157 0 2 0
4 C0 158 0 2 0
0

0101000
+205 0 -178 0 *
Ed
 0.0001 1 1 0
1  80 0 0 5
4 C0 159 0 2 0
4 C0 160 0 2 0
0

0101000
+204 0 -179 0 *
Ed
 0.0001 1 1 0
1  81 0 0 5
4 C0 161 0 2 0
4 C0 162 0 2 0
0

0101000
+203 0 -180 0 *
Ed
 0.0001 1 1 0
1  82 0 0 5
4 C0 163 0 2 0
4 C0 164 0 2 0
0

0101000
+202 0 -181 0 *
Ed
 0.0001 1 1 0
1  83 0 0 5
4 C0 165 0 2 0
4 C0 166 0 2 0
0

0101000
+201 0 -182 0 *
Ed
 0.0001 1 1 0
1  84 0 0 5
4 C0 167 0 2 0
4 C0 168 0 2 0
0

0101000
+200 0 -183 0 *
Ed
 0.0001 1 1 0
1  85 0 0 5
4 C0 169 0 2 0
4 C0 170 0 2 0
0

0101000
+199 0 -168 0 *
Ed
 0.0001 1 1 0
1  86 0 0 5
4 C0 171 0 2 0
4 C0 172 0 2 0
0

0101000
+198 0 -169 0 *
Ed
 0.0001 1 1 0
1  87 0 0 5
4 C0 173 0 2 0
4 C0 174 0 2 0
0

0101000
+197 0 -164 0 *
Ed
 0.0001 1 1 0
1  88 0 0 5
4 C0 175 0 2 0
4 C0 176 0 2 0
0

0101000
+196 0 -165 0 *
Ed
 0.0001 1 1 0
1  89 0 0 5
4 C0 177 0 2 0
4 C0 178 0 2 0
0

0101000
+195 0 -166 0 *
Ed
 0.0001 1 1 0
1  90 0 0 5
4 C0 179 0 2 0
4 C0 180 0 2 0
0

0101000
+194 0 -167 0 *
Wi

0101100
+163 0 +162 0 +161 0 -160 0 *
Wi

0101100
+159 0 -158 0 -157 0 +156 0 *
Wi

0101100
+155 0 -154 0 -153 0 -152 0 -151 0 -150 0 -149 0 -148 0 -147 0 -146 0 -145 0 -144 0 -143 0 -142 0 -141 0 +140 0 *
Wi

0101100
+139 0 -138 0 -137 0 -136 0 -135 0 +134 0 *
Wi

0101100
+133 0 +132 0 +131 0 -130 0 *
Wi

0101100
+129 0 -128 0 -127 0 +126 0 *
Wi

0101100
+125 0 -124 0 -123 0 -122 0 -121 0 -120 0 -119 0 -118 0 -117 0 -116 0 -115 0 -114 0 -113 0 -112 0 -111 0 +110 0 *
Wi

0101100
+109 0 -108 0 -107 0 -106 0 -105 0 +104 0 *
Wi

0101100
-131 0 +103 0 -163 0 -102 0 *
Wi

0101100
-132 0 +101 0 -162 0 -103 0 *
Wi

0101100
-133 0 +100 0 -161 0 -101 0 *
Wi

0101100
+130 0 +102 0 +160 0 -100 0 *
Wi

0101100
+127 0 +99 0 -159 0 -98 0 *
Wi

0101100
+128 0 +97 0 +158 0 -99 0 *
Wi

0101100
-129 0 +96 0 +157 0 -97 0 *
Wi

0101100
-126 0 +98 0 -156 0 -96 0 *
Wi

0101100
-125 0 +95 0 -155 0 -94 0 *
Wi

0101100
-110 0 +93 0 +154 0 -95 0 *
Wi

0101100
+111 0 +92 0 +153 0 -93 0 *
Wi

0101100
+112 0 +91 0 +152 0 -92 0 *
Wi

0101100
+113 0 +90 0 +151 0 -91 0 *
Wi

0101100
+114 0 +89 0 +150 0 -90 0 *
Wi

0101100
+115 0 +88 0 +149 0 -89 0 *
Wi

0101100
+116 0 +87 0 +148 0 -88 0 *
Wi

0101100
+117 0 +86 0 +147 0 -87 0 *
Wi

0101100
+118 0 +85 0 +146 0 -86 0 *
Wi

0101100
+119 0 +84 0 +145 0 -85 0 *
Wi

0101100
+120 0 +83 0 +144 0 -84 0 *
Wi

0101100
+121 0 +82 0 +143 0 -83 0 *
Wi

0101100
+122 0 +81 0 +142 0 -82 0 *
Wi

0101100
+123 0 +80 0 +141 0 -81 0 *
Wi

0101100
+124 0 +94 0 -140 0 -80 0 *
Wi

0101100
-109 0 +79 0 -139 0 -78 0 *
Wi

0101100
-104 0 +77 0 +138 0 -79 0 *
Wi

0101100
+105 0 +76 0 +137 0 -77 0 *
Wi

0101100
+106 0 +75 0 +136 0 -76 0 *
Wi

0101100
+107 0 +74 0 +135 0 -75 0 *
Wi

0101100
+108 0 +78 0 -134 0 -74 0 *
Fa
0  0.0001  1 0

0101000
+73 0 -72 0 -71 0 -70 0 *
Fa
0  0.0001  2 0

0101000
+69 0 -68 0 -67 0 -66 0 *
Fa
0  0.0001  3 0

0101000
+65 0 *
Fa
0  0.0001  4 0

0101000
+64 0 *
Fa
0  0.0001  5 0

0101000
+63 0 *
Fa
0  0.0001  6 0

0101000
+62 0 *
Fa
0  0.0001  7 0

0101000
+61 0 *
Fa
0  0.0001  8 0

0101000
+60 0 *
Fa
0  0.0001  9 0

0101000
+59 0 *
Fa
0  0.0001  10 0

0101000
+58 0 *
Fa
0  0.0001  11 0

0101000
+57 0 *
Fa
0  0.0001  12 0

0101000
+56 0 *
Fa
0  0.0001  13 0

0101000
+55 0 *
Fa
0  0.0001  14 0

0101000
+54 0 *
Fa
0  0.0001  15 0

0101000
+53 0 *
Fa
0  0.0001  16 0

0101000
+52 0 *
Fa
0  0.0001  17 0

0101000
+51 0 *
Fa
0  0.0001  18 0

0101000
+50 0 *
Fa
0  0.0001  19 0

0101000
+49 0 *
Fa
0  0.0001  20 0

0101000
+48 0 *
Fa
0  0.0001  21 0

0101000
+47 0 *
Fa
0  0.0001  22 0

0101000
+46 0 *
Fa
0  0.0001  23 0

0101000
+45 0 *
Fa
0  0.0001  24 0

0101000
+44 0 *
Fa
0  0.0001  25 0

0101000
+43 0 *
Fa
0  0.0001  26 0

0101000
+42 0 *
Fa
0  0.0001  27 0

0101000
+41 0 *
Fa
0  0.0001  28 0

0101000
+40 0 *
Fa
0  0.0001  29 0

0101000
+39 0 *
Fa
0  0.0001  30 0

0101000
+38 0 *
Fa
0  0.0001  31 0

0101000
+37 0 *
Fa
0  0.0001  32 0

0101000
+36 0 *
Sh

0101100
+35 0 +34 0 +33 0 +32 0 +31 0 +30 0 +29 0 -28 0 +27 0 +26 0 +25 0 +24 0 +23 0 +22 0 +21 0 +20 0 +19 0 +18 0 +17 0 +16 0 +15 0 +14 0 +13 0 +12 0 +11 0 +10 0 +9 0 +8 0 -7 0 -6 0 +5 0 +4 0 *
So

0100000
+3 0 *
Co

1100000
+2 0 *

+1 0
