DBRep_DrawableShape

CASCADE Topology V1, (c) Matra-Datavision
Locations 0
Curve2ds 3
1 0 0 0 3.14159265359
1 0 0 6.28318530718 0
1 6.28318530718 3.14159265359 -6.28318530718 0
Curves 3
2 0 0 0  0 -1 0.000000000000000000000000000000014997597826618  0.00000000000000006123233995736 -0.000000000000000000000000000000014997597826618 -1  1 0.000000000000000000000000000000000000000000000000918338008663237 0.00000000000000006123233995736  5
1 0 0 -5 1 0 0
1 0 0 5 1 0 0
Polygon3D 0
PolygonOnTriangulations 0
Surfaces 1
4 0 0 0 0 0 1 1 0 0 0 1 0 5
Triangulations 0

TShapes 9
Ve
1e-07
0 0 5
0 0

0101101
*
Ve
1e-07
0 0 -5
0 0

0101101
*
Ed
 1e-07 1 1 0
2  1 0 0 3.141592653589793
4 C0 1 0 2 0
0

0101000
+9 0 -8 0 *
Ed
 1e-07 1 0 0
1  2 0 0 1
4 C0 2 0 2 0
0

0101100
+8 0 -8 0 *
Ed
 1e-07 1 0 0
1  3 0 0 1
4 C0 3 0 2 0
0

0101100
+9 0 -9 0 *
Wi

0101100
+7 0 +5 0 -7 0 +6 0 *
Fa
0  0.0001  1 0

0101000
+4 0 *
Sh

0101100
+3 0 *
So

0100000
+2 0 *

+1 0
