DBRep_DrawableShape

CASCADE Topology V1, (c) Matra-Datavision
Locations 0
Curve2ds 5
1 0 -0.5 6.28318530718 0
7 1 17 19 0 0 -10 5.890486225480862 -10 5.497787143782138 -10 5.105088062083414 -10 4.71238898038469 -10 4.319689898685965 -10 3.9269908169872414 -10 3.5342917352885173 -10 3.141592653589793 -10 2.7488935718910694 -10 2.3561944901923453 -10 1.9634954084936214 -10 1.570796326794897 -10 1.1780972450961722 -10 0.7853981633974485 -10 0.39269908169872486 -10 0.00000000000000024492935982947064 -10 0 0 1 2 3 4 5 6 7 8 9 10 11 12 13 14 15 16 16
2 0 12.566370614359172 0 0 1 0 2
2 0 12.566370614359172 0 0 1 0 2
7 1 17 19 0 0 -0 5.890486225480862 -0 5.497787143782138 -0 5.105088062083414 -0 4.71238898038469 -0 4.319689898685965 0 3.9269908169872414 0 3.5342917352885173 0 3.141592653589793 0 2.7488935718910694 0 2.3561944901923453 0 1.9634954084936214 0 1.570796326794897 0 1.1780972450961722 0 0.7853981633974485 0 0.39269908169872486 0 0.00000000000000024492935982947064 0 0 0 1 2 3 4 5 6 7 8 9 10 11 12 13 14 15 16 16
Curves 3
2 0 0 0.5  -0 -0 -1  1 0 -0  0 -1 0  2
2 0 0 10  0 0 1  1 0 0  0 1 0  2
2 0 0 0  0 0 1  1 0 0  0 1 0  2
Polygon3D 0
PolygonOnTriangulations 0
Surfaces 3
2 0 0 0 -0 -0 -1 1 0 -0 0 -1 0 2
1 0 0 0 0 0 1 1 0 0 0 1 0
1 0 0 10 0 0 1 1 0 0 0 1 0
Triangulations 0

TShapes 13
Ve
1e-07
2 0 0
0 0

0101101
*
Ve
1e-07
2 0 10
0 0

0101101
*
Ed
 1e-07 1 1 0
2  1 0 0 10
4 C0 1 0 2 0
0

0101000
+13 0 -12 0 *
Ed
 1e-07 1 1 0
2  2 0 0 6.283185307179586
4 C0 2 0 2 0
4 C0 3 0 2 0
0

0101000
+12 0 -12 0 *
Ed
 1e-07 1 1 0
2  3 0 0 6.283185307179586
4 C0 4 0 2 0
4 C0 5 0 2 0
0

0101000
+13 0 -13 0 *
Wi

0101100
+11 0 +10 0 -11 0 +9 0 *
Wi

0101100
+9 0 *
Wi

0101100
+10 0 *
Fa
0  0.0001  1 0

0101000
+8 0 *
Fa
0  0.0001  2 0

0101000
+7 0 *
Fa
0  0.0001  3 0

0101000
+6 0 *
Sh

0101100
+5 0 -4 0 +3 0 *
So

0100000
+2 0 *

+1 0
