ISO-10303-21;
HEADER;
FILE_DESCRIPTION(('Multi-hole plate solid'),'2;1');
FILE_NAME('holed_plate','2026-06-09T00:00:00',('Author'),(''),'','','');
FILE_SCHEMA(('AUTOMOTIVE_DESIGN { 1 0 10303 214 1 1 1 1 }'));
ENDSEC;
DATA;
#1 = DIRECTION('',(1,0,0));
#2 = DIRECTION('',(0,1,0));
#3 = DIRECTION('',(-1,0,0));
#4 = DIRECTION('',(0,-1,0));
#5 = DIRECTION('',(0,0,1));
#6 = DIRECTION('',(0,0,-1));
#7 = VECTOR('',#1,1.0);
#8 = VECTOR('',#2,1.0);
#9 = VECTOR('',#3,1.0);
#10 = VECTOR('',#4,1.0);
#11 = VECTOR('',#5,1.0);
#12 = CARTESIAN_POINT('',(0,0,0));
#13 = CARTESIAN_POINT('',(100.0,0,0));
#14 = CARTESIAN_POINT('',(100.0,80.0,0));
#15 = CARTESIAN_POINT('',(0,80.0,0));
#16 = CARTESIAN_POINT('',(0,0,5.0));
#17 = CARTESIAN_POINT('',(100.0,0,5.0));
#18 = CARTESIAN_POINT('',(100.0,80.0,5.0));
#19 = CARTESIAN_POINT('',(0,80.0,5.0));
#20 = VERTEX_POINT('',#12);
#21 = VERTEX_POINT('',#13);
#22 = VERTEX_POINT('',#14);
#23 = VERTEX_POINT('',#15);
#24 = VERTEX_POINT('',#16);
#25 = VERTEX_POINT('',#17);
#26 = VERTEX_POINT('',#18);
#27 = VERTEX_POINT('',#19);
#28 = CARTESIAN_POINT('',(19.0,34.0,0));
#29 = CARTESIAN_POINT('',(31.0,34.0,0));
#30 = CARTESIAN_POINT('',(31.0,46.0,0));
#31 = CARTESIAN_POINT('',(19.0,46.0,0));
#32 = CARTESIAN_POINT('',(19.0,34.0,5.0));
#33 = CARTESIAN_POINT('',(31.0,34.0,5.0));
#34 = CARTESIAN_POINT('',(31.0,46.0,5.0));
#35 = CARTESIAN_POINT('',(19.0,46.0,5.0));
#36 = VERTEX_POINT('',#28);
#37 = VERTEX_POINT('',#29);
#38 = VERTEX_POINT('',#30);
#39 = VERTEX_POINT('',#31);
#40 = VERTEX_POINT('',#32);
#41 = VERTEX_POINT('',#33);
#42 = VERTEX_POINT('',#34);
#43 = VERTEX_POINT('',#35);
#44 = CARTESIAN_POINT('',(58.0,40.0,0));
#45 = CARTESIAN_POINT('',(57.391036260090296,43.06146745892072,0));
#46 = CARTESIAN_POINT('',(55.65685424949238,45.65685424949238,0));
#47 = CARTESIAN_POINT('',(53.06146745892072,47.391036260090296,0));
#48 = CARTESIAN_POINT('',(50.0,48.0,0));
#49 = CARTESIAN_POINT('',(46.93853254107928,47.391036260090296,0));
#50 = CARTESIAN_POINT('',(44.34314575050762,45.65685424949238,0));
#51 = CARTESIAN_POINT('',(42.608963739909704,43.06146745892072,0));
#52 = CARTESIAN_POINT('',(42.0,40.0,0));
#53 = CARTESIAN_POINT('',(42.608963739909704,36.93853254107928,0));
#54 = CARTESIAN_POINT('',(44.34314575050762,34.34314575050762,0));
#55 = CARTESIAN_POINT('',(46.938532541079276,32.60896373990971,0));
#56 = CARTESIAN_POINT('',(50.0,32.0,0));
#57 = CARTESIAN_POINT('',(53.06146745892072,32.608963739909704,0));
#58 = CARTESIAN_POINT('',(55.656854249492376,34.34314575050762,0));
#59 = CARTESIAN_POINT('',(57.39103626009029,36.938532541079276,0));
#60 = CARTESIAN_POINT('',(58.0,40.0,5.0));
#61 = CARTESIAN_POINT('',(57.391036260090296,43.06146745892072,5.0));
#62 = CARTESIAN_POINT('',(55.65685424949238,45.65685424949238,5.0));
#63 = CARTESIAN_POINT('',(53.06146745892072,47.391036260090296,5.0));
#64 = CARTESIAN_POINT('',(50.0,48.0,5.0));
#65 = CARTESIAN_POINT('',(46.93853254107928,47.391036260090296,5.0));
#66 = CARTESIAN_POINT('',(44.34314575050762,45.65685424949238,5.0));
#67 = CARTESIAN_POINT('',(42.608963739909704,43.06146745892072,5.0));
#68 = CARTESIAN_POINT('',(42.0,40.0,5.0));
#69 = CARTESIAN_POINT('',(42.608963739909704,36.93853254107928,5.0));
#70 = CARTESIAN_POINT('',(44.34314575050762,34.34314575050762,5.0));
#71 = CARTESIAN_POINT('',(46.938532541079276,32.60896373990971,5.0));
#72 = CARTESIAN_POINT('',(50.0,32.0,5.0));
#73 = CARTESIAN_POINT('',(53.06146745892072,32.608963739909704,5.0));
#74 = CARTESIAN_POINT('',(55.656854249492376,34.34314575050762,5.0));
#75 = CARTESIAN_POINT('',(57.39103626009029,36.938532541079276,5.0));
#76 = VERTEX_POINT('',#44);
#77 = VERTEX_POINT('',#45);
#78 = VERTEX_POINT('',#46);
#79 = VERTEX_POINT('',#47);
#80 = VERTEX_POINT('',#48);
#81 = VERTEX_POINT('',#49);
#82 = VERTEX_POINT('',#50);
#83 = VERTEX_POINT('',#51);
#84 = VERTEX_POINT('',#52);
#85 = VERTEX_POINT('',#53);
#86 = VERTEX_POINT('',#54);
#87 = VERTEX_POINT('',#55);
#88 = VERTEX_POINT('',#56);
#89 = VERTEX_POINT('',#57);
#90 = VERTEX_POINT('',#58);
#91 = VERTEX_POINT('',#59);
#92 = VERTEX_POINT('',#60);
#93 = VERTEX_POINT('',#61);
#94 = VERTEX_POINT('',#62);
#95 = VERTEX_POINT('',#63);
#96 = VERTEX_POINT('',#64);
#97 = VERTEX_POINT('',#65);
#98 = VERTEX_POINT('',#66);
#99 = VERTEX_POINT('',#67);
#100 = VERTEX_POINT('',#68);
#101 = VERTEX_POINT('',#69);
#102 = VERTEX_POINT('',#70);
#103 = VERTEX_POINT('',#71);
#104 = VERTEX_POINT('',#72);
#105 = VERTEX_POINT('',#73);
#106 = VERTEX_POINT('',#74);
#107 = VERTEX_POINT('',#75);
#108 = CARTESIAN_POINT('',(83.0,40.0,0));
#109 = CARTESIAN_POINT('',(79.0,46.92820323027551,0));
#110 = CARTESIAN_POINT('',(71.0,46.92820323027551,0));
#111 = CARTESIAN_POINT('',(67.0,40.0,0));
#112 = CARTESIAN_POINT('',(71.0,33.07179676972449,0));
#113 = CARTESIAN_POINT('',(79.0,33.07179676972449,0));
#114 = CARTESIAN_POINT('',(83.0,40.0,5.0));
#115 = CARTESIAN_POINT('',(79.0,46.92820323027551,5.0));
#116 = CARTESIAN_POINT('',(71.0,46.92820323027551,5.0));
#117 = CARTESIAN_POINT('',(67.0,40.0,5.0));
#118 = CARTESIAN_POINT('',(71.0,33.07179676972449,5.0));
#119 = CARTESIAN_POINT('',(79.0,33.07179676972449,5.0));
#120 = VERTEX_POINT('',#108);
#121 = VERTEX_POINT('',#109);
#122 = VERTEX_POINT('',#110);
#123 = VERTEX_POINT('',#111);
#124 = VERTEX_POINT('',#112);
#125 = VERTEX_POINT('',#113);
#126 = VERTEX_POINT('',#114);
#127 = VERTEX_POINT('',#115);
#128 = VERTEX_POINT('',#116);
#129 = VERTEX_POINT('',#117);
#130 = VERTEX_POINT('',#118);
#131 = VERTEX_POINT('',#119);
#132 = LINE('',#12,#7);
#133 = EDGE_CURVE('',#20,#21,#132,.T.);
#134 = LINE('',#13,#8);
#135 = EDGE_CURVE('',#21,#22,#134,.T.);
#136 = LINE('',#14,#9);
#137 = EDGE_CURVE('',#22,#23,#136,.T.);
#138 = LINE('',#15,#10);
#139 = EDGE_CURVE('',#23,#20,#138,.T.);
#140 = LINE('',#16,#7);
#141 = EDGE_CURVE('',#24,#25,#140,.T.);
#142 = LINE('',#17,#8);
#143 = EDGE_CURVE('',#25,#26,#142,.T.);
#144 = LINE('',#18,#9);
#145 = EDGE_CURVE('',#26,#27,#144,.T.);
#146 = LINE('',#19,#10);
#147 = EDGE_CURVE('',#27,#24,#146,.T.);
#148 = LINE('',#12,#11);
#149 = EDGE_CURVE('',#20,#24,#148,.T.);
#150 = LINE('',#13,#11);
#151 = EDGE_CURVE('',#21,#25,#150,.T.);
#152 = LINE('',#14,#11);
#153 = EDGE_CURVE('',#22,#26,#152,.T.);
#154 = LINE('',#15,#11);
#155 = EDGE_CURVE('',#23,#27,#154,.T.);
#156 = LINE('',#28,#7);
#157 = EDGE_CURVE('',#36,#37,#156,.T.);
#158 = LINE('',#29,#8);
#159 = EDGE_CURVE('',#37,#38,#158,.T.);
#160 = LINE('',#30,#9);
#161 = EDGE_CURVE('',#38,#39,#160,.T.);
#162 = LINE('',#31,#10);
#163 = EDGE_CURVE('',#39,#36,#162,.T.);
#164 = LINE('',#32,#7);
#165 = EDGE_CURVE('',#40,#41,#164,.T.);
#166 = LINE('',#33,#8);
#167 = EDGE_CURVE('',#41,#42,#166,.T.);
#168 = LINE('',#34,#9);
#169 = EDGE_CURVE('',#42,#43,#168,.T.);
#170 = LINE('',#35,#10);
#171 = EDGE_CURVE('',#43,#40,#170,.T.);
#172 = LINE('',#28,#11);
#173 = EDGE_CURVE('',#36,#40,#172,.T.);
#174 = LINE('',#29,#11);
#175 = EDGE_CURVE('',#37,#41,#174,.T.);
#176 = LINE('',#30,#11);
#177 = EDGE_CURVE('',#38,#42,#176,.T.);
#178 = LINE('',#31,#11);
#179 = EDGE_CURVE('',#39,#43,#178,.T.);
#180 = DIRECTION('',(-0.1950903220161283,0.9807852804032304,0));
#181 = VECTOR('',#180,1.0);
#182 = LINE('',#44,#181);
#183 = EDGE_CURVE('',#76,#77,#182,.T.);
#184 = DIRECTION('',(-0.5555702330196021,0.8314696123025453,0));
#185 = VECTOR('',#184,1.0);
#186 = LINE('',#45,#185);
#187 = EDGE_CURVE('',#77,#78,#186,.T.);
#188 = DIRECTION('',(-0.8314696123025452,0.5555702330196021,0));
#189 = VECTOR('',#188,1.0);
#190 = LINE('',#46,#189);
#191 = EDGE_CURVE('',#78,#79,#190,.T.);
#192 = DIRECTION('',(-0.9807852804032304,0.1950903220161283,0));
#193 = VECTOR('',#192,1.0);
#194 = LINE('',#47,#193);
#195 = EDGE_CURVE('',#79,#80,#194,.T.);
#196 = DIRECTION('',(-0.9807852804032304,-0.1950903220161283,0));
#197 = VECTOR('',#196,1.0);
#198 = LINE('',#48,#197);
#199 = EDGE_CURVE('',#80,#81,#198,.T.);
#200 = DIRECTION('',(-0.8314696123025452,-0.5555702330196021,0));
#201 = VECTOR('',#200,1.0);
#202 = LINE('',#49,#201);
#203 = EDGE_CURVE('',#81,#82,#202,.T.);
#204 = DIRECTION('',(-0.5555702330196024,-0.8314696123025451,0));
#205 = VECTOR('',#204,1.0);
#206 = LINE('',#50,#205);
#207 = EDGE_CURVE('',#82,#83,#206,.T.);
#208 = DIRECTION('',(-0.1950903220161283,-0.9807852804032304,0));
#209 = VECTOR('',#208,1.0);
#210 = LINE('',#51,#209);
#211 = EDGE_CURVE('',#83,#84,#210,.T.);
#212 = DIRECTION('',(0.19509032201612803,-0.9807852804032304,0));
#213 = VECTOR('',#212,1.0);
#214 = LINE('',#52,#213);
#215 = EDGE_CURVE('',#84,#85,#214,.T.);
#216 = DIRECTION('',(0.5555702330196021,-0.8314696123025453,0));
#217 = VECTOR('',#216,1.0);
#218 = LINE('',#53,#217);
#219 = EDGE_CURVE('',#85,#86,#218,.T.);
#220 = DIRECTION('',(0.8314696123025451,-0.5555702330196024,0));
#221 = VECTOR('',#220,1.0);
#222 = LINE('',#54,#221);
#223 = EDGE_CURVE('',#86,#87,#222,.T.);
#224 = DIRECTION('',(0.9807852804032303,-0.19509032201612866,0));
#225 = VECTOR('',#224,1.0);
#226 = LINE('',#55,#225);
#227 = EDGE_CURVE('',#87,#88,#226,.T.);
#228 = DIRECTION('',(0.9807852804032304,0.1950903220161284,0));
#229 = VECTOR('',#228,1.0);
#230 = LINE('',#56,#229);
#231 = EDGE_CURVE('',#88,#89,#230,.T.);
#232 = DIRECTION('',(0.8314696123025452,0.5555702330196022,0));
#233 = VECTOR('',#232,1.0);
#234 = LINE('',#57,#233);
#235 = EDGE_CURVE('',#89,#90,#234,.T.);
#236 = DIRECTION('',(0.5555702330196026,0.831469612302545,0));
#237 = VECTOR('',#236,1.0);
#238 = LINE('',#58,#237);
#239 = EDGE_CURVE('',#90,#91,#238,.T.);
#240 = DIRECTION('',(0.19509032201612855,0.9807852804032303,0));
#241 = VECTOR('',#240,1.0);
#242 = LINE('',#59,#241);
#243 = EDGE_CURVE('',#91,#76,#242,.T.);
#244 = DIRECTION('',(-0.1950903220161283,0.9807852804032304,0));
#245 = VECTOR('',#244,1.0);
#246 = LINE('',#60,#245);
#247 = EDGE_CURVE('',#92,#93,#246,.T.);
#248 = DIRECTION('',(-0.5555702330196021,0.8314696123025453,0));
#249 = VECTOR('',#248,1.0);
#250 = LINE('',#61,#249);
#251 = EDGE_CURVE('',#93,#94,#250,.T.);
#252 = DIRECTION('',(-0.8314696123025452,0.5555702330196021,0));
#253 = VECTOR('',#252,1.0);
#254 = LINE('',#62,#253);
#255 = EDGE_CURVE('',#94,#95,#254,.T.);
#256 = DIRECTION('',(-0.9807852804032304,0.1950903220161283,0));
#257 = VECTOR('',#256,1.0);
#258 = LINE('',#63,#257);
#259 = EDGE_CURVE('',#95,#96,#258,.T.);
#260 = DIRECTION('',(-0.9807852804032304,-0.1950903220161283,0));
#261 = VECTOR('',#260,1.0);
#262 = LINE('',#64,#261);
#263 = EDGE_CURVE('',#96,#97,#262,.T.);
#264 = DIRECTION('',(-0.8314696123025452,-0.5555702330196021,0));
#265 = VECTOR('',#264,1.0);
#266 = LINE('',#65,#265);
#267 = EDGE_CURVE('',#97,#98,#266,.T.);
#268 = DIRECTION('',(-0.5555702330196024,-0.8314696123025451,0));
#269 = VECTOR('',#268,1.0);
#270 = LINE('',#66,#269);
#271 = EDGE_CURVE('',#98,#99,#270,.T.);
#272 = DIRECTION('',(-0.1950903220161283,-0.9807852804032304,0));
#273 = VECTOR('',#272,1.0);
#274 = LINE('',#67,#273);
#275 = EDGE_CURVE('',#99,#100,#274,.T.);
#276 = DIRECTION('',(0.19509032201612803,-0.9807852804032304,0));
#277 = VECTOR('',#276,1.0);
#278 = LINE('',#68,#277);
#279 = EDGE_CURVE('',#100,#101,#278,.T.);
#280 = DIRECTION('',(0.5555702330196021,-0.8314696123025453,0));
#281 = VECTOR('',#280,1.0);
#282 = LINE('',#69,#281);
#283 = EDGE_CURVE('',#101,#102,#282,.T.);
#284 = DIRECTION('',(0.8314696123025451,-0.5555702330196024,0));
#285 = VECTOR('',#284,1.0);
#286 = LINE('',#70,#285);
#287 = EDGE_CURVE('',#102,#103,#286,.T.);
#288 = DIRECTION('',(0.9807852804032303,-0.19509032201612866,0));
#289 = VECTOR('',#288,1.0);
#290 = LINE('',#71,#289);
#291 = EDGE_CURVE('',#103,#104,#290,.T.);
#292 = DIRECTION('',(0.9807852804032304,0.1950903220161284,0));
#293 = VECTOR('',#292,1.0);
#294 = LINE('',#72,#293);
#295 = EDGE_CURVE('',#104,#105,#294,.T.);
#296 = DIRECTION('',(0.8314696123025452,0.5555702330196022,0));
#297 = VECTOR('',#296,1.0);
#298 = LINE('',#73,#297);
#299 = EDGE_CURVE('',#105,#106,#298,.T.);
#300 = DIRECTION('',(0.5555702330196026,0.831469612302545,0));
#301 = VECTOR('',#300,1.0);
#302 = LINE('',#74,#301);
#303 = EDGE_CURVE('',#106,#107,#302,.T.);
#304 = DIRECTION('',(0.19509032201612855,0.9807852804032303,0));
#305 = VECTOR('',#304,1.0);
#306 = LINE('',#75,#305);
#307 = EDGE_CURVE('',#107,#92,#306,.T.);
#308 = LINE('',#44,#11);
#309 = EDGE_CURVE('',#76,#92,#308,.T.);
#310 = LINE('',#45,#11);
#311 = EDGE_CURVE('',#77,#93,#310,.T.);
#312 = LINE('',#46,#11);
#313 = EDGE_CURVE('',#78,#94,#312,.T.);
#314 = LINE('',#47,#11);
#315 = EDGE_CURVE('',#79,#95,#314,.T.);
#316 = LINE('',#48,#11);
#317 = EDGE_CURVE('',#80,#96,#316,.T.);
#318 = LINE('',#49,#11);
#319 = EDGE_CURVE('',#81,#97,#318,.T.);
#320 = LINE('',#50,#11);
#321 = EDGE_CURVE('',#82,#98,#320,.T.);
#322 = LINE('',#51,#11);
#323 = EDGE_CURVE('',#83,#99,#322,.T.);
#324 = LINE('',#52,#11);
#325 = EDGE_CURVE('',#84,#100,#324,.T.);
#326 = LINE('',#53,#11);
#327 = EDGE_CURVE('',#85,#101,#326,.T.);
#328 = LINE('',#54,#11);
#329 = EDGE_CURVE('',#86,#102,#328,.T.);
#330 = LINE('',#55,#11);
#331 = EDGE_CURVE('',#87,#103,#330,.T.);
#332 = LINE('',#56,#11);
#333 = EDGE_CURVE('',#88,#104,#332,.T.);
#334 = LINE('',#57,#11);
#335 = EDGE_CURVE('',#89,#105,#334,.T.);
#336 = LINE('',#58,#11);
#337 = EDGE_CURVE('',#90,#106,#336,.T.);
#338 = LINE('',#59,#11);
#339 = EDGE_CURVE('',#91,#107,#338,.T.);
#340 = DIRECTION('',(-0.49999999999999994,0.8660254037844387,0));
#341 = VECTOR('',#340,1.0);
#342 = LINE('',#108,#341);
#343 = EDGE_CURVE('',#120,#121,#342,.T.);
#344 = DIRECTION('',(-1.0,1.1102230246251568e-16,0));
#345 = VECTOR('',#344,1.0);
#346 = LINE('',#109,#345);
#347 = EDGE_CURVE('',#121,#122,#346,.T.);
#348 = DIRECTION('',(-0.5000000000000002,-0.8660254037844386,0));
#349 = VECTOR('',#348,1.0);
#350 = LINE('',#110,#349);
#351 = EDGE_CURVE('',#122,#123,#350,.T.);
#352 = DIRECTION('',(0.49999999999999967,-0.8660254037844388,0));
#353 = VECTOR('',#352,1.0);
#354 = LINE('',#111,#353);
#355 = EDGE_CURVE('',#123,#124,#354,.T.);
#356 = DIRECTION('',(1.0,-1.110223024625156e-16,0));
#357 = VECTOR('',#356,1.0);
#358 = LINE('',#112,#357);
#359 = EDGE_CURVE('',#124,#125,#358,.T.);
#360 = DIRECTION('',(0.49999999999999994,0.8660254037844387,0));
#361 = VECTOR('',#360,1.0);
#362 = LINE('',#113,#361);
#363 = EDGE_CURVE('',#125,#120,#362,.T.);
#364 = DIRECTION('',(-0.49999999999999994,0.8660254037844387,0));
#365 = VECTOR('',#364,1.0);
#366 = LINE('',#114,#365);
#367 = EDGE_CURVE('',#126,#127,#366,.T.);
#368 = DIRECTION('',(-1.0,1.1102230246251568e-16,0));
#369 = VECTOR('',#368,1.0);
#370 = LINE('',#115,#369);
#371 = EDGE_CURVE('',#127,#128,#370,.T.);
#372 = DIRECTION('',(-0.5000000000000002,-0.8660254037844386,0));
#373 = VECTOR('',#372,1.0);
#374 = LINE('',#116,#373);
#375 = EDGE_CURVE('',#128,#129,#374,.T.);
#376 = DIRECTION('',(0.49999999999999967,-0.8660254037844388,0));
#377 = VECTOR('',#376,1.0);
#378 = LINE('',#117,#377);
#379 = EDGE_CURVE('',#129,#130,#378,.T.);
#380 = DIRECTION('',(1.0,-1.110223024625156e-16,0));
#381 = VECTOR('',#380,1.0);
#382 = LINE('',#118,#381);
#383 = EDGE_CURVE('',#130,#131,#382,.T.);
#384 = DIRECTION('',(0.49999999999999994,0.8660254037844387,0));
#385 = VECTOR('',#384,1.0);
#386 = LINE('',#119,#385);
#387 = EDGE_CURVE('',#131,#126,#386,.T.);
#388 = LINE('',#108,#11);
#389 = EDGE_CURVE('',#120,#126,#388,.T.);
#390 = LINE('',#109,#11);
#391 = EDGE_CURVE('',#121,#127,#390,.T.);
#392 = LINE('',#110,#11);
#393 = EDGE_CURVE('',#122,#128,#392,.T.);
#394 = LINE('',#111,#11);
#395 = EDGE_CURVE('',#123,#129,#394,.T.);
#396 = LINE('',#112,#11);
#397 = EDGE_CURVE('',#124,#130,#396,.T.);
#398 = LINE('',#113,#11);
#399 = EDGE_CURVE('',#125,#131,#398,.T.);
#400 = ORIENTED_EDGE('',*,*,#141,.T.);
#401 = ORIENTED_EDGE('',*,*,#143,.T.);
#402 = ORIENTED_EDGE('',*,*,#145,.T.);
#403 = ORIENTED_EDGE('',*,*,#147,.T.);
#404 = ORIENTED_EDGE('',*,*,#165,.F.);
#405 = ORIENTED_EDGE('',*,*,#167,.F.);
#406 = ORIENTED_EDGE('',*,*,#169,.F.);
#407 = ORIENTED_EDGE('',*,*,#171,.F.);
#408 = ORIENTED_EDGE('',*,*,#247,.F.);
#409 = ORIENTED_EDGE('',*,*,#251,.F.);
#410 = ORIENTED_EDGE('',*,*,#255,.F.);
#411 = ORIENTED_EDGE('',*,*,#259,.F.);
#412 = ORIENTED_EDGE('',*,*,#263,.F.);
#413 = ORIENTED_EDGE('',*,*,#267,.F.);
#414 = ORIENTED_EDGE('',*,*,#271,.F.);
#415 = ORIENTED_EDGE('',*,*,#275,.F.);
#416 = ORIENTED_EDGE('',*,*,#279,.F.);
#417 = ORIENTED_EDGE('',*,*,#283,.F.);
#418 = ORIENTED_EDGE('',*,*,#287,.F.);
#419 = ORIENTED_EDGE('',*,*,#291,.F.);
#420 = ORIENTED_EDGE('',*,*,#295,.F.);
#421 = ORIENTED_EDGE('',*,*,#299,.F.);
#422 = ORIENTED_EDGE('',*,*,#303,.F.);
#423 = ORIENTED_EDGE('',*,*,#307,.F.);
#424 = ORIENTED_EDGE('',*,*,#367,.F.);
#425 = ORIENTED_EDGE('',*,*,#371,.F.);
#426 = ORIENTED_EDGE('',*,*,#375,.F.);
#427 = ORIENTED_EDGE('',*,*,#379,.F.);
#428 = ORIENTED_EDGE('',*,*,#383,.F.);
#429 = ORIENTED_EDGE('',*,*,#387,.F.);
#430 = ORIENTED_EDGE('',*,*,#137,.F.);
#431 = ORIENTED_EDGE('',*,*,#135,.F.);
#432 = ORIENTED_EDGE('',*,*,#133,.F.);
#433 = ORIENTED_EDGE('',*,*,#139,.F.);
#434 = ORIENTED_EDGE('',*,*,#161,.T.);
#435 = ORIENTED_EDGE('',*,*,#159,.T.);
#436 = ORIENTED_EDGE('',*,*,#157,.T.);
#437 = ORIENTED_EDGE('',*,*,#163,.T.);
#438 = ORIENTED_EDGE('',*,*,#183,.T.);
#439 = ORIENTED_EDGE('',*,*,#243,.T.);
#440 = ORIENTED_EDGE('',*,*,#239,.T.);
#441 = ORIENTED_EDGE('',*,*,#235,.T.);
#442 = ORIENTED_EDGE('',*,*,#231,.T.);
#443 = ORIENTED_EDGE('',*,*,#227,.T.);
#444 = ORIENTED_EDGE('',*,*,#223,.T.);
#445 = ORIENTED_EDGE('',*,*,#219,.T.);
#446 = ORIENTED_EDGE('',*,*,#215,.T.);
#447 = ORIENTED_EDGE('',*,*,#211,.T.);
#448 = ORIENTED_EDGE('',*,*,#207,.T.);
#449 = ORIENTED_EDGE('',*,*,#203,.T.);
#450 = ORIENTED_EDGE('',*,*,#199,.T.);
#451 = ORIENTED_EDGE('',*,*,#195,.T.);
#452 = ORIENTED_EDGE('',*,*,#191,.T.);
#453 = ORIENTED_EDGE('',*,*,#187,.T.);
#454 = ORIENTED_EDGE('',*,*,#343,.T.);
#455 = ORIENTED_EDGE('',*,*,#363,.T.);
#456 = ORIENTED_EDGE('',*,*,#359,.T.);
#457 = ORIENTED_EDGE('',*,*,#355,.T.);
#458 = ORIENTED_EDGE('',*,*,#351,.T.);
#459 = ORIENTED_EDGE('',*,*,#347,.T.);
#460 = ORIENTED_EDGE('',*,*,#133,.T.);
#461 = ORIENTED_EDGE('',*,*,#151,.F.);
#462 = ORIENTED_EDGE('',*,*,#141,.F.);
#463 = ORIENTED_EDGE('',*,*,#149,.T.);
#464 = ORIENTED_EDGE('',*,*,#135,.T.);
#465 = ORIENTED_EDGE('',*,*,#153,.F.);
#466 = ORIENTED_EDGE('',*,*,#143,.F.);
#467 = ORIENTED_EDGE('',*,*,#151,.T.);
#468 = ORIENTED_EDGE('',*,*,#137,.T.);
#469 = ORIENTED_EDGE('',*,*,#155,.F.);
#470 = ORIENTED_EDGE('',*,*,#145,.F.);
#471 = ORIENTED_EDGE('',*,*,#153,.T.);
#472 = ORIENTED_EDGE('',*,*,#139,.T.);
#473 = ORIENTED_EDGE('',*,*,#149,.F.);
#474 = ORIENTED_EDGE('',*,*,#147,.F.);
#475 = ORIENTED_EDGE('',*,*,#155,.T.);
#476 = ORIENTED_EDGE('',*,*,#157,.F.);
#477 = ORIENTED_EDGE('',*,*,#175,.F.);
#478 = ORIENTED_EDGE('',*,*,#165,.T.);
#479 = ORIENTED_EDGE('',*,*,#173,.T.);
#480 = ORIENTED_EDGE('',*,*,#159,.F.);
#481 = ORIENTED_EDGE('',*,*,#177,.F.);
#482 = ORIENTED_EDGE('',*,*,#167,.T.);
#483 = ORIENTED_EDGE('',*,*,#175,.T.);
#484 = ORIENTED_EDGE('',*,*,#161,.F.);
#485 = ORIENTED_EDGE('',*,*,#179,.F.);
#486 = ORIENTED_EDGE('',*,*,#169,.T.);
#487 = ORIENTED_EDGE('',*,*,#177,.T.);
#488 = ORIENTED_EDGE('',*,*,#163,.F.);
#489 = ORIENTED_EDGE('',*,*,#173,.F.);
#490 = ORIENTED_EDGE('',*,*,#171,.T.);
#491 = ORIENTED_EDGE('',*,*,#179,.T.);
#492 = ORIENTED_EDGE('',*,*,#183,.F.);
#493 = ORIENTED_EDGE('',*,*,#311,.F.);
#494 = ORIENTED_EDGE('',*,*,#247,.T.);
#495 = ORIENTED_EDGE('',*,*,#309,.T.);
#496 = ORIENTED_EDGE('',*,*,#187,.F.);
#497 = ORIENTED_EDGE('',*,*,#313,.F.);
#498 = ORIENTED_EDGE('',*,*,#251,.T.);
#499 = ORIENTED_EDGE('',*,*,#311,.T.);
#500 = ORIENTED_EDGE('',*,*,#191,.F.);
#501 = ORIENTED_EDGE('',*,*,#315,.F.);
#502 = ORIENTED_EDGE('',*,*,#255,.T.);
#503 = ORIENTED_EDGE('',*,*,#313,.T.);
#504 = ORIENTED_EDGE('',*,*,#195,.F.);
#505 = ORIENTED_EDGE('',*,*,#317,.F.);
#506 = ORIENTED_EDGE('',*,*,#259,.T.);
#507 = ORIENTED_EDGE('',*,*,#315,.T.);
#508 = ORIENTED_EDGE('',*,*,#199,.F.);
#509 = ORIENTED_EDGE('',*,*,#319,.F.);
#510 = ORIENTED_EDGE('',*,*,#263,.T.);
#511 = ORIENTED_EDGE('',*,*,#317,.T.);
#512 = ORIENTED_EDGE('',*,*,#203,.F.);
#513 = ORIENTED_EDGE('',*,*,#321,.F.);
#514 = ORIENTED_EDGE('',*,*,#267,.T.);
#515 = ORIENTED_EDGE('',*,*,#319,.T.);
#516 = ORIENTED_EDGE('',*,*,#207,.F.);
#517 = ORIENTED_EDGE('',*,*,#323,.F.);
#518 = ORIENTED_EDGE('',*,*,#271,.T.);
#519 = ORIENTED_EDGE('',*,*,#321,.T.);
#520 = ORIENTED_EDGE('',*,*,#211,.F.);
#521 = ORIENTED_EDGE('',*,*,#325,.F.);
#522 = ORIENTED_EDGE('',*,*,#275,.T.);
#523 = ORIENTED_EDGE('',*,*,#323,.T.);
#524 = ORIENTED_EDGE('',*,*,#215,.F.);
#525 = ORIENTED_EDGE('',*,*,#327,.F.);
#526 = ORIENTED_EDGE('',*,*,#279,.T.);
#527 = ORIENTED_EDGE('',*,*,#325,.T.);
#528 = ORIENTED_EDGE('',*,*,#219,.F.);
#529 = ORIENTED_EDGE('',*,*,#329,.F.);
#530 = ORIENTED_EDGE('',*,*,#283,.T.);
#531 = ORIENTED_EDGE('',*,*,#327,.T.);
#532 = ORIENTED_EDGE('',*,*,#223,.F.);
#533 = ORIENTED_EDGE('',*,*,#331,.F.);
#534 = ORIENTED_EDGE('',*,*,#287,.T.);
#535 = ORIENTED_EDGE('',*,*,#329,.T.);
#536 = ORIENTED_EDGE('',*,*,#227,.F.);
#537 = ORIENTED_EDGE('',*,*,#333,.F.);
#538 = ORIENTED_EDGE('',*,*,#291,.T.);
#539 = ORIENTED_EDGE('',*,*,#331,.T.);
#540 = ORIENTED_EDGE('',*,*,#231,.F.);
#541 = ORIENTED_EDGE('',*,*,#335,.F.);
#542 = ORIENTED_EDGE('',*,*,#295,.T.);
#543 = ORIENTED_EDGE('',*,*,#333,.T.);
#544 = ORIENTED_EDGE('',*,*,#235,.F.);
#545 = ORIENTED_EDGE('',*,*,#337,.F.);
#546 = ORIENTED_EDGE('',*,*,#299,.T.);
#547 = ORIENTED_EDGE('',*,*,#335,.T.);
#548 = ORIENTED_EDGE('',*,*,#239,.F.);
#549 = ORIENTED_EDGE('',*,*,#339,.F.);
#550 = ORIENTED_EDGE('',*,*,#303,.T.);
#551 = ORIENTED_EDGE('',*,*,#337,.T.);
#552 = ORIENTED_EDGE('',*,*,#243,.F.);
#553 = ORIENTED_EDGE('',*,*,#309,.F.);
#554 = ORIENTED_EDGE('',*,*,#307,.T.);
#555 = ORIENTED_EDGE('',*,*,#339,.T.);
#556 = ORIENTED_EDGE('',*,*,#343,.F.);
#557 = ORIENTED_EDGE('',*,*,#391,.F.);
#558 = ORIENTED_EDGE('',*,*,#367,.T.);
#559 = ORIENTED_EDGE('',*,*,#389,.T.);
#560 = ORIENTED_EDGE('',*,*,#347,.F.);
#561 = ORIENTED_EDGE('',*,*,#393,.F.);
#562 = ORIENTED_EDGE('',*,*,#371,.T.);
#563 = ORIENTED_EDGE('',*,*,#391,.T.);
#564 = ORIENTED_EDGE('',*,*,#351,.F.);
#565 = ORIENTED_EDGE('',*,*,#395,.F.);
#566 = ORIENTED_EDGE('',*,*,#375,.T.);
#567 = ORIENTED_EDGE('',*,*,#393,.T.);
#568 = ORIENTED_EDGE('',*,*,#355,.F.);
#569 = ORIENTED_EDGE('',*,*,#397,.F.);
#570 = ORIENTED_EDGE('',*,*,#379,.T.);
#571 = ORIENTED_EDGE('',*,*,#395,.T.);
#572 = ORIENTED_EDGE('',*,*,#359,.F.);
#573 = ORIENTED_EDGE('',*,*,#399,.F.);
#574 = ORIENTED_EDGE('',*,*,#383,.T.);
#575 = ORIENTED_EDGE('',*,*,#397,.T.);
#576 = ORIENTED_EDGE('',*,*,#363,.F.);
#577 = ORIENTED_EDGE('',*,*,#389,.F.);
#578 = ORIENTED_EDGE('',*,*,#387,.T.);
#579 = ORIENTED_EDGE('',*,*,#399,.T.);
#580 = EDGE_LOOP('',(#400,#401,#402,#403));
#581 = EDGE_LOOP('',(#404,#405,#406,#407));
#582 = EDGE_LOOP('',(#408,#409,#410,#411,#412,#413,#414,#415,#416,#417,#418,#419,#420,#421,#422,#423));
#583 = EDGE_LOOP('',(#424,#425,#426,#427,#428,#429));
#584 = EDGE_LOOP('',(#430,#431,#432,#433));
#585 = EDGE_LOOP('',(#434,#435,#436,#437));
#586 = EDGE_LOOP('',(#438,#439,#440,#441,#442,#443,#444,#445,#446,#447,#448,#449,#450,#451,#452,#453));
#587 = EDGE_LOOP('',(#454,#455,#456,#457,#458,#459));
#588 = EDGE_LOOP('',(#460,#461,#462,#463));
#589 = EDGE_LOOP('',(#464,#465,#466,#467));
#590 = EDGE_LOOP('',(#468,#469,#470,#471));
#591 = EDGE_LOOP('',(#472,#473,#474,#475));
#592 = EDGE_LOOP('',(#476,#477,#478,#479));
#593 = EDGE_LOOP('',(#480,#481,#482,#483));
#594 = EDGE_LOOP('',(#484,#485,#486,#487));
#595 = EDGE_LOOP('',(#488,#489,#490,#491));
#596 = EDGE_LOOP('',(#492,#493,#494,#495));
#597 = EDGE_LOOP('',(#496,#497,#498,#499));
#598 = EDGE_LOOP('',(#500,#501,#502,#503));
#599 = EDGE_LOOP('',(#504,#505,#506,#507));
#600 = EDGE_LOOP('',(#508,#509,#510,#511));
#601 = EDGE_LOOP('',(#512,#513,#514,#515));
#602 = EDGE_LOOP('',(#516,#517,#518,#519));
#603 = EDGE_LOOP('',(#520,#521,#522,#523));
#604 = EDGE_LOOP('',(#524,#525,#526,#527));
#605 = EDGE_LOOP('',(#528,#529,#530,#531));
#606 = EDGE_LOOP('',(#532,#533,#534,#535));
#607 = EDGE_LOOP('',(#536,#537,#538,#539));
#608 = EDGE_LOOP('',(#540,#541,#542,#543));
#609 = EDGE_LOOP('',(#544,#545,#546,#547));
#610 = EDGE_LOOP('',(#548,#549,#550,#551));
#611 = EDGE_LOOP('',(#552,#553,#554,#555));
#612 = EDGE_LOOP('',(#556,#557,#558,#559));
#613 = EDGE_LOOP('',(#560,#561,#562,#563));
#614 = EDGE_LOOP('',(#564,#565,#566,#567));
#615 = EDGE_LOOP('',(#568,#569,#570,#571));
#616 = EDGE_LOOP('',(#572,#573,#574,#575));
#617 = EDGE_LOOP('',(#576,#577,#578,#579));
#618 = FACE_OUTER_BOUND('',#580,.T.);
#619 = FACE_BOUND('',#581,.T.);
#620 = FACE_BOUND('',#582,.T.);
#621 = FACE_BOUND('',#583,.T.);
#622 = FACE_OUTER_BOUND('',#584,.T.);
#623 = FACE_BOUND('',#585,.T.);
#624 = FACE_BOUND('',#586,.T.);
#625 = FACE_BOUND('',#587,.T.);
#626 = FACE_OUTER_BOUND('',#588,.T.);
#627 = FACE_OUTER_BOUND('',#589,.T.);
#628 = FACE_OUTER_BOUND('',#590,.T.);
#629 = FACE_OUTER_BOUND('',#591,.T.);
#630 = FACE_OUTER_BOUND('',#592,.T.);
#631 = FACE_OUTER_BOUND('',#593,.T.);
#632 = FACE_OUTER_BOUND('',#594,.T.);
#633 = FACE_OUTER_BOUND('',#595,.T.);
#634 = FACE_OUTER_BOUND('',#596,.T.);
#635 = FACE_OUTER_BOUND('',#597,.T.);
#636 = FACE_OUTER_BOUND('',#598,.T.);
#637 = FACE_OUTER_BOUND('',#599,.T.);
#638 = FACE_OUTER_BOUND('',#600,.T.);
#639 = FACE_OUTER_BOUND('',#601,.T.);
#640 = FACE_OUTER_BOUND('',#602,.T.);
#641 = FACE_OUTER_BOUND('',#603,.T.);
#642 = FACE_OUTER_BOUND('',#604,.T.);
#643 = FACE_OUTER_BOUND('',#605,.T.);
#644 = FACE_OUTER_BOUND('',#606,.T.);
#645 = FACE_OUTER_BOUND('',#607,.T.);
#646 = FACE_OUTER_BOUND('',#608,.T.);
#647 = FACE_OUTER_BOUND('',#609,.T.);
#648 = FACE_OUTER_BOUND('',#610,.T.);
#649 = FACE_OUTER_BOUND('',#611,.T.);
#650 = FACE_OUTER_BOUND('',#612,.T.);
#651 = FACE_OUTER_BOUND('',#613,.T.);
#652 = FACE_OUTER_BOUND('',#614,.T.);
#653 = FACE_OUTER_BOUND('',#615,.T.);
#654 = FACE_OUTER_BOUND('',#616,.T.);
#655 = FACE_OUTER_BOUND('',#617,.T.);
#656 = CARTESIAN_POINT('',(0,0,5.0));
#657 = AXIS2_PLACEMENT_3D('',#656,#5,#1);
#658 = PLANE('',#657);
#659 = CARTESIAN_POINT('',(0,0,0));
#660 = AXIS2_PLACEMENT_3D('',#659,#6,#1);
#661 = PLANE('',#660);
#662 = CARTESIAN_POINT('',(0,0,0));
#663 = AXIS2_PLACEMENT_3D('',#662,#4,#1);
#664 = PLANE('',#663);
#665 = CARTESIAN_POINT('',(100.0,0,0));
#666 = AXIS2_PLACEMENT_3D('',#665,#1,#2);
#667 = PLANE('',#666);
#668 = CARTESIAN_POINT('',(0,80.0,0));
#669 = AXIS2_PLACEMENT_3D('',#668,#2,#3);
#670 = PLANE('',#669);
#671 = CARTESIAN_POINT('',(0,0,0));
#672 = AXIS2_PLACEMENT_3D('',#671,#3,#4);
#673 = PLANE('',#672);
#674 = DIRECTION('',(0,-1,0));
#675 = DIRECTION('',(1,0,0));
#676 = AXIS2_PLACEMENT_3D('',#28,#674,#675);
#677 = PLANE('',#676);
#678 = DIRECTION('',(1,0,0));
#679 = DIRECTION('',(0,1,0));
#680 = AXIS2_PLACEMENT_3D('',#29,#678,#679);
#681 = PLANE('',#680);
#682 = DIRECTION('',(0,1,0));
#683 = DIRECTION('',(-1,0,0));
#684 = AXIS2_PLACEMENT_3D('',#30,#682,#683);
#685 = PLANE('',#684);
#686 = DIRECTION('',(-1,0,0));
#687 = DIRECTION('',(0,-1,0));
#688 = AXIS2_PLACEMENT_3D('',#31,#686,#687);
#689 = PLANE('',#688);
#690 = DIRECTION('',(0.9807852804032304,0.19509032201612825,0));
#691 = DIRECTION('',(0,0,1));
#692 = CARTESIAN_POINT('',(57.84628224322584,41.560722576129024,0));
#693 = AXIS2_PLACEMENT_3D('',#692,#690,#691);
#694 = PLANE('',#693);
#695 = DIRECTION('',(0.8314696123025452,0.5555702330196022,0));
#696 = DIRECTION('',(0,0,1));
#697 = CARTESIAN_POINT('',(56.65175689842036,44.44456186415682,0));
#698 = AXIS2_PLACEMENT_3D('',#697,#695,#696);
#699 = PLANE('',#698);
#700 = DIRECTION('',(0.5555702330196023,0.8314696123025452,0));
#701 = DIRECTION('',(0,0,1));
#702 = CARTESIAN_POINT('',(54.44456186415682,46.65175689842036,0));
#703 = AXIS2_PLACEMENT_3D('',#702,#700,#701);
#704 = PLANE('',#703);
#705 = DIRECTION('',(0.19509032201612833,0.9807852804032304,0));
#706 = DIRECTION('',(0,0,1));
#707 = CARTESIAN_POINT('',(51.560722576129024,47.84628224322584,0));
#708 = AXIS2_PLACEMENT_3D('',#707,#705,#706);
#709 = PLANE('',#708);
#710 = DIRECTION('',(-0.1950903220161282,0.9807852804032304,0));
#711 = DIRECTION('',(0,0,1));
#712 = CARTESIAN_POINT('',(48.439277423870976,47.84628224322584,0));
#713 = AXIS2_PLACEMENT_3D('',#712,#710,#711);
#714 = PLANE('',#713);
#715 = DIRECTION('',(-0.555570233019602,0.8314696123025453,0));
#716 = DIRECTION('',(0,0,1));
#717 = CARTESIAN_POINT('',(45.55543813584318,46.65175689842036,0));
#718 = AXIS2_PLACEMENT_3D('',#717,#715,#716);
#719 = PLANE('',#718);
#720 = DIRECTION('',(-0.8314696123025453,0.5555702330196022,0));
#721 = DIRECTION('',(0,0,1));
#722 = CARTESIAN_POINT('',(43.34824310157964,44.44456186415682,0));
#723 = AXIS2_PLACEMENT_3D('',#722,#720,#721);
#724 = PLANE('',#723);
#725 = DIRECTION('',(-0.9807852804032304,0.1950903220161286,0));
#726 = DIRECTION('',(0,0,1));
#727 = CARTESIAN_POINT('',(42.15371775677416,41.56072257612903,0));
#728 = AXIS2_PLACEMENT_3D('',#727,#725,#726);
#729 = PLANE('',#728);
#730 = DIRECTION('',(-0.9807852804032304,-0.19509032201612836,0));
#731 = DIRECTION('',(0,0,1));
#732 = CARTESIAN_POINT('',(42.15371775677416,38.439277423870976,0));
#733 = AXIS2_PLACEMENT_3D('',#732,#730,#731);
#734 = PLANE('',#733);
#735 = DIRECTION('',(-0.8314696123025455,-0.555570233019602,0));
#736 = DIRECTION('',(0,0,1));
#737 = CARTESIAN_POINT('',(43.348243101579634,35.55543813584318,0));
#738 = AXIS2_PLACEMENT_3D('',#737,#735,#736);
#739 = PLANE('',#738);
#740 = DIRECTION('',(-0.5555702330196022,-0.8314696123025452,0));
#741 = DIRECTION('',(0,0,1));
#742 = CARTESIAN_POINT('',(45.55543813584318,33.34824310157964,0));
#743 = AXIS2_PLACEMENT_3D('',#742,#740,#741);
#744 = PLANE('',#743);
#745 = DIRECTION('',(-0.19509032201612866,-0.9807852804032303,0));
#746 = DIRECTION('',(0,0,1));
#747 = CARTESIAN_POINT('',(48.43927742387097,32.15371775677416,0));
#748 = AXIS2_PLACEMENT_3D('',#747,#745,#746);
#749 = PLANE('',#748);
#750 = DIRECTION('',(0.1950903220161283,-0.9807852804032304,0));
#751 = DIRECTION('',(0,0,1));
#752 = CARTESIAN_POINT('',(51.560722576129024,32.15371775677416,0));
#753 = AXIS2_PLACEMENT_3D('',#752,#750,#751);
#754 = PLANE('',#753);
#755 = DIRECTION('',(0.5555702330196018,-0.8314696123025455,0));
#756 = DIRECTION('',(0,0,1));
#757 = CARTESIAN_POINT('',(54.44456186415682,33.348243101579634,0));
#758 = AXIS2_PLACEMENT_3D('',#757,#755,#756);
#759 = PLANE('',#758);
#760 = DIRECTION('',(0.8314696123025452,-0.5555702330196022,0));
#761 = DIRECTION('',(0,0,1));
#762 = CARTESIAN_POINT('',(56.65175689842036,35.55543813584318,0));
#763 = AXIS2_PLACEMENT_3D('',#762,#760,#761);
#764 = PLANE('',#763);
#765 = DIRECTION('',(0.9807852804032303,-0.19509032201612872,0));
#766 = DIRECTION('',(0,0,1));
#767 = CARTESIAN_POINT('',(57.84628224322584,38.43927742387097,0));
#768 = AXIS2_PLACEMENT_3D('',#767,#765,#766);
#769 = PLANE('',#768);
#770 = DIRECTION('',(0.8660254037844387,0.49999999999999994,0));
#771 = DIRECTION('',(0,0,1));
#772 = CARTESIAN_POINT('',(81.92820323027551,44.0,0));
#773 = AXIS2_PLACEMENT_3D('',#772,#770,#771);
#774 = PLANE('',#773);
#775 = DIRECTION('',(6.123233995736766e-17,1.0,0));
#776 = DIRECTION('',(0,0,1));
#777 = CARTESIAN_POINT('',(75.0,48.0,0));
#778 = AXIS2_PLACEMENT_3D('',#777,#775,#776);
#779 = PLANE('',#778);
#780 = DIRECTION('',(-0.8660254037844387,0.49999999999999994,0));
#781 = DIRECTION('',(0,0,1));
#782 = CARTESIAN_POINT('',(68.07179676972449,44.0,0));
#783 = AXIS2_PLACEMENT_3D('',#782,#780,#781);
#784 = PLANE('',#783);
#785 = DIRECTION('',(-0.8660254037844388,-0.4999999999999997,0));
#786 = DIRECTION('',(0,0,1));
#787 = CARTESIAN_POINT('',(68.07179676972449,36.0,0));
#788 = AXIS2_PLACEMENT_3D('',#787,#785,#786);
#789 = PLANE('',#788);
#790 = DIRECTION('',(-1.8369701987210297e-16,-1.0,0));
#791 = DIRECTION('',(0,0,1));
#792 = CARTESIAN_POINT('',(75.0,32.0,0));
#793 = AXIS2_PLACEMENT_3D('',#792,#790,#791);
#794 = PLANE('',#793);
#795 = DIRECTION('',(0.8660254037844384,-0.5000000000000004,0));
#796 = DIRECTION('',(0,0,1));
#797 = CARTESIAN_POINT('',(81.9282032302755,36.0,0));
#798 = AXIS2_PLACEMENT_3D('',#797,#795,#796);
#799 = PLANE('',#798);
#800 = ADVANCED_FACE('',(#618,#619,#620,#621),#658,.T.);
#801 = ADVANCED_FACE('',(#622,#623,#624,#625),#661,.T.);
#802 = ADVANCED_FACE('',(#626),#664,.T.);
#803 = ADVANCED_FACE('',(#627),#667,.T.);
#804 = ADVANCED_FACE('',(#628),#670,.T.);
#805 = ADVANCED_FACE('',(#629),#673,.T.);
#806 = ADVANCED_FACE('',(#630),#677,.T.);
#807 = ADVANCED_FACE('',(#631),#681,.T.);
#808 = ADVANCED_FACE('',(#632),#685,.T.);
#809 = ADVANCED_FACE('',(#633),#689,.T.);
#810 = ADVANCED_FACE('',(#634),#694,.T.);
#811 = ADVANCED_FACE('',(#635),#699,.T.);
#812 = ADVANCED_FACE('',(#636),#704,.T.);
#813 = ADVANCED_FACE('',(#637),#709,.T.);
#814 = ADVANCED_FACE('',(#638),#714,.T.);
#815 = ADVANCED_FACE('',(#639),#719,.T.);
#816 = ADVANCED_FACE('',(#640),#724,.T.);
#817 = ADVANCED_FACE('',(#641),#729,.T.);
#818 = ADVANCED_FACE('',(#642),#734,.T.);
#819 = ADVANCED_FACE('',(#643),#739,.T.);
#820 = ADVANCED_FACE('',(#644),#744,.T.);
#821 = ADVANCED_FACE('',(#645),#749,.T.);
#822 = ADVANCED_FACE('',(#646),#754,.T.);
#823 = ADVANCED_FACE('',(#647),#759,.T.);
#824 = ADVANCED_FACE('',(#648),#764,.T.);
#825 = ADVANCED_FACE('',(#649),#769,.T.);
#826 = ADVANCED_FACE('',(#650),#774,.T.);
#827 = ADVANCED_FACE('',(#651),#779,.T.);
#828 = ADVANCED_FACE('',(#652),#784,.T.);
#829 = ADVANCED_FACE('',(#653),#789,.T.);
#830 = ADVANCED_FACE('',(#654),#794,.T.);
#831 = ADVANCED_FACE('',(#655),#799,.T.);
#832 = CLOSED_SHELL('',(#800,#801,#802,#803,#804,#805,#806,#807,#808,#809,#810,#811,#812,#813,#814,#815,#816,#817,#818,#819,#820,#821,#822,#823,#824,#825,#826,#827,#828,#829,#830,#831));
#833 = MANIFOLD_SOLID_BREP('',#832);
#834 = DIRECTION('',(0,0,1));
#835 = DIRECTION('',(1,0,0));
#836 = CARTESIAN_POINT('',(0,0,0));
#837 = AXIS2_PLACEMENT_3D('',#836,#834,#835);
#838 = ADVANCED_BREP_SHAPE_REPRESENTATION('',(#837,#833),#842);
#839 = APPLICATION_CONTEXT('core data for automotive mechanical design processes');
#840 = APPLICATION_PROTOCOL_DEFINITION('international standard','automotive_design',2000,#839);
#841 = PRODUCT_CONTEXT('',#839,'mechanical');
#842 = PRODUCT('HoledPlate','HoledPlate','',(#{pc}));
#843 = PRODUCT_DEFINITION_FORMATION('','',#842);
#844 = PRODUCT_DEFINITION_CONTEXT('part definition',#839,'design');
#845 = PRODUCT_DEFINITION('design','',#843,#844);
#846 = PRODUCT_DEFINITION_SHAPE('','',#845);
#847 = SHAPE_DEFINITION_REPRESENTATION(#846,#838);
#848 = ( LENGTH_UNIT() NAMED_UNIT(*) SI_UNIT(.MILLI.,.METRE.) )();
#849 = ( NAMED_UNIT(*) PLANE_ANGLE_UNIT() SI_UNIT($,.RADIAN.) )();
#850 = ( NAMED_UNIT(*) SI_UNIT($,.STERADIAN.) SOLID_ANGLE_UNIT() )();
#851 = UNCERTAINTY_MEASURE_WITH_UNIT(LENGTH_MEASURE(1.E-07),#848,'distance_accuracy_value','confusion accuracy');
#852 = ( GEOMETRIC_REPRESENTATION_CONTEXT(3) GLOBAL_UNCERTAINTY_ASSIGNED_CONTEXT((#{um})) GLOBAL_UNIT_ASSIGNED_CONTEXT((#{lu},#{pau},#{sau})) REPRESENTATION_CONTEXT('Context #1','3D Context with UNIT and UNCERTAINTY') )();
#853 = PRODUCT_RELATED_PRODUCT_CATEGORY('part',$,(#842));
ENDSEC;
END-ISO-10303-21;
