ISO-10303-21;
HEADER;
FILE_DESCRIPTION(('ruststep offset plane with hole'),'2;1');
FILE_NAME('OffsetPlaneHoleEdge','2026-06-05T00:00:00',('Author'),(''),
  'Open CASCADE STEP processor 7.8','ruststep','Unknown');
FILE_SCHEMA(('AUTOMOTIVE_DESIGN { 1 0 10303 214 1 1 1 1 }'));
ENDSEC;
DATA;
#1 = CARTESIAN_POINT('',(0.,0.,0.));
#2 = DIRECTION('',(0.,0.,1.));
#3 = DIRECTION('',(1.,0.,0.));
#4 = AXIS2_PLACEMENT_3D('',#1,#2,#3);
#5 = PLANE('',#4);
#6 = OFFSET_SURFACE('',#5,2.,.F.);
#10 = CARTESIAN_POINT('',(0.,0.,2.));
#11 = VERTEX_POINT('',#10);
#12 = CARTESIAN_POINT('',(10.,0.,2.));
#13 = VERTEX_POINT('',#12);
#14 = CARTESIAN_POINT('',(10.,10.,2.));
#15 = VERTEX_POINT('',#14);
#16 = CARTESIAN_POINT('',(0.,10.,2.));
#17 = VERTEX_POINT('',#16);
#20 = CARTESIAN_POINT('',(0.,0.,2.));
#21 = DIRECTION('',(1.,0.,0.));
#22 = VECTOR('',#21,10.);
#23 = LINE('',#20,#22);
#24 = CARTESIAN_POINT('',(0.,0.));
#25 = DIRECTION('',(1.,0.,0.));
#26 = VECTOR('',#25,10.);
#27 = LINE('',#24,#26);
#28 = ( GEOMETRIC_REPRESENTATION_CONTEXT(2) PARAMETRIC_REPRESENTATION_CONTEXT() REPRESENTATION_CONTEXT('2D SPACE','') );
#29 = DEFINITIONAL_REPRESENTATION('',(#27),#28);
#30 = PCURVE('',#5,#29);
#31 = SURFACE_CURVE('',#23,(#30),.PCURVE_S1.);
#32 = EDGE_CURVE('',#11,#13,#31,.T.);
#33 = ORIENTED_EDGE('',*,*,#32,.T.);
#40 = CARTESIAN_POINT('',(10.,0.,2.));
#41 = DIRECTION('',(0.,1.,0.));
#42 = VECTOR('',#41,10.);
#43 = LINE('',#40,#42);
#44 = CARTESIAN_POINT('',(10.,0.));
#45 = DIRECTION('',(0.,1.,0.));
#46 = VECTOR('',#45,10.);
#47 = LINE('',#44,#46);
#48 = DEFINITIONAL_REPRESENTATION('',(#47),#28);
#49 = PCURVE('',#5,#48);
#50 = SURFACE_CURVE('',#43,(#49),.PCURVE_S1.);
#51 = EDGE_CURVE('',#13,#15,#50,.T.);
#52 = ORIENTED_EDGE('',*,*,#51,.T.);
#60 = CARTESIAN_POINT('',(10.,10.,2.));
#61 = DIRECTION('',(-1.,0.,0.));
#62 = VECTOR('',#61,10.);
#63 = LINE('',#60,#62);
#64 = CARTESIAN_POINT('',(10.,10.));
#65 = DIRECTION('',(-1.,0.,0.));
#66 = VECTOR('',#65,10.);
#67 = LINE('',#64,#66);
#68 = DEFINITIONAL_REPRESENTATION('',(#67),#28);
#69 = PCURVE('',#5,#68);
#70 = SURFACE_CURVE('',#63,(#69),.PCURVE_S1.);
#71 = EDGE_CURVE('',#15,#17,#70,.T.);
#72 = ORIENTED_EDGE('',*,*,#71,.T.);
#80 = CARTESIAN_POINT('',(0.,10.,2.));
#81 = DIRECTION('',(0.,-1.,0.));
#82 = VECTOR('',#81,10.);
#83 = LINE('',#80,#82);
#84 = CARTESIAN_POINT('',(0.,10.));
#85 = DIRECTION('',(0.,-1.,0.));
#86 = VECTOR('',#85,10.);
#87 = LINE('',#84,#86);
#88 = DEFINITIONAL_REPRESENTATION('',(#87),#28);
#89 = PCURVE('',#5,#88);
#90 = SURFACE_CURVE('',#83,(#89),.PCURVE_S1.);
#91 = EDGE_CURVE('',#17,#11,#90,.T.);
#92 = ORIENTED_EDGE('',*,*,#91,.T.);
#100 = EDGE_LOOP('',(#33,#52,#72,#92));
#101 = FACE_BOUND('',#100,.T.);
#110 = CARTESIAN_POINT('',(3.,3.,2.));
#111 = VERTEX_POINT('',#110);
#112 = CARTESIAN_POINT('',(7.,3.,2.));
#113 = VERTEX_POINT('',#112);
#114 = CARTESIAN_POINT('',(7.,7.,2.));
#115 = VERTEX_POINT('',#114);
#116 = CARTESIAN_POINT('',(3.,7.,2.));
#117 = VERTEX_POINT('',#116);
#120 = CARTESIAN_POINT('',(3.,3.,2.));
#121 = DIRECTION('',(1.,0.,0.));
#122 = VECTOR('',#121,4.);
#123 = LINE('',#120,#122);
#124 = CARTESIAN_POINT('',(3.,3.));
#125 = DIRECTION('',(1.,0.,0.));
#126 = VECTOR('',#125,4.);
#127 = LINE('',#124,#126);
#128 = DEFINITIONAL_REPRESENTATION('',(#127),#28);
#129 = PCURVE('',#5,#128);
#130 = SURFACE_CURVE('',#123,(#129),.PCURVE_S1.);
#131 = EDGE_CURVE('',#111,#113,#130,.T.);
#132 = ORIENTED_EDGE('',*,*,#131,.T.);
#140 = CARTESIAN_POINT('',(7.,3.,2.));
#141 = DIRECTION('',(0.,1.,0.));
#142 = VECTOR('',#141,4.);
#143 = LINE('',#140,#142);
#144 = CARTESIAN_POINT('',(7.,3.));
#145 = DIRECTION('',(0.,1.,0.));
#146 = VECTOR('',#145,4.);
#147 = LINE('',#144,#146);
#148 = DEFINITIONAL_REPRESENTATION('',(#147),#28);
#149 = PCURVE('',#5,#148);
#150 = SURFACE_CURVE('',#143,(#149),.PCURVE_S1.);
#151 = EDGE_CURVE('',#113,#115,#150,.T.);
#152 = ORIENTED_EDGE('',*,*,#151,.T.);
#160 = CARTESIAN_POINT('',(7.,7.,2.));
#161 = DIRECTION('',(-1.,0.,0.));
#162 = VECTOR('',#161,4.);
#163 = LINE('',#160,#162);
#164 = CARTESIAN_POINT('',(7.,7.));
#165 = DIRECTION('',(-1.,0.,0.));
#166 = VECTOR('',#165,4.);
#167 = LINE('',#164,#166);
#168 = DEFINITIONAL_REPRESENTATION('',(#167),#28);
#169 = PCURVE('',#5,#168);
#170 = SURFACE_CURVE('',#163,(#169),.PCURVE_S1.);
#171 = EDGE_CURVE('',#115,#117,#170,.T.);
#172 = ORIENTED_EDGE('',*,*,#171,.T.);
#180 = CARTESIAN_POINT('',(3.,7.,2.));
#181 = DIRECTION('',(0.,-1.,0.));
#182 = VECTOR('',#181,4.);
#183 = LINE('',#180,#182);
#184 = CARTESIAN_POINT('',(3.,7.));
#185 = DIRECTION('',(0.,-1.,0.));
#186 = VECTOR('',#185,4.);
#187 = LINE('',#184,#186);
#188 = DEFINITIONAL_REPRESENTATION('',(#187),#28);
#189 = PCURVE('',#5,#188);
#190 = SURFACE_CURVE('',#183,(#189),.PCURVE_S1.);
#191 = EDGE_CURVE('',#117,#111,#190,.T.);
#192 = ORIENTED_EDGE('',*,*,#191,.T.);
#200 = EDGE_LOOP('',(#132,#152,#172,#192));
#201 = FACE_BOUND('',#200,.F.);
#210 = ADVANCED_FACE('',(#101,#201),#6,.T.);
#240 = CARTESIAN_POINT('',(0.,0.,0.));
#241 = VERTEX_POINT('',#240);
#242 = CARTESIAN_POINT('',(10.,0.,0.));
#243 = VERTEX_POINT('',#242);
#244 = CARTESIAN_POINT('',(10.,10.,0.));
#245 = VERTEX_POINT('',#244);
#246 = CARTESIAN_POINT('',(0.,10.,0.));
#247 = VERTEX_POINT('',#246);
#248 = CARTESIAN_POINT('',(3.,3.,0.));
#249 = VERTEX_POINT('',#248);
#250 = CARTESIAN_POINT('',(7.,3.,0.));
#251 = VERTEX_POINT('',#250);
#252 = CARTESIAN_POINT('',(7.,7.,0.));
#253 = VERTEX_POINT('',#252);
#254 = CARTESIAN_POINT('',(3.,7.,0.));
#255 = VERTEX_POINT('',#254);
#500 = CARTESIAN_POINT('',(0.,0.,0.));
#501 = DIRECTION('',(0.,0.,1.));
#502 = VECTOR('',#501,2.);
#503 = LINE('',#500,#502);
#504 = EDGE_CURVE('',#241,#11,#503,.T.);
#510 = CARTESIAN_POINT('',(10.,0.,0.));
#511 = DIRECTION('',(0.,0.,1.));
#512 = VECTOR('',#511,2.);
#513 = LINE('',#510,#512);
#514 = EDGE_CURVE('',#243,#13,#513,.T.);
#520 = CARTESIAN_POINT('',(10.,10.,0.));
#521 = DIRECTION('',(0.,0.,1.));
#522 = VECTOR('',#521,2.);
#523 = LINE('',#520,#522);
#524 = EDGE_CURVE('',#245,#15,#523,.T.);
#530 = CARTESIAN_POINT('',(0.,10.,0.));
#531 = DIRECTION('',(0.,0.,1.));
#532 = VECTOR('',#531,2.);
#533 = LINE('',#530,#532);
#534 = EDGE_CURVE('',#247,#17,#533,.T.);
#540 = DIRECTION('',(1.,0.,0.));
#541 = VECTOR('',#540,10.);
#542 = LINE('',#500,#541);
#544 = EDGE_CURVE('',#241,#243,#542,.T.);
#550 = DIRECTION('',(0.,1.,0.));
#551 = VECTOR('',#550,10.);
#552 = LINE('',#510,#551);
#554 = EDGE_CURVE('',#243,#245,#552,.T.);
#560 = DIRECTION('',(-1.,0.,0.));
#561 = VECTOR('',#560,10.);
#562 = LINE('',#520,#561);
#564 = EDGE_CURVE('',#245,#247,#562,.T.);
#570 = DIRECTION('',(0.,-1.,0.));
#571 = VECTOR('',#570,10.);
#572 = LINE('',#530,#571);
#574 = EDGE_CURVE('',#247,#241,#572,.T.);
#580 = EDGE_LOOP('',(#581,#582,#583,#584));
#581 = ORIENTED_EDGE('',*,*,#544,.T.);
#582 = ORIENTED_EDGE('',*,*,#554,.T.);
#583 = ORIENTED_EDGE('',*,*,#564,.T.);
#584 = ORIENTED_EDGE('',*,*,#574,.T.);
#590 = CARTESIAN_POINT('',(3.,3.,0.));
#591 = DIRECTION('',(1.,0.,0.));
#592 = VECTOR('',#591,4.);
#593 = LINE('',#590,#592);
#594 = EDGE_CURVE('',#249,#251,#593,.T.);
#600 = CARTESIAN_POINT('',(7.,3.,0.));
#601 = DIRECTION('',(0.,1.,0.));
#602 = VECTOR('',#601,4.);
#603 = LINE('',#600,#602);
#604 = EDGE_CURVE('',#251,#253,#603,.T.);
#610 = CARTESIAN_POINT('',(7.,7.,0.));
#611 = DIRECTION('',(-1.,0.,0.));
#612 = VECTOR('',#611,4.);
#613 = LINE('',#610,#612);
#614 = EDGE_CURVE('',#253,#255,#613,.T.);
#620 = CARTESIAN_POINT('',(3.,7.,0.));
#621 = DIRECTION('',(0.,-1.,0.));
#622 = VECTOR('',#621,4.);
#623 = LINE('',#620,#622);
#624 = EDGE_CURVE('',#255,#249,#623,.T.);
#630 = EDGE_LOOP('',(#631,#632,#633,#634));
#631 = ORIENTED_EDGE('',*,*,#594,.T.);
#632 = ORIENTED_EDGE('',*,*,#604,.T.);
#633 = ORIENTED_EDGE('',*,*,#614,.T.);
#634 = ORIENTED_EDGE('',*,*,#624,.T.);
#640 = CARTESIAN_POINT('',(3.,3.,0.));
#641 = DIRECTION('',(0.,0.,1.));
#642 = VECTOR('',#641,2.);
#643 = LINE('',#640,#642);
#644 = EDGE_CURVE('',#249,#111,#643,.T.);
#650 = CARTESIAN_POINT('',(7.,3.,0.));
#651 = DIRECTION('',(0.,0.,1.));
#652 = VECTOR('',#651,2.);
#653 = LINE('',#650,#652);
#654 = EDGE_CURVE('',#251,#113,#653,.T.);
#660 = CARTESIAN_POINT('',(7.,7.,0.));
#661 = DIRECTION('',(0.,0.,1.));
#662 = VECTOR('',#661,2.);
#663 = LINE('',#660,#662);
#664 = EDGE_CURVE('',#253,#115,#663,.T.);
#670 = CARTESIAN_POINT('',(3.,7.,0.));
#671 = DIRECTION('',(0.,0.,1.));
#672 = VECTOR('',#671,2.);
#673 = LINE('',#670,#672);
#674 = EDGE_CURVE('',#255,#117,#673,.T.);
#300 = ADVANCED_FACE('',(#301,#302),#5,.F.);
#301 = FACE_BOUND('',#580,.T.);
#302 = FACE_BOUND('',#630,.F.);
#310 = PLANE('',#315);
#315 = AXIS2_PLACEMENT_3D('',#316,#317,#318);
#316 = CARTESIAN_POINT('',(0.,0.,0.));
#317 = DIRECTION('',(0.,-1.,0.));
#318 = DIRECTION('',(1.,0.,0.));
#680 = EDGE_LOOP('',(#681,#682,#683,#684));
#681 = ORIENTED_EDGE('',*,*,#544,.T.);
#682 = ORIENTED_EDGE('',*,*,#514,.T.);
#683 = ORIENTED_EDGE('',*,*,#32,.F.);
#684 = ORIENTED_EDGE('',*,*,#504,.F.);
#319 = ADVANCED_FACE('',(#685),#310,.T.);
#685 = FACE_BOUND('',#680,.T.);
#330 = PLANE('',#335);
#335 = AXIS2_PLACEMENT_3D('',#336,#337,#338);
#336 = CARTESIAN_POINT('',(0.,10.,0.));
#337 = DIRECTION('',(0.,1.,0.));
#338 = DIRECTION('',(1.,0.,0.));
#690 = EDGE_LOOP('',(#691,#692,#693,#694));
#691 = ORIENTED_EDGE('',*,*,#564,.F.);
#692 = ORIENTED_EDGE('',*,*,#524,.T.);
#693 = ORIENTED_EDGE('',*,*,#71,.T.);
#694 = ORIENTED_EDGE('',*,*,#534,.T.);
#339 = ADVANCED_FACE('',(#695),#330,.T.);
#695 = FACE_BOUND('',#690,.T.);
#350 = PLANE('',#355);
#355 = AXIS2_PLACEMENT_3D('',#356,#357,#358);
#356 = CARTESIAN_POINT('',(0.,0.,0.));
#357 = DIRECTION('',(-1.,0.,0.));
#358 = DIRECTION('',(0.,1.,0.));
#700 = EDGE_LOOP('',(#701,#702,#703,#704));
#701 = ORIENTED_EDGE('',*,*,#574,.F.);
#702 = ORIENTED_EDGE('',*,*,#534,.T.);
#703 = ORIENTED_EDGE('',*,*,#91,.T.);
#704 = ORIENTED_EDGE('',*,*,#504,.T.);
#359 = ADVANCED_FACE('',(#705),#350,.T.);
#705 = FACE_BOUND('',#700,.T.);
#370 = PLANE('',#375);
#375 = AXIS2_PLACEMENT_3D('',#376,#377,#378);
#376 = CARTESIAN_POINT('',(10.,0.,0.));
#377 = DIRECTION('',(1.,0.,0.));
#378 = DIRECTION('',(0.,1.,0.));
#710 = EDGE_LOOP('',(#711,#712,#713,#714));
#711 = ORIENTED_EDGE('',*,*,#554,.T.);
#712 = ORIENTED_EDGE('',*,*,#524,.T.);
#713 = ORIENTED_EDGE('',*,*,#51,.F.);
#714 = ORIENTED_EDGE('',*,*,#514,.F.);
#379 = ADVANCED_FACE('',(#715),#370,.T.);
#715 = FACE_BOUND('',#710,.T.);
#420 = PLANE('',#425);
#425 = AXIS2_PLACEMENT_3D('',#426,#427,#428);
#426 = CARTESIAN_POINT('',(0.,3.,0.));
#427 = DIRECTION('',(0.,1.,0.));
#428 = DIRECTION('',(1.,0.,0.));
#720 = EDGE_LOOP('',(#721,#722,#723,#724));
#721 = ORIENTED_EDGE('',*,*,#594,.T.);
#722 = ORIENTED_EDGE('',*,*,#654,.T.);
#723 = ORIENTED_EDGE('',*,*,#131,.F.);
#724 = ORIENTED_EDGE('',*,*,#644,.F.);
#429 = ADVANCED_FACE('',(#725),#420,.T.);
#725 = FACE_BOUND('',#720,.T.);
#440 = PLANE('',#445);
#445 = AXIS2_PLACEMENT_3D('',#446,#447,#448);
#446 = CARTESIAN_POINT('',(0.,7.,0.));
#447 = DIRECTION('',(0.,-1.,0.));
#448 = DIRECTION('',(1.,0.,0.));
#730 = EDGE_LOOP('',(#731,#732,#733,#734));
#731 = ORIENTED_EDGE('',*,*,#614,.T.);
#732 = ORIENTED_EDGE('',*,*,#674,.T.);
#733 = ORIENTED_EDGE('',*,*,#171,.F.);
#734 = ORIENTED_EDGE('',*,*,#664,.F.);
#449 = ADVANCED_FACE('',(#735),#440,.T.);
#735 = FACE_BOUND('',#730,.T.);
#460 = PLANE('',#465);
#465 = AXIS2_PLACEMENT_3D('',#466,#467,#468);
#466 = CARTESIAN_POINT('',(3.,0.,0.));
#467 = DIRECTION('',(1.,0.,0.));
#468 = DIRECTION('',(0.,1.,0.));
#740 = EDGE_LOOP('',(#741,#742,#743,#744));
#741 = ORIENTED_EDGE('',*,*,#624,.T.);
#742 = ORIENTED_EDGE('',*,*,#644,.T.);
#743 = ORIENTED_EDGE('',*,*,#191,.F.);
#744 = ORIENTED_EDGE('',*,*,#674,.F.);
#469 = ADVANCED_FACE('',(#745),#460,.T.);
#745 = FACE_BOUND('',#740,.T.);
#480 = PLANE('',#485);
#485 = AXIS2_PLACEMENT_3D('',#486,#487,#488);
#486 = CARTESIAN_POINT('',(7.,0.,0.));
#487 = DIRECTION('',(-1.,0.,0.));
#488 = DIRECTION('',(0.,1.,0.));
#750 = EDGE_LOOP('',(#751,#752,#753,#754));
#751 = ORIENTED_EDGE('',*,*,#604,.T.);
#752 = ORIENTED_EDGE('',*,*,#664,.T.);
#753 = ORIENTED_EDGE('',*,*,#151,.F.);
#754 = ORIENTED_EDGE('',*,*,#654,.F.);
#489 = ADVANCED_FACE('',(#755),#480,.T.);
#755 = FACE_BOUND('',#750,.T.);
#220 = CLOSED_SHELL('',(#210,#300,#319,#339,#359,#379,#429,#449,#469,#489));
#221 = MANIFOLD_SOLID_BREP('',#220);
#222 = ADVANCED_BREP_SHAPE_REPRESENTATION('',(#4,#221),#230);
#230 = ( GEOMETRIC_REPRESENTATION_CONTEXT(3) GLOBAL_UNCERTAINTY_ASSIGNED_CONTEXT((#231)) GLOBAL_UNIT_ASSIGNED_CONTEXT((#232,#233,#234)) REPRESENTATION_CONTEXT('3D','') );
#231 = UNCERTAINTY_MEASURE_WITH_UNIT(LENGTH_MEASURE(1.E-07),#232,'distance_accuracy_value','');
#232 = ( LENGTH_UNIT() NAMED_UNIT(*) SI_UNIT(.MILLI.,.METRE.) );
#233 = ( NAMED_UNIT(*) PLANE_ANGLE_UNIT() SI_UNIT($,.RADIAN.) );
#234 = ( NAMED_UNIT(*) SI_UNIT($,.STERADIAN.) );
#900 = APPLICATION_PROTOCOL_DEFINITION('international standard',
  'automotive_design',2000,#901);
#901 = APPLICATION_CONTEXT(
  'core data for automotive mechanical design processes');
#902 = PRODUCT('OffsetPlaneHoleEdge','OffsetPlaneHoleEdge','',(#903));
#903 = PRODUCT_CONTEXT('',#901,'mechanical');
#904 = PRODUCT_DEFINITION_FORMATION('','',#902);
#905 = PRODUCT_DEFINITION('design','',#904,#906);
#906 = PRODUCT_DEFINITION_CONTEXT('part definition',#901,'design');
#907 = PRODUCT_DEFINITION_SHAPE('','',#905);
#908 = SHAPE_DEFINITION_REPRESENTATION(#907,#222);
ENDSEC;
END-ISO-10303-21;
